{
	"patcher" : 	{
		"fileversion" : 1,
		"appversion" : 		{
			"major" : 8,
			"minor" : 6,
			"revision" : 1,
			"architecture" : "x64",
			"modernui" : 1
		}
,
		"classnamespace" : "box",
		"rect" : [ 34.0, 87.0, 1372.0, 721.0 ],
		"bglocked" : 0,
		"openinpresentation" : 0,
		"default_fontsize" : 12.0,
		"default_fontface" : 0,
		"default_fontname" : "Arial",
		"gridonopen" : 1,
		"gridsize" : [ 15.0, 15.0 ],
		"gridsnaponopen" : 1,
		"objectsnaponopen" : 1,
		"statusbarvisible" : 2,
		"toolbarvisible" : 1,
		"lefttoolbarpinned" : 0,
		"toptoolbarpinned" : 0,
		"righttoolbarpinned" : 0,
		"bottomtoolbarpinned" : 0,
		"toolbars_unpinned_last_save" : 0,
		"tallnewobj" : 0,
		"boxanimatetime" : 200,
		"enablehscroll" : 1,
		"enablevscroll" : 1,
		"devicewidth" : 0.0,
		"description" : "",
		"digest" : "",
		"tags" : "",
		"style" : "",
		"subpatcher_template" : "",
		"assistshowspatchername" : 0,
		"boxes" : [ 			{
				"box" : 				{
					"id" : "obj-77",
					"maxclass" : "message",
					"numinlets" : 2,
					"numoutlets" : 1,
					"outlettype" : [ "" ],
					"patching_rect" : [ 1215.0, 625.0, 48.0, 22.0 ],
					"text" : "oh.mov"
				}

			}
, 			{
				"box" : 				{
					"id" : "obj-66",
					"maxclass" : "newobj",
					"numinlets" : 1,
					"numoutlets" : 1,
					"outlettype" : [ "bang" ],
					"patching_rect" : [ 1169.0, 546.0, 58.0, 22.0 ],
					"text" : "loadbang"
				}

			}
, 			{
				"box" : 				{
					"id" : "obj-68",
					"maxclass" : "message",
					"numinlets" : 2,
					"numoutlets" : 1,
					"outlettype" : [ "" ],
					"patching_rect" : [ 790.0, 149.0, 59.0, 22.0 ],
					"text" : "burp.mp3"
				}

			}
, 			{
				"box" : 				{
					"id" : "obj-65",
					"maxclass" : "newobj",
					"numinlets" : 1,
					"numoutlets" : 1,
					"outlettype" : [ "bang" ],
					"patching_rect" : [ 786.0, 114.0, 58.0, 22.0 ],
					"text" : "loadbang"
				}

			}
, 			{
				"box" : 				{
					"bgmode" : 0,
					"border" : 0,
					"clickthrough" : 0,
					"enablehscroll" : 0,
					"enablevscroll" : 0,
					"extract" : 1,
					"id" : "obj-63",
					"lockeddragscroll" : 0,
					"lockedsize" : 0,
					"maxclass" : "bpatcher",
					"name" : "bp.Compressor.maxpat",
					"numinlets" : 2,
					"numoutlets" : 2,
					"offset" : [ 0.0, 0.0 ],
					"outlettype" : [ "signal", "signal" ],
					"patching_rect" : [ 707.0, 457.0, 339.0, 116.0 ],
					"varname" : "bp.Compressor[1]",
					"viewvisibility" : 1
				}

			}
, 			{
				"box" : 				{
					"bubbleside" : 2,
					"fontface" : 1,
					"fontsize" : 14.0,
					"id" : "obj-54",
					"maxclass" : "comment",
					"numinlets" : 1,
					"numoutlets" : 0,
					"patching_rect" : [ 290.5, 879.0, 185.0, 22.0 ],
					"text" : "LOOP START"
				}

			}
, 			{
				"box" : 				{
					"bubbleside" : 2,
					"fontface" : 1,
					"fontsize" : 14.0,
					"id" : "obj-27",
					"maxclass" : "comment",
					"numinlets" : 1,
					"numoutlets" : 0,
					"patching_rect" : [ 275.5, 864.0, 185.0, 22.0 ],
					"text" : "LIGHT LEVEL"
				}

			}
, 			{
				"box" : 				{
					"bubbleside" : 2,
					"fontface" : 1,
					"fontsize" : 14.0,
					"id" : "obj-25",
					"maxclass" : "comment",
					"numinlets" : 1,
					"numoutlets" : 0,
					"patching_rect" : [ 1187.0, 246.0, 339.0, 22.0 ],
					"text" : "LOW LIGHT"
				}

			}
, 			{
				"box" : 				{
					"bubbleside" : 2,
					"fontface" : 1,
					"fontsize" : 14.0,
					"id" : "obj-7",
					"maxclass" : "comment",
					"numinlets" : 1,
					"numoutlets" : 0,
					"patching_rect" : [ 244.5, 849.0, 185.0, 22.0 ],
					"presentation" : 1,
					"presentation_rect" : [ 965.0, 213.0, 107.0, 22.0 ],
					"text" : "LOW LIGHT"
				}

			}
, 			{
				"box" : 				{
					"bubbleside" : 2,
					"fontface" : 1,
					"fontsize" : 14.0,
					"id" : "obj-17",
					"maxclass" : "comment",
					"numinlets" : 1,
					"numoutlets" : 0,
					"patching_rect" : [ 290.5, 879.0, 185.0, 22.0 ],
					"presentation" : 1,
					"presentation_rect" : [ 1064.0, 398.5, 107.0, 22.0 ],
					"text" : "LOOP END"
				}

			}
, 			{
				"box" : 				{
					"bubbleside" : 2,
					"fontface" : 1,
					"fontsize" : 14.0,
					"id" : "obj-14",
					"maxclass" : "comment",
					"numinlets" : 1,
					"numoutlets" : 0,
					"patching_rect" : [ 275.5, 864.0, 185.0, 22.0 ],
					"presentation" : 1,
					"presentation_rect" : [ 938.0, 398.5, 99.0, 22.0 ],
					"text" : "LOOP START"
				}

			}
, 			{
				"box" : 				{
					"bubbleside" : 2,
					"fontface" : 1,
					"fontsize" : 14.0,
					"id" : "obj-8",
					"maxclass" : "comment",
					"numinlets" : 1,
					"numoutlets" : 0,
					"patching_rect" : [ 260.5, 849.0, 185.0, 22.0 ],
					"presentation" : 1,
					"presentation_rect" : [ 965.0, 244.0, 107.0, 22.0 ],
					"text" : "LIGHT LEVEL"
				}

			}
, 			{
				"box" : 				{
					"bubbleside" : 2,
					"fontface" : 1,
					"fontsize" : 14.0,
					"id" : "obj-5",
					"maxclass" : "comment",
					"numinlets" : 1,
					"numoutlets" : 0,
					"patching_rect" : [ 221.5, 855.0, 185.0, 22.0 ],
					"presentation" : 1,
					"presentation_rect" : [ 965.0, 182.0, 107.0, 22.0 ],
					"text" : "HIGH LIGHT"
				}

			}
, 			{
				"box" : 				{
					"id" : "obj-76",
					"maxclass" : "number",
					"maximum" : 1023,
					"minimum" : 0,
					"numinlets" : 1,
					"numoutlets" : 2,
					"outlettype" : [ "", "bang" ],
					"parameter_enable" : 0,
					"patching_rect" : [ 603.0, 504.0, 50.0, 22.0 ],
					"presentation" : 1,
					"presentation_rect" : [ 911.5, 182.0, 50.0, 22.0 ]
				}

			}
, 			{
				"box" : 				{
					"id" : "obj-75",
					"maxclass" : "number",
					"maximum" : 1023,
					"minimum" : 0,
					"numinlets" : 1,
					"numoutlets" : 2,
					"outlettype" : [ "", "bang" ],
					"parameter_enable" : 0,
					"patching_rect" : [ 548.0, 504.0, 50.0, 22.0 ],
					"presentation" : 1,
					"presentation_rect" : [ 911.5, 213.0, 50.0, 22.0 ]
				}

			}
, 			{
				"box" : 				{
					"bubbleside" : 2,
					"fontface" : 1,
					"fontsize" : 14.0,
					"id" : "obj-45",
					"maxclass" : "comment",
					"numinlets" : 1,
					"numoutlets" : 0,
					"patching_rect" : [ 235.5, 831.0, 185.0, 22.0 ],
					"presentation" : 1,
					"presentation_rect" : [ 957.5, 141.0, 86.0, 22.0 ],
					"text" : "PITCH"
				}

			}
, 			{
				"box" : 				{
					"bubbleside" : 2,
					"fontface" : 1,
					"fontsize" : 14.0,
					"id" : "obj-29",
					"maxclass" : "comment",
					"numinlets" : 1,
					"numoutlets" : 0,
					"patching_rect" : [ 220.5, 816.0, 185.0, 22.0 ],
					"presentation" : 1,
					"presentation_rect" : [ 957.5, 92.0, 86.0, 22.0 ],
					"text" : "SPEED"
				}

			}
, 			{
				"box" : 				{
					"bubbleside" : 2,
					"fontface" : 1,
					"fontsize" : 14.0,
					"id" : "obj-64",
					"maxclass" : "comment",
					"numinlets" : 1,
					"numoutlets" : 0,
					"patching_rect" : [ 205.5, 801.0, 185.0, 22.0 ],
					"presentation" : 1,
					"presentation_rect" : [ 958.0, 42.0, 67.0, 22.0 ],
					"text" : "SPEED"
				}

			}
, 			{
				"box" : 				{
					"floatoutput" : 1,
					"id" : "obj-58",
					"maxclass" : "dial",
					"numinlets" : 1,
					"numoutlets" : 1,
					"outlettype" : [ "float" ],
					"parameter_enable" : 0,
					"patching_rect" : [ 672.0, 16.0, 40.0, 40.0 ],
					"presentation" : 1,
					"presentation_rect" : [ 1036.0, 396.0, 27.0, 27.0 ],
					"size" : 1.0
				}

			}
, 			{
				"box" : 				{
					"floatoutput" : 1,
					"id" : "obj-55",
					"maxclass" : "dial",
					"numinlets" : 1,
					"numoutlets" : 1,
					"outlettype" : [ "float" ],
					"parameter_enable" : 0,
					"patching_rect" : [ 608.0, 19.0, 40.0, 40.0 ],
					"presentation" : 1,
					"presentation_rect" : [ 912.0, 396.0, 27.0, 27.0 ],
					"size" : 1.0
				}

			}
, 			{
				"box" : 				{
					"id" : "obj-53",
					"maxclass" : "dial",
					"numinlets" : 1,
					"numoutlets" : 1,
					"outlettype" : [ "float" ],
					"parameter_enable" : 0,
					"patching_rect" : [ 589.0, 389.0, 40.0, 40.0 ]
				}

			}
, 			{
				"box" : 				{
					"id" : "obj-26",
					"maxclass" : "live.dial",
					"numinlets" : 1,
					"numoutlets" : 2,
					"outlettype" : [ "", "float" ],
					"parameter_enable" : 1,
					"patching_rect" : [ 639.0, 391.0, 41.0, 48.0 ],
					"saved_attribute_attributes" : 					{
						"valueof" : 						{
							"parameter_longname" : "live.dial",
							"parameter_modmode" : 3,
							"parameter_shortname" : "live.dial",
							"parameter_type" : 0,
							"parameter_unitstyle" : 0
						}

					}
,
					"varname" : "live.dial"
				}

			}
, 			{
				"box" : 				{
					"id" : "obj-12",
					"maxclass" : "button",
					"numinlets" : 1,
					"numoutlets" : 1,
					"outlettype" : [ "bang" ],
					"parameter_enable" : 0,
					"patching_rect" : [ 1088.0, 14.0, 24.0, 24.0 ],
					"presentation" : 1,
					"presentation_rect" : [ 912.0, 31.0, 43.0, 43.0 ]
				}

			}
, 			{
				"box" : 				{
					"id" : "obj-9",
					"maxclass" : "button",
					"numinlets" : 1,
					"numoutlets" : 1,
					"outlettype" : [ "bang" ],
					"parameter_enable" : 0,
					"patching_rect" : [ 621.0, 240.0, 24.0, 24.0 ]
				}

			}
, 			{
				"box" : 				{
					"id" : "obj-144",
					"maxclass" : "newobj",
					"numinlets" : 2,
					"numoutlets" : 2,
					"outlettype" : [ "bang", "" ],
					"patching_rect" : [ 208.0, 607.0, 50.0, 22.0 ],
					"text" : "select 1"
				}

			}
, 			{
				"box" : 				{
					"id" : "obj-138",
					"maxclass" : "number",
					"numinlets" : 1,
					"numoutlets" : 2,
					"outlettype" : [ "", "bang" ],
					"parameter_enable" : 0,
					"patching_rect" : [ 208.0, 558.0, 50.0, 22.0 ]
				}

			}
, 			{
				"box" : 				{
					"id" : "obj-134",
					"maxclass" : "newobj",
					"numinlets" : 6,
					"numoutlets" : 1,
					"outlettype" : [ "" ],
					"patching_rect" : [ 288.0, 538.0, 103.0, 22.0 ],
					"text" : "scale 0 1023 0. 1."
				}

			}
, 			{
				"box" : 				{
					"id" : "obj-132",
					"maxclass" : "comment",
					"numinlets" : 1,
					"numoutlets" : 0,
					"patching_rect" : [ 604.0, 467.5, 76.0, 20.0 ],
					"text" : "light sensor"
				}

			}
, 			{
				"box" : 				{
					"id" : "obj-129",
					"maxclass" : "comment",
					"numinlets" : 1,
					"numoutlets" : 0,
					"patching_rect" : [ 296.0, 462.0, 50.0, 20.0 ],
					"text" : "knob 1"
				}

			}
, 			{
				"box" : 				{
					"format" : 6,
					"id" : "obj-101",
					"maxclass" : "flonum",
					"numinlets" : 1,
					"numoutlets" : 2,
					"outlettype" : [ "", "bang" ],
					"parameter_enable" : 0,
					"patching_rect" : [ 548.0, 578.0, 50.0, 22.0 ]
				}

			}
, 			{
				"box" : 				{
					"id" : "obj-102",
					"maxclass" : "newobj",
					"numinlets" : 6,
					"numoutlets" : 1,
					"outlettype" : [ "" ],
					"patching_rect" : [ 548.0, 538.0, 103.0, 22.0 ],
					"text" : "scale 0 1023 0. 1."
				}

			}
, 			{
				"box" : 				{
					"id" : "obj-103",
					"maxclass" : "number",
					"numinlets" : 1,
					"numoutlets" : 2,
					"outlettype" : [ "", "bang" ],
					"parameter_enable" : 0,
					"patching_rect" : [ 733.0, 607.0, 50.0, 22.0 ],
					"presentation" : 1,
					"presentation_rect" : [ 912.0, 244.0, 50.0, 22.0 ]
				}

			}
, 			{
				"box" : 				{
					"id" : "obj-104",
					"maxclass" : "number",
					"numinlets" : 1,
					"numoutlets" : 2,
					"outlettype" : [ "", "bang" ],
					"parameter_enable" : 0,
					"patching_rect" : [ 288.0, 495.0, 50.0, 22.0 ]
				}

			}
, 			{
				"box" : 				{
					"id" : "obj-125",
					"maxclass" : "toggle",
					"numinlets" : 1,
					"numoutlets" : 1,
					"outlettype" : [ "int" ],
					"parameter_enable" : 0,
					"patching_rect" : [ 176.0, 558.0, 24.0, 24.0 ]
				}

			}
, 			{
				"box" : 				{
					"id" : "obj-67",
					"maxclass" : "newobj",
					"numinlets" : 6,
					"numoutlets" : 1,
					"outlettype" : [ "" ],
					"patching_rect" : [ 176.0, 518.0, 77.0, 22.0 ],
					"text" : "scale 0 1 1 0"
				}

			}
, 			{
				"box" : 				{
					"id" : "obj-107",
					"maxclass" : "comment",
					"numinlets" : 1,
					"numoutlets" : 0,
					"patching_rect" : [ 180.0, 462.0, 56.0, 20.0 ],
					"text" : "button 1"
				}

			}
, 			{
				"box" : 				{
					"id" : "obj-109",
					"maxclass" : "number",
					"numinlets" : 1,
					"numoutlets" : 2,
					"outlettype" : [ "", "bang" ],
					"parameter_enable" : 0,
					"patching_rect" : [ 176.0, 486.0, 50.0, 22.0 ]
				}

			}
, 			{
				"box" : 				{
					"id" : "obj-110",
					"maxclass" : "newobj",
					"numinlets" : 1,
					"numoutlets" : 4,
					"outlettype" : [ "int", "int", "int", "int" ],
					"patching_rect" : [ 156.0, 430.0, 229.0, 22.0 ],
					"text" : "unpack i i i i"
				}

			}
, 			{
				"box" : 				{
					"id" : "obj-111",
					"maxclass" : "message",
					"numinlets" : 2,
					"numoutlets" : 1,
					"outlettype" : [ "" ],
					"patching_rect" : [ 32.0, 398.0, 89.0, 22.0 ],
					"text" : "1 410 820 0"
				}

			}
, 			{
				"box" : 				{
					"id" : "obj-30",
					"maxclass" : "message",
					"numinlets" : 2,
					"numoutlets" : 1,
					"outlettype" : [ "" ],
					"patching_rect" : [ 36.0, 346.0, 95.0, 22.0 ],
					"text" : "\"1 410 820 0\""
				}

			}
, 			{
				"box" : 				{
					"id" : "obj-112",
					"maxclass" : "comment",
					"numinlets" : 1,
					"numoutlets" : 0,
					"patching_rect" : [ 228.0, 362.0, 259.0, 20.0 ],
					"text" : "convert symbols into numbers/messages"
				}

			}
, 			{
				"box" : 				{
					"id" : "obj-113",
					"maxclass" : "comment",
					"numinlets" : 1,
					"numoutlets" : 0,
					"patching_rect" : [ 200.0, 314.0, 212.0, 20.0 ],
					"text" : "convert intergers into symbols"
				}

			}
, 			{
				"box" : 				{
					"id" : "obj-114",
					"maxclass" : "comment",
					"numinlets" : 1,
					"numoutlets" : 0,
					"patching_rect" : [ 236.0, 274.0, 251.0, 20.0 ],
					"text" : "group messages together 100 arbitrary/large"
				}

			}
, 			{
				"box" : 				{
					"id" : "obj-115",
					"maxclass" : "comment",
					"numinlets" : 1,
					"numoutlets" : 0,
					"patching_rect" : [ 216.0, 234.0, 212.0, 20.0 ],
					"text" : "look for new line characters"
				}

			}
, 			{
				"box" : 				{
					"id" : "obj-117",
					"maxclass" : "newobj",
					"numinlets" : 1,
					"numoutlets" : 1,
					"outlettype" : [ "" ],
					"patching_rect" : [ 148.0, 358.0, 71.0, 22.0 ],
					"text" : "fromsymbol"
				}

			}
, 			{
				"box" : 				{
					"id" : "obj-33",
					"maxclass" : "newobj",
					"numinlets" : 3,
					"numoutlets" : 1,
					"outlettype" : [ "int" ],
					"patching_rect" : [ 148.0, 314.0, 40.0, 22.0 ],
					"text" : "itoa"
				}

			}
, 			{
				"box" : 				{
					"id" : "obj-32",
					"maxclass" : "newobj",
					"numinlets" : 2,
					"numoutlets" : 2,
					"outlettype" : [ "", "" ],
					"patching_rect" : [ 148.0, 278.0, 75.0, 22.0 ],
					"text" : "zl group 100"
				}

			}
, 			{
				"box" : 				{
					"id" : "obj-118",
					"maxclass" : "newobj",
					"numinlets" : 3,
					"numoutlets" : 3,
					"outlettype" : [ "bang", "bang", "" ],
					"patching_rect" : [ 148.0, 234.0, 57.0, 22.0 ],
					"text" : "sel 13 10"
				}

			}
, 			{
				"box" : 				{
					"id" : "obj-21",
					"maxclass" : "newobj",
					"numinlets" : 2,
					"numoutlets" : 1,
					"outlettype" : [ "bang" ],
					"patching_rect" : [ 68.0, 118.0, 56.0, 22.0 ],
					"text" : "metro 10"
				}

			}
, 			{
				"box" : 				{
					"id" : "obj-119",
					"maxclass" : "message",
					"numinlets" : 2,
					"numoutlets" : 1,
					"outlettype" : [ "" ],
					"patching_rect" : [ 48.0, 202.0, 50.0, 22.0 ],
					"text" : "13"
				}

			}
, 			{
				"box" : 				{
					"id" : "obj-120",
					"maxclass" : "message",
					"numinlets" : 2,
					"numoutlets" : 1,
					"outlettype" : [ "" ],
					"patching_rect" : [ 128.0, 118.0, 39.0, 22.0 ],
					"text" : "port z"
				}

			}
, 			{
				"box" : 				{
					"id" : "obj-121",
					"maxclass" : "newobj",
					"numinlets" : 2,
					"numoutlets" : 2,
					"outlettype" : [ "bang", "" ],
					"patching_rect" : [ 128.0, 70.0, 93.0, 22.0 ],
					"text" : "sel 0"
				}

			}
, 			{
				"box" : 				{
					"id" : "obj-122",
					"maxclass" : "toggle",
					"numinlets" : 1,
					"numoutlets" : 1,
					"outlettype" : [ "int" ],
					"parameter_enable" : 0,
					"patching_rect" : [ 44.0, 30.0, 58.0, 58.0 ]
				}

			}
, 			{
				"box" : 				{
					"id" : "obj-123",
					"maxclass" : "message",
					"numinlets" : 2,
					"numoutlets" : 1,
					"outlettype" : [ "" ],
					"patching_rect" : [ 204.0, 118.0, 39.0, 22.0 ],
					"text" : "port c"
				}

			}
, 			{
				"box" : 				{
					"id" : "obj-124",
					"maxclass" : "message",
					"numinlets" : 2,
					"numoutlets" : 1,
					"outlettype" : [ "" ],
					"patching_rect" : [ 252.0, 118.0, 32.0, 22.0 ],
					"text" : "print"
				}

			}
, 			{
				"box" : 				{
					"id" : "obj-127",
					"maxclass" : "newobj",
					"numinlets" : 1,
					"numoutlets" : 2,
					"outlettype" : [ "int", "" ],
					"patching_rect" : [ 148.0, 170.0, 77.0, 22.0 ],
					"text" : "serial z 9600"
				}

			}
, 			{
				"box" : 				{
					"id" : "obj-89",
					"maxclass" : "message",
					"numinlets" : 2,
					"numoutlets" : 1,
					"outlettype" : [ "" ],
					"patching_rect" : [ 1088.0, 48.0, 59.0, 22.0 ],
					"text" : "0., 1. 500"
				}

			}
, 			{
				"box" : 				{
					"id" : "obj-84",
					"maxclass" : "newobj",
					"numinlets" : 3,
					"numoutlets" : 2,
					"outlettype" : [ "", "bang" ],
					"patching_rect" : [ 1164.0, 64.0, 41.0, 22.0 ],
					"text" : "line 0."
				}

			}
, 			{
				"box" : 				{
					"id" : "obj-83",
					"maxclass" : "message",
					"numinlets" : 2,
					"numoutlets" : 1,
					"outlettype" : [ "" ],
					"patching_rect" : [ 1284.0, 48.0, 35.0, 22.0 ],
					"text" : "2000"
				}

			}
, 			{
				"box" : 				{
					"annotation" : "## VIZZIE video projector interface ##",
					"bgmode" : 1,
					"border" : 0,
					"clickthrough" : 0,
					"enablehscroll" : 0,
					"enablevscroll" : 0,
					"id" : "obj-78",
					"lockeddragscroll" : 0,
					"lockedsize" : 0,
					"maxclass" : "bpatcher",
					"name" : "vz.projectr.maxpat",
					"numinlets" : 4,
					"numoutlets" : 1,
					"offset" : [ 0.0, 0.0 ],
					"outlettype" : [ "" ],
					"patching_rect" : [ 2409.333405137062073, 329.333343148231506, 168.000005006790161, 133.333337306976318 ],
					"prototypename" : "pixl",
					"varname" : "projectr",
					"viewvisibility" : 1
				}

			}
, 			{
				"box" : 				{
					"annotation" : "## Average VIZZIE input data ##",
					"bgmode" : 1,
					"border" : 0,
					"clickthrough" : 0,
					"enablehscroll" : 0,
					"enablevscroll" : 0,
					"id" : "obj-71",
					"lockeddragscroll" : 0,
					"lockedsize" : 0,
					"maxclass" : "bpatcher",
					"name" : "vz.averagr.maxpat",
					"numinlets" : 2,
					"numoutlets" : 2,
					"offset" : [ 0.0, 0.0 ],
					"outlettype" : [ "", "" ],
					"patching_rect" : [ 1056.0, 708.0, 188.0, 130.0 ],
					"prototypename" : "pixl",
					"varname" : "smoothr[2]",
					"viewvisibility" : 1
				}

			}
, 			{
				"box" : 				{
					"annotation" : "## Fader/UI display for VIZZIE data ##",
					"bgmode" : 1,
					"border" : 0,
					"clickthrough" : 0,
					"enablehscroll" : 0,
					"enablevscroll" : 0,
					"id" : "obj-72",
					"lockeddragscroll" : 0,
					"lockedsize" : 0,
					"maxclass" : "bpatcher",
					"name" : "vz.fadr.maxpat",
					"numinlets" : 1,
					"numoutlets" : 1,
					"offset" : [ 0.0, 0.0 ],
					"outlettype" : [ "" ],
					"patching_rect" : [ 1048.0, 864.0, 84.0, 196.0 ],
					"varname" : "fadr[3]",
					"viewvisibility" : 1
				}

			}
, 			{
				"box" : 				{
					"format" : 6,
					"id" : "obj-70",
					"maxclass" : "flonum",
					"numinlets" : 1,
					"numoutlets" : 2,
					"outlettype" : [ "", "bang" ],
					"parameter_enable" : 0,
					"patching_rect" : [ 1168.0, 132.0, 50.0, 22.0 ]
				}

			}
, 			{
				"box" : 				{
					"annotation" : "## Average VIZZIE input data ##",
					"bgmode" : 1,
					"border" : 0,
					"clickthrough" : 0,
					"enablehscroll" : 0,
					"enablevscroll" : 0,
					"id" : "obj-62",
					"lockeddragscroll" : 0,
					"lockedsize" : 0,
					"maxclass" : "bpatcher",
					"name" : "vz.averagr.maxpat",
					"numinlets" : 2,
					"numoutlets" : 2,
					"offset" : [ 0.0, 0.0 ],
					"outlettype" : [ "", "" ],
					"patching_rect" : [ 996.0, 316.0, 188.0, 130.0 ],
					"prototypename" : "pixl",
					"varname" : "smoothr[1]",
					"viewvisibility" : 1
				}

			}
, 			{
				"box" : 				{
					"id" : "obj-61",
					"maxclass" : "newobj",
					"numinlets" : 6,
					"numoutlets" : 1,
					"outlettype" : [ "" ],
					"patching_rect" : [ 868.0, 728.0, 103.0, 22.0 ],
					"text" : "scale 0. 1. 0 2000"
				}

			}
, 			{
				"box" : 				{
					"id" : "obj-60",
					"maxclass" : "newobj",
					"numinlets" : 1,
					"numoutlets" : 1,
					"outlettype" : [ "" ],
					"patching_rect" : [ 848.0, 772.0, 173.0, 22.0 ],
					"text" : "pattrforward bp.Flanger:Center"
				}

			}
, 			{
				"box" : 				{
					"annotation" : "## Fader/UI display for VIZZIE data ##",
					"bgmode" : 1,
					"border" : 0,
					"clickthrough" : 0,
					"enablehscroll" : 0,
					"enablevscroll" : 0,
					"id" : "obj-59",
					"lockeddragscroll" : 0,
					"lockedsize" : 0,
					"maxclass" : "bpatcher",
					"name" : "vz.fadr.maxpat",
					"numinlets" : 1,
					"numoutlets" : 1,
					"offset" : [ 0.0, 0.0 ],
					"outlettype" : [ "" ],
					"patching_rect" : [ 1081.0, 471.0, 84.0, 196.0 ],
					"varname" : "fadr[1]",
					"viewvisibility" : 1
				}

			}
, 			{
				"box" : 				{
					"id" : "obj-52",
					"maxclass" : "newobj",
					"numinlets" : 1,
					"numoutlets" : 1,
					"outlettype" : [ "" ],
					"patching_rect" : [ 868.0, 860.0, 172.0, 22.0 ],
					"text" : "pattrforward bp.Flanger:Regen"
				}

			}
, 			{
				"box" : 				{
					"annotation" : "## Convert R, G, and B video components to VIZZIE data ##",
					"bgmode" : 1,
					"border" : 0,
					"clickthrough" : 0,
					"enablehscroll" : 0,
					"enablevscroll" : 0,
					"id" : "obj-31",
					"lockeddragscroll" : 0,
					"lockedsize" : 0,
					"maxclass" : "bpatcher",
					"name" : "vz.analyzr.maxpat",
					"numinlets" : 5,
					"numoutlets" : 3,
					"offset" : [ 0.0, 0.0 ],
					"outlettype" : [ "", "", "" ],
					"patching_rect" : [ 1260.0, 916.0, 208.0, 113.0 ],
					"prototypename" : "pixl",
					"varname" : "analyzr",
					"viewvisibility" : 1
				}

			}
, 			{
				"box" : 				{
					"annotation" : "## Change a video's brightness/contrast/saturation ##",
					"bgmode" : 1,
					"border" : 0,
					"clickthrough" : 0,
					"enablehscroll" : 0,
					"enablevscroll" : 0,
					"id" : "obj-37",
					"lockeddragscroll" : 0,
					"lockedsize" : 0,
					"maxclass" : "bpatcher",
					"name" : "vz.brcosr.maxpat",
					"numinlets" : 7,
					"numoutlets" : 1,
					"offset" : [ 0.0, 0.0 ],
					"outlettype" : [ "jit_gl_texture" ],
					"patching_rect" : [ 1760.0, 598.0, 208.0, 130.0 ],
					"prototypename" : "pixl",
					"varname" : "brcosr",
					"viewvisibility" : 1
				}

			}
, 			{
				"box" : 				{
					"annotation" : "## Convert BEAP module output (control voltages/MIDI) to VIZZIE data ##",
					"bgmode" : 1,
					"border" : 0,
					"clickthrough" : 0,
					"enablehscroll" : 0,
					"enablevscroll" : 0,
					"id" : "obj-38",
					"lockeddragscroll" : 0,
					"lockedsize" : 0,
					"maxclass" : "bpatcher",
					"name" : "vz.beapconvertr.maxpat",
					"numinlets" : 2,
					"numoutlets" : 2,
					"offset" : [ 0.0, 0.0 ],
					"outlettype" : [ "", "" ],
					"patching_rect" : [ 1756.0, 505.0, 108.0, 78.0 ],
					"prototypename" : "pixl",
					"varname" : "beapconvertr",
					"viewvisibility" : 1
				}

			}
, 			{
				"box" : 				{
					"bgmode" : 0,
					"border" : 0,
					"clickthrough" : 0,
					"enablehscroll" : 0,
					"enablevscroll" : 0,
					"extract" : 1,
					"id" : "obj-43",
					"lockeddragscroll" : 0,
					"lockedsize" : 0,
					"maxclass" : "bpatcher",
					"name" : "bp.CV LFO.maxpat",
					"numinlets" : 2,
					"numoutlets" : 2,
					"offset" : [ 0.0, 0.0 ],
					"outlettype" : [ "signal", "signal" ],
					"patching_rect" : [ 1535.0, 612.0, 214.0, 116.0 ],
					"varname" : "bp.CV LFO",
					"viewvisibility" : 1
				}

			}
, 			{
				"box" : 				{
					"annotation" : "## A chaotic equation-based VIZZIE data generator ##",
					"bgmode" : 1,
					"border" : 0,
					"clickthrough" : 0,
					"enablehscroll" : 0,
					"enablevscroll" : 0,
					"id" : "obj-44",
					"lockeddragscroll" : 0,
					"lockedsize" : 0,
					"maxclass" : "bpatcher",
					"name" : "vz.attractr.maxpat",
					"numinlets" : 2,
					"numoutlets" : 6,
					"offset" : [ 0.0, 0.0 ],
					"outlettype" : [ "", "", "", "", "", "" ],
					"patching_rect" : [ 1539.0, 288.0, 206.0, 186.0 ],
					"prototypename" : "pixl",
					"varname" : "attractr",
					"viewvisibility" : 1
				}

			}
, 			{
				"box" : 				{
					"annotation" : "## Average VIZZIE input data ##",
					"bgmode" : 1,
					"border" : 0,
					"clickthrough" : 0,
					"enablehscroll" : 0,
					"enablevscroll" : 0,
					"id" : "obj-28",
					"lockeddragscroll" : 0,
					"lockedsize" : 0,
					"maxclass" : "bpatcher",
					"name" : "vz.averagr.maxpat",
					"numinlets" : 2,
					"numoutlets" : 2,
					"offset" : [ 0.0, 0.0 ],
					"outlettype" : [ "", "" ],
					"patching_rect" : [ 1642.0, 126.0, 188.0, 130.0 ],
					"prototypename" : "pixl",
					"varname" : "smoothr",
					"viewvisibility" : 1
				}

			}
, 			{
				"box" : 				{
					"annotation" : "## Fader/UI display for VIZZIE data ##",
					"bgmode" : 1,
					"border" : 0,
					"clickthrough" : 0,
					"enablehscroll" : 0,
					"enablevscroll" : 0,
					"id" : "obj-24",
					"lockeddragscroll" : 0,
					"lockedsize" : 0,
					"maxclass" : "bpatcher",
					"name" : "vz.fadr.maxpat",
					"numinlets" : 1,
					"numoutlets" : 1,
					"offset" : [ 0.0, 0.0 ],
					"outlettype" : [ "" ],
					"patching_rect" : [ 1756.0, 283.0, 84.0, 196.0 ],
					"varname" : "fadr[2]",
					"viewvisibility" : 1
				}

			}
, 			{
				"box" : 				{
					"format" : 6,
					"id" : "obj-2",
					"maxclass" : "flonum",
					"maximum" : 1.0,
					"minimum" : 0.0,
					"numinlets" : 1,
					"numoutlets" : 2,
					"outlettype" : [ "", "bang" ],
					"parameter_enable" : 0,
					"patching_rect" : [ 672.0, 76.0, 50.0, 22.0 ]
				}

			}
, 			{
				"box" : 				{
					"id" : "obj-23",
					"maxclass" : "message",
					"numinlets" : 2,
					"numoutlets" : 1,
					"outlettype" : [ "" ],
					"patching_rect" : [ 632.0, 284.0, 29.5, 22.0 ],
					"text" : "1"
				}

			}
, 			{
				"box" : 				{
					"format" : 6,
					"id" : "obj-13",
					"maxclass" : "flonum",
					"maximum" : 1.0,
					"minimum" : 0.0,
					"numinlets" : 1,
					"numoutlets" : 2,
					"outlettype" : [ "", "bang" ],
					"parameter_enable" : 0,
					"patching_rect" : [ 608.0, 76.0, 50.0, 22.0 ]
				}

			}
, 			{
				"box" : 				{
					"id" : "obj-20",
					"maxclass" : "message",
					"numinlets" : 2,
					"numoutlets" : 1,
					"outlettype" : [ "" ],
					"patching_rect" : [ 608.0, 156.0, 99.0, 22.0 ],
					"text" : "selection 1 $1 $2"
				}

			}
, 			{
				"box" : 				{
					"id" : "obj-4",
					"maxclass" : "newobj",
					"numinlets" : 2,
					"numoutlets" : 1,
					"outlettype" : [ "" ],
					"patching_rect" : [ 608.0, 120.0, 86.0, 22.0 ],
					"text" : "pak 0. 0."
				}

			}
, 			{
				"box" : 				{
					"id" : "obj-49",
					"maxclass" : "newobj",
					"numinlets" : 2,
					"numoutlets" : 1,
					"outlettype" : [ "float" ],
					"patching_rect" : [ 996.0, 108.0, 39.0, 22.0 ],
					"text" : "/ 100."
				}

			}
, 			{
				"box" : 				{
					"id" : "obj-50",
					"maxclass" : "newobj",
					"numinlets" : 2,
					"numoutlets" : 1,
					"outlettype" : [ "" ],
					"patching_rect" : [ 996.0, 76.0, 73.0, 22.0 ],
					"text" : "random 100"
				}

			}
, 			{
				"box" : 				{
					"id" : "obj-51",
					"maxclass" : "button",
					"numinlets" : 1,
					"numoutlets" : 1,
					"outlettype" : [ "bang" ],
					"parameter_enable" : 0,
					"patching_rect" : [ 1004.0, 32.0, 24.0, 24.0 ],
					"presentation" : 1,
					"presentation_rect" : [ 911.5, 130.0, 44.0, 44.0 ]
				}

			}
, 			{
				"box" : 				{
					"id" : "obj-48",
					"maxclass" : "newobj",
					"numinlets" : 2,
					"numoutlets" : 1,
					"outlettype" : [ "float" ],
					"patching_rect" : [ 872.0, 108.0, 39.0, 22.0 ],
					"text" : "/ 100."
				}

			}
, 			{
				"box" : 				{
					"id" : "obj-47",
					"maxclass" : "newobj",
					"numinlets" : 2,
					"numoutlets" : 1,
					"outlettype" : [ "" ],
					"patching_rect" : [ 872.0, 76.0, 73.0, 22.0 ],
					"text" : "random 100"
				}

			}
, 			{
				"box" : 				{
					"id" : "obj-46",
					"maxclass" : "button",
					"numinlets" : 1,
					"numoutlets" : 1,
					"outlettype" : [ "bang" ],
					"parameter_enable" : 0,
					"patching_rect" : [ 880.0, 32.0, 24.0, 24.0 ],
					"presentation" : 1,
					"presentation_rect" : [ 911.5, 81.0, 44.0, 44.0 ]
				}

			}
, 			{
				"box" : 				{
					"id" : "obj-35",
					"maxclass" : "message",
					"numinlets" : 2,
					"numoutlets" : 1,
					"outlettype" : [ "" ],
					"patching_rect" : [ 988.0, 212.0, 120.0, 22.0 ],
					"text" : "setclip 1 pitchshift $1"
				}

			}
, 			{
				"box" : 				{
					"format" : 6,
					"id" : "obj-36",
					"maxclass" : "flonum",
					"numinlets" : 1,
					"numoutlets" : 2,
					"outlettype" : [ "", "bang" ],
					"parameter_enable" : 0,
					"patching_rect" : [ 996.0, 144.0, 50.0, 22.0 ]
				}

			}
, 			{
				"box" : 				{
					"id" : "obj-39",
					"maxclass" : "toggle",
					"numinlets" : 1,
					"numoutlets" : 1,
					"outlettype" : [ "int" ],
					"parameter_enable" : 0,
					"patching_rect" : [ 728.0, 148.0, 24.0, 24.0 ]
				}

			}
, 			{
				"box" : 				{
					"id" : "obj-40",
					"maxclass" : "message",
					"numinlets" : 2,
					"numoutlets" : 1,
					"outlettype" : [ "" ],
					"patching_rect" : [ 872.0, 180.0, 105.0, 22.0 ],
					"text" : "setclip 1 speed $1"
				}

			}
, 			{
				"box" : 				{
					"format" : 6,
					"id" : "obj-41",
					"maxclass" : "flonum",
					"numinlets" : 1,
					"numoutlets" : 2,
					"outlettype" : [ "", "bang" ],
					"parameter_enable" : 0,
					"patching_rect" : [ 872.0, 144.0, 50.0, 22.0 ]
				}

			}
, 			{
				"box" : 				{
					"id" : "obj-42",
					"maxclass" : "message",
					"numinlets" : 2,
					"numoutlets" : 1,
					"outlettype" : [ "" ],
					"patching_rect" : [ 728.0, 192.0, 131.0, 22.0 ],
					"text" : "setclip 1 timestretch $1"
				}

			}
, 			{
				"box" : 				{
					"basictuning" : 440,
					"clipheight" : 134.0,
					"color" : [ 1.0, 0.0, 0.0, 1.0 ],
					"data" : 					{
						"clips" : [ 							{
								"absolutepath" : "burp.mp3",
								"filename" : "burp.mp3",
								"filekind" : "audiofile",
								"id" : "u282007693",
								"selection" : [ 0.400782013685239, 1.0 ],
								"loop" : 1,
								"content_state" : 								{
									"loop" : 1,
									"pitchshift" : 1.0,
									"speed" : 1.0
								}

							}
 ]
					}
,
					"followglobaltempo" : 0,
					"formantcorrection" : 0,
					"id" : "obj-3",
					"maxclass" : "playlist~",
					"mode" : "basic",
					"numinlets" : 1,
					"numoutlets" : 5,
					"originallength" : [ 0.0, "ticks" ],
					"originaltempo" : 120.0,
					"outlettype" : [ "signal", "signal", "signal", "", "dictionary" ],
					"parameter_enable" : 0,
					"patching_rect" : [ 728.0, 268.0, 249.0, 135.0 ],
					"pitchcorrection" : 0,
					"presentation" : 1,
					"presentation_rect" : [ 458.0, 434.0, 450.0, 130.0 ],
					"quality" : "basic",
					"selectioncolor" : [ 1.0, 1.0, 1.0, 1.0 ],
					"timestretch" : [ 0 ]
				}

			}
, 			{
				"box" : 				{
					"annotation" : "## Funhouse mirror distortion video effect ##",
					"bgmode" : 1,
					"border" : 0,
					"clickthrough" : 0,
					"enablehscroll" : 0,
					"enablevscroll" : 0,
					"id" : "obj-15",
					"lockeddragscroll" : 0,
					"lockedsize" : 0,
					"maxclass" : "bpatcher",
					"name" : "vz.reflectr.maxpat",
					"numinlets" : 14,
					"numoutlets" : 1,
					"offset" : [ 0.0, 0.0 ],
					"outlettype" : [ "jit_gl_texture" ],
					"patching_rect" : [ 1844.000054955482483, 282.666675090789795, 348.000010371208191, 180.00000536441803 ],
					"prototypename" : "pixl",
					"varname" : "reflectr",
					"viewvisibility" : 1
				}

			}
, 			{
				"box" : 				{
					"annotation" : "## Smoothly crossfade between two videos and composite them ##",
					"bgmode" : 1,
					"border" : 0,
					"clickthrough" : 0,
					"enablehscroll" : 0,
					"enablevscroll" : 0,
					"id" : "obj-16",
					"lockeddragscroll" : 0,
					"lockedsize" : 0,
					"maxclass" : "bpatcher",
					"name" : "vz.mixfadr.maxpat",
					"numinlets" : 4,
					"numoutlets" : 1,
					"offset" : [ 0.0, 0.0 ],
					"outlettype" : [ "jit_gl_texture" ],
					"patching_rect" : [ 2217.333399415016174, 329.333343148231506, 176.00000524520874, 133.333337306976318 ],
					"varname" : "mixfadr",
					"viewvisibility" : 1
				}

			}
, 			{
				"box" : 				{
					"annotation" : "## The VIZZIE video player/looper ##",
					"bgmode" : 1,
					"border" : 0,
					"clickthrough" : 0,
					"enablehscroll" : 0,
					"enablevscroll" : 0,
					"id" : "obj-6",
					"lockeddragscroll" : 0,
					"lockedsize" : 0,
					"maxclass" : "bpatcher",
					"name" : "vz.playr.maxpat",
					"numinlets" : 7,
					"numoutlets" : 2,
					"offset" : [ 0.0, 0.0 ],
					"outlettype" : [ "jit_gl_texture", "" ],
					"patching_rect" : [ 1844.000054955482483, 104.000003099441528, 358.0, 158.0 ],
					"prototypename" : "pixl",
					"varname" : "playr",
					"viewvisibility" : 1
				}

			}
, 			{
				"box" : 				{
					"id" : "obj-18",
					"maxclass" : "message",
					"numinlets" : 2,
					"numoutlets" : 1,
					"outlettype" : [ "" ],
					"patching_rect" : [ 1543.0, 197.0, 92.0, 22.0 ],
					"text" : "0.093594"
				}

			}
, 			{
				"box" : 				{
					"annotation" : "## View or monitor video input ##",
					"bgmode" : 2,
					"border" : 0,
					"clickthrough" : 0,
					"enablehscroll" : 0,
					"enablevscroll" : 0,
					"id" : "obj-19",
					"lockeddragscroll" : 0,
					"lockedsize" : 0,
					"maxclass" : "bpatcher",
					"name" : "vz.viewr.maxpat",
					"numinlets" : 1,
					"numoutlets" : 0,
					"offset" : [ 0.0, 0.0 ],
					"patching_rect" : [ 2217.0, 104.0, 276.0, 208.0 ],
					"presentation" : 1,
					"presentation_rect" : [ 458.0, 31.0, 450.0, 392.0 ],
					"prototypename" : "pixl",
					"varname" : "viewr",
					"viewvisibility" : 1
				}

			}
, 			{
				"box" : 				{
					"annotation" : "## Convert audio input to VIZZIE data output ##",
					"bgmode" : 1,
					"border" : 0,
					"clickthrough" : 0,
					"enablehscroll" : 0,
					"enablevscroll" : 0,
					"id" : "obj-34",
					"lockeddragscroll" : 0,
					"lockedsize" : 0,
					"maxclass" : "bpatcher",
					"name" : "vz.audio2vizzie.maxpat",
					"numinlets" : 1,
					"numoutlets" : 2,
					"offset" : [ 0.0, 0.0 ],
					"outlettype" : [ "", "" ],
					"patching_rect" : [ 1515.0, 126.0, 120.0, 54.0 ],
					"prototypename" : "pixl",
					"varname" : "audio2vizzie",
					"viewvisibility" : 1
				}

			}
, 			{
				"box" : 				{
					"id" : "obj-11",
					"maxclass" : "newobj",
					"numinlets" : 1,
					"numoutlets" : 1,
					"outlettype" : [ "" ],
					"patching_rect" : [ 760.0, 28.0, 84.0, 22.0 ],
					"saved_object_attributes" : 					{
						"client_rect" : [ 44, 70, 444, 804 ],
						"parameter_enable" : 0,
						"parameter_mappable" : 0,
						"storage_rect" : [ 583, 69, 1034, 197 ]
					}
,
					"text" : "pattrstorage",
					"varname" : "u805005175"
				}

			}
, 			{
				"box" : 				{
					"bgmode" : 0,
					"border" : 0,
					"clickthrough" : 0,
					"enablehscroll" : 0,
					"enablevscroll" : 0,
					"extract" : 1,
					"id" : "obj-1",
					"lockeddragscroll" : 0,
					"lockedsize" : 0,
					"maxclass" : "bpatcher",
					"name" : "bp.Stereo.maxpat",
					"numinlets" : 2,
					"numoutlets" : 0,
					"offset" : [ 0.0, 0.0 ],
					"patching_rect" : [ 647.0, 757.0, 148.0, 116.0 ],
					"presentation" : 1,
					"presentation_rect" : [ 912.0, 275.0, 151.0, 113.0 ],
					"varname" : "bp.Stereo",
					"viewvisibility" : 1
				}

			}
 ],
		"lines" : [ 			{
				"patchline" : 				{
					"destination" : [ "obj-52", 0 ],
					"order" : 0,
					"source" : [ "obj-101", 0 ]
				}

			}
, 			{
				"patchline" : 				{
					"destination" : [ "obj-61", 0 ],
					"order" : 1,
					"source" : [ "obj-101", 0 ]
				}

			}
, 			{
				"patchline" : 				{
					"destination" : [ "obj-101", 0 ],
					"source" : [ "obj-102", 0 ]
				}

			}
, 			{
				"patchline" : 				{
					"destination" : [ "obj-102", 0 ],
					"source" : [ "obj-103", 0 ]
				}

			}
, 			{
				"patchline" : 				{
					"destination" : [ "obj-134", 0 ],
					"source" : [ "obj-104", 0 ]
				}

			}
, 			{
				"patchline" : 				{
					"destination" : [ "obj-67", 0 ],
					"source" : [ "obj-109", 0 ]
				}

			}
, 			{
				"patchline" : 				{
					"destination" : [ "obj-103", 0 ],
					"source" : [ "obj-110", 3 ]
				}

			}
, 			{
				"patchline" : 				{
					"destination" : [ "obj-104", 0 ],
					"source" : [ "obj-110", 1 ]
				}

			}
, 			{
				"patchline" : 				{
					"destination" : [ "obj-109", 0 ],
					"source" : [ "obj-110", 0 ]
				}

			}
, 			{
				"patchline" : 				{
					"destination" : [ "obj-110", 0 ],
					"order" : 0,
					"source" : [ "obj-117", 0 ]
				}

			}
, 			{
				"patchline" : 				{
					"destination" : [ "obj-111", 1 ],
					"order" : 1,
					"source" : [ "obj-117", 0 ]
				}

			}
, 			{
				"patchline" : 				{
					"destination" : [ "obj-32", 0 ],
					"source" : [ "obj-118", 2 ]
				}

			}
, 			{
				"patchline" : 				{
					"destination" : [ "obj-32", 0 ],
					"source" : [ "obj-118", 0 ]
				}

			}
, 			{
				"patchline" : 				{
					"destination" : [ "obj-89", 0 ],
					"source" : [ "obj-12", 0 ]
				}

			}
, 			{
				"patchline" : 				{
					"destination" : [ "obj-127", 0 ],
					"source" : [ "obj-120", 0 ]
				}

			}
, 			{
				"patchline" : 				{
					"destination" : [ "obj-120", 0 ],
					"source" : [ "obj-121", 0 ]
				}

			}
, 			{
				"patchline" : 				{
					"destination" : [ "obj-123", 0 ],
					"source" : [ "obj-121", 1 ]
				}

			}
, 			{
				"patchline" : 				{
					"destination" : [ "obj-121", 0 ],
					"order" : 0,
					"source" : [ "obj-122", 0 ]
				}

			}
, 			{
				"patchline" : 				{
					"destination" : [ "obj-21", 0 ],
					"order" : 1,
					"source" : [ "obj-122", 0 ]
				}

			}
, 			{
				"patchline" : 				{
					"destination" : [ "obj-127", 0 ],
					"source" : [ "obj-123", 0 ]
				}

			}
, 			{
				"patchline" : 				{
					"destination" : [ "obj-127", 0 ],
					"source" : [ "obj-124", 0 ]
				}

			}
, 			{
				"patchline" : 				{
					"destination" : [ "obj-118", 0 ],
					"order" : 0,
					"source" : [ "obj-127", 0 ]
				}

			}
, 			{
				"patchline" : 				{
					"destination" : [ "obj-119", 1 ],
					"order" : 1,
					"source" : [ "obj-127", 0 ]
				}

			}
, 			{
				"patchline" : 				{
					"destination" : [ "obj-4", 0 ],
					"order" : 0,
					"source" : [ "obj-13", 0 ]
				}

			}
, 			{
				"patchline" : 				{
					"destination" : [ "obj-6", 1 ],
					"order" : 1,
					"source" : [ "obj-13", 0 ]
				}

			}
, 			{
				"patchline" : 				{
					"destination" : [ "obj-55", 0 ],
					"source" : [ "obj-134", 0 ]
				}

			}
, 			{
				"patchline" : 				{
					"destination" : [ "obj-144", 0 ],
					"source" : [ "obj-138", 0 ]
				}

			}
, 			{
				"patchline" : 				{
					"destination" : [ "obj-9", 0 ],
					"source" : [ "obj-144", 0 ]
				}

			}
, 			{
				"patchline" : 				{
					"destination" : [ "obj-16", 1 ],
					"midpoints" : [ 1853.500054955482483, 452.666675090789795, 2066.333394726117149, 452.666675090789795, 2066.333394726117149, 318.333343148231506, 2279.166734496752269, 318.333343148231506 ],
					"source" : [ "obj-15", 0 ]
				}

			}
, 			{
				"patchline" : 				{
					"destination" : [ "obj-78", 0 ],
					"midpoints" : [ 2226.833399415016174, 472.666680455207825, 2322.833402276039124, 472.666680455207825, 2322.833402276039124, 318.333343148231506, 2418.833405137062073, 318.333343148231506 ],
					"source" : [ "obj-16", 0 ]
				}

			}
, 			{
				"patchline" : 				{
					"destination" : [ "obj-4", 1 ],
					"source" : [ "obj-2", 0 ]
				}

			}
, 			{
				"patchline" : 				{
					"destination" : [ "obj-3", 0 ],
					"source" : [ "obj-20", 0 ]
				}

			}
, 			{
				"patchline" : 				{
					"destination" : [ "obj-127", 0 ],
					"source" : [ "obj-21", 0 ]
				}

			}
, 			{
				"patchline" : 				{
					"destination" : [ "obj-3", 0 ],
					"order" : 0,
					"source" : [ "obj-23", 0 ]
				}

			}
, 			{
				"patchline" : 				{
					"destination" : [ "obj-6", 4 ],
					"order" : 1,
					"source" : [ "obj-23", 0 ]
				}

			}
, 			{
				"patchline" : 				{
					"destination" : [ "obj-15", 4 ],
					"midpoints" : [ 1765.5, 489.0, 1860.115413688696208, 489.0, 1860.115413688696208, 271.666675090789795, 1954.730827377392643, 271.666675090789795 ],
					"order" : 2,
					"source" : [ "obj-24", 0 ]
				}

			}
, 			{
				"patchline" : 				{
					"destination" : [ "obj-15", 2 ],
					"midpoints" : [ 1765.5, 489.0, 1834.807720583218725, 489.0, 1834.807720583218725, 271.666675090789795, 1904.115441166437677, 271.666675090789795 ],
					"order" : 3,
					"source" : [ "obj-24", 0 ]
				}

			}
, 			{
				"patchline" : 				{
					"destination" : [ "obj-16", 3 ],
					"midpoints" : [ 1765.5, 489.0, 2074.666702330112457, 489.0, 2074.666702330112457, 318.333343148231506, 2383.833404660224915, 318.333343148231506 ],
					"order" : 0,
					"source" : [ "obj-24", 0 ]
				}

			}
, 			{
				"patchline" : 				{
					"destination" : [ "obj-16", 2 ],
					"midpoints" : [ 1765.5, 489.0, 2048.500034789244637, 489.0, 2048.500034789244637, 318.333343148231506, 2331.500069578488819, 318.333343148231506 ],
					"order" : 1,
					"source" : [ "obj-24", 0 ]
				}

			}
, 			{
				"patchline" : 				{
					"destination" : [ "obj-24", 0 ],
					"midpoints" : [ 1651.5, 269.0, 1765.5, 269.0 ],
					"source" : [ "obj-28", 0 ]
				}

			}
, 			{
				"patchline" : 				{
					"destination" : [ "obj-34", 0 ],
					"order" : 1,
					"source" : [ "obj-3", 0 ]
				}

			}
, 			{
				"patchline" : 				{
					"destination" : [ "obj-63", 0 ],
					"order" : 0,
					"source" : [ "obj-3", 0 ]
				}

			}
, 			{
				"patchline" : 				{
					"destination" : [ "obj-71", 0 ],
					"source" : [ "obj-31", 0 ]
				}

			}
, 			{
				"patchline" : 				{
					"destination" : [ "obj-33", 0 ],
					"source" : [ "obj-32", 0 ]
				}

			}
, 			{
				"patchline" : 				{
					"destination" : [ "obj-117", 0 ],
					"order" : 0,
					"source" : [ "obj-33", 0 ]
				}

			}
, 			{
				"patchline" : 				{
					"destination" : [ "obj-30", 1 ],
					"order" : 1,
					"source" : [ "obj-33", 0 ]
				}

			}
, 			{
				"patchline" : 				{
					"destination" : [ "obj-18", 1 ],
					"order" : 0,
					"source" : [ "obj-34", 1 ]
				}

			}
, 			{
				"patchline" : 				{
					"destination" : [ "obj-28", 0 ],
					"midpoints" : [ 1625.5, 190.0, 1638.5, 190.0, 1638.5, 115.0, 1651.5, 115.0 ],
					"order" : 1,
					"source" : [ "obj-34", 1 ]
				}

			}
, 			{
				"patchline" : 				{
					"destination" : [ "obj-3", 0 ],
					"source" : [ "obj-35", 0 ]
				}

			}
, 			{
				"patchline" : 				{
					"destination" : [ "obj-35", 0 ],
					"order" : 0,
					"source" : [ "obj-36", 0 ]
				}

			}
, 			{
				"patchline" : 				{
					"destination" : [ "obj-6", 0 ],
					"order" : 1,
					"source" : [ "obj-36", 0 ]
				}

			}
, 			{
				"patchline" : 				{
					"destination" : [ "obj-16", 0 ],
					"midpoints" : [ 1769.5, 738.0, 1998.166699707508087, 738.0, 1998.166699707508087, 318.333343148231506, 2226.833399415016174, 318.333343148231506 ],
					"order" : 2,
					"source" : [ "obj-37", 0 ]
				}

			}
, 			{
				"patchline" : 				{
					"destination" : [ "obj-19", 0 ],
					"midpoints" : [ 1769.5, 738.0, 1998.0, 738.0, 1998.0, 93.0, 2226.5, 93.0 ],
					"order" : 1,
					"source" : [ "obj-37", 0 ]
				}

			}
, 			{
				"patchline" : 				{
					"destination" : [ "obj-31", 0 ],
					"midpoints" : [ 1769.5, 821.5, 1269.5, 821.5 ],
					"order" : 0,
					"source" : [ "obj-37", 0 ]
				}

			}
, 			{
				"patchline" : 				{
					"destination" : [ "obj-37", 3 ],
					"midpoints" : [ 1765.5, 590.0, 1864.0, 590.0 ],
					"order" : 0,
					"source" : [ "obj-38", 0 ]
				}

			}
, 			{
				"patchline" : 				{
					"destination" : [ "obj-37", 1 ],
					"order" : 1,
					"source" : [ "obj-38", 0 ]
				}

			}
, 			{
				"patchline" : 				{
					"destination" : [ "obj-62", 0 ],
					"order" : 2,
					"source" : [ "obj-38", 0 ]
				}

			}
, 			{
				"patchline" : 				{
					"destination" : [ "obj-42", 0 ],
					"source" : [ "obj-39", 0 ]
				}

			}
, 			{
				"patchline" : 				{
					"destination" : [ "obj-20", 0 ],
					"source" : [ "obj-4", 0 ]
				}

			}
, 			{
				"patchline" : 				{
					"destination" : [ "obj-3", 0 ],
					"source" : [ "obj-40", 0 ]
				}

			}
, 			{
				"patchline" : 				{
					"destination" : [ "obj-40", 0 ],
					"order" : 0,
					"source" : [ "obj-41", 0 ]
				}

			}
, 			{
				"patchline" : 				{
					"destination" : [ "obj-6", 0 ],
					"order" : 1,
					"source" : [ "obj-41", 0 ]
				}

			}
, 			{
				"patchline" : 				{
					"destination" : [ "obj-3", 0 ],
					"source" : [ "obj-42", 0 ]
				}

			}
, 			{
				"patchline" : 				{
					"destination" : [ "obj-38", 0 ],
					"midpoints" : [ 1739.5, 678.0, 1725.0, 678.0, 1725.0, 494.0, 1765.5, 494.0 ],
					"source" : [ "obj-43", 1 ]
				}

			}
, 			{
				"patchline" : 				{
					"destination" : [ "obj-37", 2 ],
					"midpoints" : [ 1585.900000000000091, 535.5, 1832.5, 535.5 ],
					"source" : [ "obj-44", 1 ]
				}

			}
, 			{
				"patchline" : 				{
					"destination" : [ "obj-37", 1 ],
					"midpoints" : [ 1548.5, 535.5, 1801.0, 535.5 ],
					"source" : [ "obj-44", 0 ]
				}

			}
, 			{
				"patchline" : 				{
					"destination" : [ "obj-47", 0 ],
					"source" : [ "obj-46", 0 ]
				}

			}
, 			{
				"patchline" : 				{
					"destination" : [ "obj-48", 0 ],
					"source" : [ "obj-47", 0 ]
				}

			}
, 			{
				"patchline" : 				{
					"destination" : [ "obj-41", 0 ],
					"source" : [ "obj-48", 0 ]
				}

			}
, 			{
				"patchline" : 				{
					"destination" : [ "obj-36", 0 ],
					"source" : [ "obj-49", 0 ]
				}

			}
, 			{
				"patchline" : 				{
					"destination" : [ "obj-49", 0 ],
					"source" : [ "obj-50", 0 ]
				}

			}
, 			{
				"patchline" : 				{
					"destination" : [ "obj-50", 0 ],
					"source" : [ "obj-51", 0 ]
				}

			}
, 			{
				"patchline" : 				{
					"destination" : [ "obj-13", 0 ],
					"order" : 1,
					"source" : [ "obj-55", 0 ]
				}

			}
, 			{
				"patchline" : 				{
					"destination" : [ "obj-4", 0 ],
					"order" : 0,
					"source" : [ "obj-55", 0 ]
				}

			}
, 			{
				"patchline" : 				{
					"destination" : [ "obj-2", 0 ],
					"source" : [ "obj-58", 0 ]
				}

			}
, 			{
				"patchline" : 				{
					"destination" : [ "obj-15", 0 ],
					"order" : 1,
					"source" : [ "obj-6", 0 ]
				}

			}
, 			{
				"patchline" : 				{
					"destination" : [ "obj-37", 0 ],
					"midpoints" : [ 1853.500054955482483, 490.500001549720764, 1769.5, 490.500001549720764 ],
					"order" : 0,
					"source" : [ "obj-6", 0 ]
				}

			}
, 			{
				"patchline" : 				{
					"destination" : [ "obj-60", 0 ],
					"source" : [ "obj-61", 0 ]
				}

			}
, 			{
				"patchline" : 				{
					"destination" : [ "obj-59", 0 ],
					"source" : [ "obj-62", 0 ]
				}

			}
, 			{
				"patchline" : 				{
					"destination" : [ "obj-1", 1 ],
					"source" : [ "obj-63", 1 ]
				}

			}
, 			{
				"patchline" : 				{
					"destination" : [ "obj-1", 0 ],
					"source" : [ "obj-63", 0 ]
				}

			}
, 			{
				"patchline" : 				{
					"destination" : [ "obj-68", 0 ],
					"source" : [ "obj-65", 0 ]
				}

			}
, 			{
				"patchline" : 				{
					"destination" : [ "obj-77", 0 ],
					"source" : [ "obj-66", 0 ]
				}

			}
, 			{
				"patchline" : 				{
					"destination" : [ "obj-125", 0 ],
					"order" : 1,
					"source" : [ "obj-67", 0 ]
				}

			}
, 			{
				"patchline" : 				{
					"destination" : [ "obj-138", 0 ],
					"order" : 0,
					"source" : [ "obj-67", 0 ]
				}

			}
, 			{
				"patchline" : 				{
					"destination" : [ "obj-3", 0 ],
					"source" : [ "obj-68", 0 ]
				}

			}
, 			{
				"patchline" : 				{
					"destination" : [ "obj-6", 0 ],
					"source" : [ "obj-70", 0 ]
				}

			}
, 			{
				"patchline" : 				{
					"destination" : [ "obj-72", 0 ],
					"source" : [ "obj-71", 0 ]
				}

			}
, 			{
				"patchline" : 				{
					"destination" : [ "obj-102", 1 ],
					"source" : [ "obj-75", 0 ]
				}

			}
, 			{
				"patchline" : 				{
					"destination" : [ "obj-102", 2 ],
					"source" : [ "obj-76", 0 ]
				}

			}
, 			{
				"patchline" : 				{
					"destination" : [ "obj-37", 0 ],
					"source" : [ "obj-77", 0 ]
				}

			}
, 			{
				"patchline" : 				{
					"destination" : [ "obj-84", 1 ],
					"source" : [ "obj-83", 0 ]
				}

			}
, 			{
				"patchline" : 				{
					"destination" : [ "obj-36", 0 ],
					"order" : 1,
					"source" : [ "obj-84", 0 ]
				}

			}
, 			{
				"patchline" : 				{
					"destination" : [ "obj-41", 0 ],
					"order" : 2,
					"source" : [ "obj-84", 0 ]
				}

			}
, 			{
				"patchline" : 				{
					"destination" : [ "obj-70", 0 ],
					"order" : 0,
					"source" : [ "obj-84", 0 ]
				}

			}
, 			{
				"patchline" : 				{
					"destination" : [ "obj-84", 0 ],
					"source" : [ "obj-89", 0 ]
				}

			}
, 			{
				"patchline" : 				{
					"destination" : [ "obj-23", 0 ],
					"source" : [ "obj-9", 0 ]
				}

			}
 ],
		"parameters" : 		{
			"obj-15::obj-100" : [ "range[17]", "range", 0 ],
			"obj-15::obj-104" : [ "pictctrl[11]", "pictctrl[1]", 0 ],
			"obj-15::obj-119" : [ "Zoom", "Zoom", 0 ],
			"obj-15::obj-120" : [ "range", "range", 1 ],
			"obj-15::obj-125" : [ "pictctrl[6]", "pictctrl[1]", 0 ],
			"obj-15::obj-126" : [ "pictctrl[5]", "pictctrl[1]", 0 ],
			"obj-15::obj-128" : [ "range[1]", "range", 1 ],
			"obj-15::obj-13" : [ "Y center", "Y center", 0 ],
			"obj-15::obj-14" : [ "X center", "X center", 0 ],
			"obj-15::obj-141" : [ "range[2]", "range", 1 ],
			"obj-15::obj-148" : [ "pictctrl[43]", "pictctrl[1]", 0 ],
			"obj-15::obj-149" : [ "pictctrl[42]", "pictctrl[1]", 0 ],
			"obj-15::obj-150" : [ "pictctrl[28]", "pictctrl[1]", 0 ],
			"obj-15::obj-151" : [ "pictctrl[27]", "pictctrl[1]", 0 ],
			"obj-15::obj-30" : [ "Toggle tan warp", "Toggle tan warp", 0 ],
			"obj-15::obj-31" : [ "Mode", "Mode", 0 ],
			"obj-15::obj-32" : [ "Toggle cos warp", "Toggle cos warp", 0 ],
			"obj-15::obj-34" : [ "sin warp[1]", "Sin warp", 0 ],
			"obj-15::obj-35" : [ "Sin warp", "Sin warp", 0 ],
			"obj-15::obj-36" : [ "Cos warp", "Cos warp", 0 ],
			"obj-15::obj-37" : [ "cos warp[2]", "Cos warp", 0 ],
			"obj-15::obj-40" : [ "Toggle sine warp", "Toggle sine warp", 0 ],
			"obj-15::obj-47" : [ "pictctrl[8]", "pictctrl[1]", 0 ],
			"obj-15::obj-50" : [ "pictctrl[9]", "pictctrl[1]", 0 ],
			"obj-15::obj-54" : [ "tan warp[2]", "Tan warp", 0 ],
			"obj-15::obj-55" : [ "Tan warp", "Tan warp", 0 ],
			"obj-15::obj-65" : [ "pictctrl[10]", "pictctrl[1]", 0 ],
			"obj-15::obj-74" : [ "pictctrl[36]", "pictctrl[1]", 0 ],
			"obj-15::obj-79" : [ "pictctrl[37]", "pictctrl[1]", 0 ],
			"obj-15::obj-8" : [ "pictctrl[35]", "pictctrl[1]", 0 ],
			"obj-15::obj-96::obj-23" : [ "gswitch2[4]", "gswitch2", 0 ],
			"obj-16::obj-17::obj-23" : [ "gswitch2[3]", "gswitch2", 0 ],
			"obj-16::obj-21" : [ "range[19]", "range", 0 ],
			"obj-16::obj-24" : [ "pictctrl[98]", "pictctrl[1]", 0 ],
			"obj-16::obj-26" : [ "Crossfade", "Crossfade", 0 ],
			"obj-16::obj-39" : [ "Operator mode", "Operator mode", 0 ],
			"obj-16::obj-51" : [ "pictctrl[47]", "pictctrl[1]", 0 ],
			"obj-16::obj-56::obj-23" : [ "gswitch2[2]", "gswitch2", 0 ],
			"obj-19::obj-20" : [ "letterbox_menu", "letterbox_menu", 0 ],
			"obj-19::obj-37" : [ "aspect_menu", "aspect_menu", 0 ],
			"obj-1::obj-22" : [ "Mute", "Mute", 0 ],
			"obj-1::obj-52" : [ "Level", "Level", 0 ],
			"obj-1::obj-55" : [ "DSP", "DSP", 0 ],
			"obj-1::obj-56" : [ "OutputChannel", "OutputChannel", 0 ],
			"obj-24::obj-11" : [ "pictctrl[29]", "pictctrl[1]", 0 ],
			"obj-24::obj-16" : [ "pictctrl[21]", "pictctrl[1]", 0 ],
			"obj-24::obj-51" : [ "pictctrl[20]", "pictctrl[1]", 0 ],
			"obj-24::obj-9" : [ "Fader[2]", "Fader", 0 ],
			"obj-26" : [ "live.dial", "live.dial", 0 ],
			"obj-28::obj-10" : [ "range[8]", "range", 0 ],
			"obj-28::obj-12" : [ "pictctrl[48]", "pictctrl", 0 ],
			"obj-28::obj-15" : [ "pictctrl[41]", "pictctrl[2]", 0 ],
			"obj-28::obj-37" : [ "smoothing[4]", "Smoothing", 0 ],
			"obj-28::obj-5" : [ "pictctrl[12]", "pictctrl[1]", 0 ],
			"obj-28::obj-51" : [ "pictctrl[44]", "pictctrl[2]", 0 ],
			"obj-31::obj-1" : [ "textbutton[2]", "textbutton[1]", 0 ],
			"obj-31::obj-17" : [ "pictctrl[54]", "pictctrl[1]", 0 ],
			"obj-31::obj-19" : [ "pictctrl[58]", "pictctrl[1]", 0 ],
			"obj-31::obj-2::obj-23" : [ "gswitch2[8]", "gswitch2", 0 ],
			"obj-31::obj-44" : [ "Red mode", "Red mode", 0 ],
			"obj-31::obj-46" : [ "pictctrl[57]", "pictctrl[1]", 0 ],
			"obj-31::obj-48" : [ "Green mode", "Green mode", 0 ],
			"obj-31::obj-50" : [ "pictctrl[59]", "pictctrl[1]", 0 ],
			"obj-31::obj-54" : [ "Blue mode", "Blue mode", 0 ],
			"obj-31::obj-58" : [ "pictctrl[56]", "pictctrl[1]", 0 ],
			"obj-31::obj-6" : [ "pictctrl[55]", "pictctrl[1]", 0 ],
			"obj-31::obj-65" : [ "pictctrl[84]", "pictctrl[1]", 0 ],
			"obj-34::obj-11" : [ "pictctrl[2]", "pictctrl[1]", 0 ],
			"obj-34::obj-14" : [ "pictctrl[1]", "pictctrl[1]", 0 ],
			"obj-34::obj-22" : [ "range[3]", "range", 0 ],
			"obj-37::obj-104" : [ "pictctrl[16]", "pictctrl[1]", 0 ],
			"obj-37::obj-119" : [ "Brightness", "Brightness", 0 ],
			"obj-37::obj-120" : [ "Brightness range", "Brightness range", 1 ],
			"obj-37::obj-121" : [ "Offset[2]", "Brightness", 0 ],
			"obj-37::obj-127" : [ "Contrast", "Contrast", 0 ],
			"obj-37::obj-128" : [ "Contrast range", "Contrast range", 1 ],
			"obj-37::obj-129" : [ "contrast", "Contrast", 0 ],
			"obj-37::obj-140" : [ "Saturation", "Saturation", 0 ],
			"obj-37::obj-141" : [ "Saturation range", "Saturation range", 1 ],
			"obj-37::obj-142" : [ "saturation[1]", "Saturation", 0 ],
			"obj-37::obj-147" : [ "pictctrl[15]", "pictctrl[1]", 0 ],
			"obj-37::obj-148" : [ "pictctrl[24]", "pictctrl[1]", 0 ],
			"obj-37::obj-149" : [ "pictctrl[50]", "pictctrl[1]", 0 ],
			"obj-37::obj-150" : [ "pictctrl[17]", "pictctrl[1]", 0 ],
			"obj-37::obj-151" : [ "pictctrl[38]", "pictctrl[1]", 0 ],
			"obj-37::obj-56::obj-23" : [ "gswitch2[6]", "gswitch2", 0 ],
			"obj-37::obj-6" : [ "range[5]", "range", 0 ],
			"obj-38::obj-39" : [ "pictctrl[34]", "pictctrl[1]", 0 ],
			"obj-38::obj-6" : [ "pictctrl[31]", "pictctrl[1]", 0 ],
			"obj-38::obj-64" : [ "umenu[4]", "umenu", 0 ],
			"obj-43::obj-12" : [ "Mute[1]", "Mute", 0 ],
			"obj-43::obj-144" : [ "Phase", "Phase", 0 ],
			"obj-43::obj-70" : [ "Amt", "CV Amt", 0 ],
			"obj-43::obj-74" : [ "SyncRate", "Rate", 0 ],
			"obj-43::obj-75" : [ "Shape", "Shape", 0 ],
			"obj-43::obj-81" : [ "Phase-Inversion", "Phase-Inversion", 1 ],
			"obj-43::obj-88" : [ "Time Mode", "Time Mode", 1 ],
			"obj-43::obj-89" : [ "FreqRate", "Rate", 0 ],
			"obj-43::obj-94" : [ "Re-Trigger", "Re-Trigger", 0 ],
			"obj-44::obj-127" : [ "pictctrl[49]", "pictctrl[1]", 0 ],
			"obj-44::obj-138" : [ "pictctrl[13]", "pictctrl[1]", 0 ],
			"obj-44::obj-140" : [ "pictctrl[23]", "pictctrl[1]", 0 ],
			"obj-44::obj-142" : [ "pictctrl[30]", "pictctrl[1]", 0 ],
			"obj-44::obj-144" : [ "pictctrl[7]", "pictctrl[1]", 0 ],
			"obj-44::obj-15" : [ "pictctrl[52]", "pictctrl[1]", 0 ],
			"obj-44::obj-28" : [ "Rate[1]", "Rate", 0 ],
			"obj-44::obj-33" : [ "pictctrl[22]", "pictctrl[1]", 0 ],
			"obj-44::obj-7" : [ "textbutton[1]", "textbutton[1]", 0 ],
			"obj-44::obj-8" : [ "pictctrl[14]", "pictctrl[1]", 0 ],
			"obj-44::obj-86" : [ "FreqMode[2]", "FreqMode", 0 ],
			"obj-59::obj-11" : [ "pictctrl[78]", "pictctrl[1]", 0 ],
			"obj-59::obj-16" : [ "pictctrl[75]", "pictctrl[1]", 0 ],
			"obj-59::obj-51" : [ "pictctrl[79]", "pictctrl[1]", 0 ],
			"obj-59::obj-9" : [ "Fader", "Fader", 0 ],
			"obj-62::obj-10" : [ "range[20]", "range", 0 ],
			"obj-62::obj-12" : [ "pictctrl[76]", "pictctrl", 0 ],
			"obj-62::obj-15" : [ "pictctrl[80]", "pictctrl[2]", 0 ],
			"obj-62::obj-37" : [ "smoothing[1]", "Smoothing", 0 ],
			"obj-62::obj-5" : [ "pictctrl[81]", "pictctrl[1]", 0 ],
			"obj-62::obj-51" : [ "pictctrl[77]", "pictctrl[2]", 0 ],
			"obj-63::obj-12" : [ "Bypass[1]", "Bypass", 0 ],
			"obj-63::obj-15::obj-2" : [ "pastebang[1]", "pastebang", 0 ],
			"obj-63::obj-2" : [ "Output[1]", "Output", 0 ],
			"obj-63::obj-28" : [ "Attack[1]", "Attack", 0 ],
			"obj-63::obj-34" : [ "slider[4]", "slider[3]", 0 ],
			"obj-63::obj-35" : [ "slider[5]", "slider[2]", 0 ],
			"obj-63::obj-44" : [ "Input[1]", "Input", 0 ],
			"obj-63::obj-47" : [ "Release[1]", "Release", 0 ],
			"obj-63::obj-52" : [ "Threshold[1]", "Threshold", 0 ],
			"obj-63::obj-78" : [ "Ratio[1]", "Ratio", 0 ],
			"obj-6::obj-10" : [ "pictctrl[3]", "pictctrl[1]", 0 ],
			"obj-6::obj-112::obj-119" : [ "Speed high", "Speed high", 0 ],
			"obj-6::obj-112::obj-120" : [ "Rate range", "Rate range", 0 ],
			"obj-6::obj-112::obj-121" : [ "Speed low", "Speed low", 0 ],
			"obj-6::obj-112::obj-16" : [ "Playback range", "Playback range", 0 ],
			"obj-6::obj-112::obj-40" : [ "Playback controls", "Playback controls", 0 ],
			"obj-6::obj-112::obj-79" : [ "Playback position", "Playback position", 0 ],
			"obj-6::obj-112::obj-89" : [ "Reset range", "Reset range", 0 ],
			"obj-6::obj-112::obj-92" : [ "Reset speed", "Reset speed", 0 ],
			"obj-6::obj-20" : [ "pictctrl[4]", "pictctrl[1]", 0 ],
			"obj-6::obj-28" : [ "pictctrl[279]", "pictctrl[1]", 0 ],
			"obj-6::obj-40" : [ "pictctrl[283]", "pictctrl[1]", 0 ],
			"obj-6::obj-51" : [ "moviepath", "moviepath", 0 ],
			"obj-6::obj-60" : [ "pictctrl[282]", "pictctrl[1]", 0 ],
			"obj-6::obj-64" : [ "pictctrl[284]", "pictctrl[1]", 0 ],
			"obj-6::obj-81" : [ "pictctrl[281]", "pictctrl[1]", 0 ],
			"obj-6::obj-83" : [ "pictctrl[280]", "pictctrl[1]", 0 ],
			"obj-6::obj-89" : [ "moviename", "moviename", 0 ],
			"obj-71::obj-10" : [ "range[21]", "range", 0 ],
			"obj-71::obj-12" : [ "pictctrl[99]", "pictctrl", 0 ],
			"obj-71::obj-15" : [ "pictctrl[86]", "pictctrl[2]", 0 ],
			"obj-71::obj-37" : [ "smoothing[2]", "Smoothing", 0 ],
			"obj-71::obj-5" : [ "pictctrl[87]", "pictctrl[1]", 0 ],
			"obj-71::obj-51" : [ "pictctrl[100]", "pictctrl[2]", 0 ],
			"obj-72::obj-11" : [ "pictctrl[85]", "pictctrl[1]", 0 ],
			"obj-72::obj-16" : [ "pictctrl[60]", "pictctrl[1]", 0 ],
			"obj-72::obj-51" : [ "pictctrl[82]", "pictctrl[1]", 0 ],
			"obj-72::obj-9" : [ "Fader[3]", "Fader", 0 ],
			"obj-78::obj-12" : [ "Fullscreen", "Fullscreen", 0 ],
			"obj-78::obj-16" : [ "Toggle display", "Toggle display", 0 ],
			"obj-78::obj-1::obj-23" : [ "gswitch2[9]", "gswitch2", 0 ],
			"obj-78::obj-2" : [ "pictctrl[101]", "pictctrl[1]", 0 ],
			"obj-78::obj-3" : [ "toggle", "toggle", 0 ],
			"obj-78::obj-41" : [ "pictctrl[102]", "pictctrl[1]", 0 ],
			"obj-78::obj-50" : [ "pictctrl[88]", "pictctrl[1]", 0 ],
			"obj-78::obj-6" : [ "live.toggle[1]", "live.toggle", 0 ],
			"parameterbanks" : 			{

			}
,
			"parameter_overrides" : 			{
				"obj-15::obj-125" : 				{
					"parameter_longname" : "pictctrl[6]"
				}
,
				"obj-24::obj-16" : 				{
					"parameter_longname" : "pictctrl[21]"
				}
,
				"obj-24::obj-51" : 				{
					"parameter_longname" : "pictctrl[20]"
				}
,
				"obj-24::obj-9" : 				{
					"parameter_longname" : "Fader[2]"
				}
,
				"obj-28::obj-12" : 				{
					"parameter_longname" : "pictctrl[48]"
				}
,
				"obj-28::obj-5" : 				{
					"parameter_longname" : "pictctrl[12]"
				}
,
				"obj-28::obj-51" : 				{
					"parameter_longname" : "pictctrl[44]"
				}
,
				"obj-31::obj-17" : 				{
					"parameter_longname" : "pictctrl[54]"
				}
,
				"obj-31::obj-19" : 				{
					"parameter_longname" : "pictctrl[58]"
				}
,
				"obj-31::obj-46" : 				{
					"parameter_longname" : "pictctrl[57]"
				}
,
				"obj-31::obj-50" : 				{
					"parameter_longname" : "pictctrl[59]"
				}
,
				"obj-31::obj-58" : 				{
					"parameter_longname" : "pictctrl[56]"
				}
,
				"obj-31::obj-6" : 				{
					"parameter_longname" : "pictctrl[55]"
				}
,
				"obj-37::obj-104" : 				{
					"parameter_longname" : "pictctrl[16]"
				}
,
				"obj-37::obj-147" : 				{
					"parameter_longname" : "pictctrl[15]"
				}
,
				"obj-37::obj-148" : 				{
					"parameter_longname" : "pictctrl[24]"
				}
,
				"obj-37::obj-149" : 				{
					"parameter_longname" : "pictctrl[50]"
				}
,
				"obj-37::obj-150" : 				{
					"parameter_longname" : "pictctrl[17]"
				}
,
				"obj-37::obj-151" : 				{
					"parameter_longname" : "pictctrl[38]"
				}
,
				"obj-38::obj-6" : 				{
					"parameter_longname" : "pictctrl[31]"
				}
,
				"obj-43::obj-12" : 				{
					"parameter_longname" : "Mute[1]"
				}
,
				"obj-44::obj-127" : 				{
					"parameter_longname" : "pictctrl[49]"
				}
,
				"obj-44::obj-138" : 				{
					"parameter_longname" : "pictctrl[13]"
				}
,
				"obj-44::obj-140" : 				{
					"parameter_longname" : "pictctrl[23]"
				}
,
				"obj-44::obj-142" : 				{
					"parameter_longname" : "pictctrl[30]"
				}
,
				"obj-44::obj-144" : 				{
					"parameter_longname" : "pictctrl[7]"
				}
,
				"obj-44::obj-28" : 				{
					"parameter_longname" : "Rate[1]"
				}
,
				"obj-44::obj-33" : 				{
					"parameter_longname" : "pictctrl[22]"
				}
,
				"obj-44::obj-8" : 				{
					"parameter_longname" : "pictctrl[14]"
				}
,
				"obj-59::obj-16" : 				{
					"parameter_longname" : "pictctrl[75]"
				}
,
				"obj-59::obj-51" : 				{
					"parameter_longname" : "pictctrl[79]"
				}
,
				"obj-62::obj-12" : 				{
					"parameter_longname" : "pictctrl[76]"
				}
,
				"obj-62::obj-15" : 				{
					"parameter_longname" : "pictctrl[80]"
				}
,
				"obj-62::obj-37" : 				{
					"parameter_longname" : "smoothing[1]"
				}
,
				"obj-62::obj-5" : 				{
					"parameter_longname" : "pictctrl[81]"
				}
,
				"obj-62::obj-51" : 				{
					"parameter_longname" : "pictctrl[77]"
				}
,
				"obj-63::obj-12" : 				{
					"parameter_longname" : "Bypass[1]"
				}
,
				"obj-63::obj-15::obj-2" : 				{
					"parameter_longname" : "pastebang[1]"
				}
,
				"obj-63::obj-2" : 				{
					"parameter_longname" : "Output[1]"
				}
,
				"obj-63::obj-28" : 				{
					"parameter_longname" : "Attack[1]"
				}
,
				"obj-63::obj-44" : 				{
					"parameter_longname" : "Input[1]"
				}
,
				"obj-63::obj-47" : 				{
					"parameter_longname" : "Release[1]"
				}
,
				"obj-63::obj-52" : 				{
					"parameter_longname" : "Threshold[1]"
				}
,
				"obj-63::obj-78" : 				{
					"parameter_longname" : "Ratio[1]"
				}
,
				"obj-6::obj-10" : 				{
					"parameter_longname" : "pictctrl[3]"
				}
,
				"obj-6::obj-20" : 				{
					"parameter_longname" : "pictctrl[4]"
				}
,
				"obj-71::obj-12" : 				{
					"parameter_longname" : "pictctrl[99]"
				}
,
				"obj-71::obj-15" : 				{
					"parameter_longname" : "pictctrl[86]"
				}
,
				"obj-71::obj-37" : 				{
					"parameter_longname" : "smoothing[2]"
				}
,
				"obj-71::obj-5" : 				{
					"parameter_longname" : "pictctrl[87]"
				}
,
				"obj-71::obj-51" : 				{
					"parameter_longname" : "pictctrl[100]"
				}
,
				"obj-72::obj-16" : 				{
					"parameter_longname" : "pictctrl[60]"
				}
,
				"obj-72::obj-51" : 				{
					"parameter_longname" : "pictctrl[82]"
				}
,
				"obj-72::obj-9" : 				{
					"parameter_longname" : "Fader[3]"
				}
,
				"obj-78::obj-2" : 				{
					"parameter_longname" : "pictctrl[101]"
				}
,
				"obj-78::obj-41" : 				{
					"parameter_longname" : "pictctrl[102]"
				}
,
				"obj-78::obj-50" : 				{
					"parameter_longname" : "pictctrl[88]"
				}

			}
,
			"inherited_shortname" : 1
		}
,
		"dependency_cache" : [ 			{
				"name" : "bp.CV LFO.maxpat",
				"bootpath" : "C74:/packages/BEAP/clippings/BEAP/LFO",
				"type" : "JSON",
				"implicit" : 1
			}
, 			{
				"name" : "bp.Compressor.maxpat",
				"bootpath" : "C74:/packages/BEAP/clippings/BEAP/Effects",
				"type" : "JSON",
				"implicit" : 1
			}
, 			{
				"name" : "bp.Stereo.maxpat",
				"bootpath" : "C74:/packages/BEAP/clippings/BEAP/Output",
				"type" : "JSON",
				"implicit" : 1
			}
, 			{
				"name" : "brcosa.genjit",
				"bootpath" : "~/Library/Application Support/Cycling '74/Max 8/Examples/jitter-examples/gen",
				"patcherrelativepath" : "../../../../Library/Application Support/Cycling '74/Max 8/Examples/jitter-examples/gen",
				"type" : "gJIT",
				"implicit" : 1
			}
, 			{
				"name" : "data-handler-L.maxpat",
				"bootpath" : "C74:/packages/Vizzie/patchers/utils",
				"type" : "JSON",
				"implicit" : 1
			}
, 			{
				"name" : "data-handler.maxpat",
				"bootpath" : "C74:/packages/Vizzie/patchers/utils",
				"type" : "JSON",
				"implicit" : 1
			}
, 			{
				"name" : "data_smoother.maxpat",
				"bootpath" : "C74:/packages/Vizzie/patchers/utils",
				"type" : "JSON",
				"implicit" : 1
			}
, 			{
				"name" : "exact_menu.maxpat",
				"bootpath" : "C74:/packages/Vizzie/patchers/utils",
				"type" : "JSON",
				"implicit" : 1
			}
, 			{
				"name" : "lo_hi_UI_control.maxpat",
				"bootpath" : "C74:/packages/Vizzie/patchers/utils",
				"type" : "JSON",
				"implicit" : 1
			}
, 			{
				"name" : "pastebang.maxpat",
				"bootpath" : "C74:/packages/BEAP/misc",
				"type" : "JSON",
				"implicit" : 1
			}
, 			{
				"name" : "playr_controls.maxpat",
				"bootpath" : "C74:/packages/Vizzie/patchers/utils",
				"type" : "JSON",
				"implicit" : 1
			}
, 			{
				"name" : "snapshot_UI.maxpat",
				"bootpath" : "C74:/packages/Vizzie/patchers/utils",
				"type" : "JSON",
				"implicit" : 1
			}
, 			{
				"name" : "video-handler.maxpat",
				"bootpath" : "C74:/packages/Vizzie/patchers/utils",
				"type" : "JSON",
				"implicit" : 1
			}
, 			{
				"name" : "vizzie-datatexconvert.js",
				"bootpath" : "C74:/packages/Vizzie/code",
				"type" : "TEXT",
				"implicit" : 1
			}
, 			{
				"name" : "vizzie-global.js",
				"bootpath" : "C74:/packages/Vizzie/code",
				"type" : "TEXT",
				"implicit" : 1
			}
, 			{
				"name" : "vz.analyzr.maxpat",
				"bootpath" : "C74:/packages/Vizzie/patchers",
				"type" : "JSON",
				"implicit" : 1
			}
, 			{
				"name" : "vz.attractr.maxpat",
				"bootpath" : "C74:/packages/Vizzie/patchers",
				"type" : "JSON",
				"implicit" : 1
			}
, 			{
				"name" : "vz.audio2vizzie.maxpat",
				"bootpath" : "C74:/packages/Vizzie/patchers",
				"type" : "JSON",
				"implicit" : 1
			}
, 			{
				"name" : "vz.averagr.maxpat",
				"bootpath" : "C74:/packages/Vizzie/patchers",
				"type" : "JSON",
				"implicit" : 1
			}
, 			{
				"name" : "vz.beapconvertr.maxpat",
				"bootpath" : "C74:/packages/Vizzie/patchers",
				"type" : "JSON",
				"implicit" : 1
			}
, 			{
				"name" : "vz.brcosr.maxpat",
				"bootpath" : "C74:/packages/Vizzie/patchers",
				"type" : "JSON",
				"implicit" : 1
			}
, 			{
				"name" : "vz.fadr.maxpat",
				"bootpath" : "C74:/packages/Vizzie/patchers",
				"type" : "JSON",
				"implicit" : 1
			}
, 			{
				"name" : "vz.mixfadr.maxpat",
				"bootpath" : "C74:/packages/Vizzie/patchers",
				"type" : "JSON",
				"implicit" : 1
			}
, 			{
				"name" : "vz.playr.maxpat",
				"bootpath" : "C74:/packages/Vizzie/patchers",
				"type" : "JSON",
				"implicit" : 1
			}
, 			{
				"name" : "vz.projectr.maxpat",
				"bootpath" : "C74:/packages/Vizzie/patchers",
				"type" : "JSON",
				"implicit" : 1
			}
, 			{
				"name" : "vz.reflectr.maxpat",
				"bootpath" : "C74:/packages/Vizzie/patchers",
				"type" : "JSON",
				"implicit" : 1
			}
, 			{
				"name" : "vz.viewr.maxpat",
				"bootpath" : "C74:/packages/Vizzie/patchers",
				"type" : "JSON",
				"implicit" : 1
			}
, 			{
				"name" : "vzgl-blackframe.maxpat",
				"bootpath" : "C74:/packages/Vizzie/patchers/utils",
				"type" : "JSON",
				"implicit" : 1
			}
, 			{
				"name" : "vzgl-context.maxpat",
				"bootpath" : "C74:/packages/Vizzie/patchers/utils",
				"type" : "JSON",
				"implicit" : 1
			}
, 			{
				"name" : "vzgl-disable.maxpat",
				"bootpath" : "C74:/packages/Vizzie/patchers/utils",
				"type" : "JSON",
				"implicit" : 1
			}
, 			{
				"name" : "vzgl-object.maxpat",
				"bootpath" : "C74:/packages/Vizzie/patchers/utils",
				"type" : "JSON",
				"implicit" : 1
			}
, 			{
				"name" : "vzgl-outputdim.maxpat",
				"bootpath" : "C74:/packages/Vizzie/patchers/utils",
				"type" : "JSON",
				"implicit" : 1
			}
, 			{
				"name" : "vzgl-pwindow.maxpat",
				"bootpath" : "C74:/packages/Vizzie/patchers/utils",
				"type" : "JSON",
				"implicit" : 1
			}
, 			{
				"name" : "vzgl-routegl.maxpat",
				"bootpath" : "C74:/packages/Vizzie/patchers/utils",
				"type" : "JSON",
				"implicit" : 1
			}
, 			{
				"name" : "warpedmirror.genjit",
				"bootpath" : "C74:/packages/Vizzie/patchers/gen",
				"type" : "gJIT",
				"implicit" : 1
			}
, 			{
				"name" : "windowresize.js",
				"bootpath" : "C74:/packages/Vizzie/code",
				"type" : "TEXT",
				"implicit" : 1
			}
, 			{
				"name" : "xfade.genjit",
				"bootpath" : "~/Library/Application Support/Cycling '74/Max 8/Examples/jitter-examples/gen",
				"patcherrelativepath" : "../../../../Library/Application Support/Cycling '74/Max 8/Examples/jitter-examples/gen",
				"type" : "gJIT",
				"implicit" : 1
			}
 ],
		"autosave" : 0
	}

}
