{
	"patcher" : 	{
		"fileversion" : 1,
		"appversion" : 		{
			"major" : 8,
			"minor" : 5,
			"revision" : 7,
			"architecture" : "x64",
			"modernui" : 1
		}
,
		"classnamespace" : "box",
		"rect" : [ 34.0, 87.0, 1372.0, 722.0 ],
		"bglocked" : 0,
		"openinpresentation" : 1,
		"default_fontsize" : 12.0,
		"default_fontface" : 0,
		"default_fontname" : "Arial",
		"gridonopen" : 1,
		"gridsize" : [ 15.0, 15.0 ],
		"gridsnaponopen" : 1,
		"objectsnaponopen" : 1,
		"statusbarvisible" : 2,
		"toolbarvisible" : 1,
		"lefttoolbarpinned" : 0,
		"toptoolbarpinned" : 0,
		"righttoolbarpinned" : 0,
		"bottomtoolbarpinned" : 0,
		"toolbars_unpinned_last_save" : 0,
		"tallnewobj" : 0,
		"boxanimatetime" : 200,
		"enablehscroll" : 1,
		"enablevscroll" : 1,
		"devicewidth" : 0.0,
		"description" : "",
		"digest" : "",
		"tags" : "",
		"style" : "",
		"subpatcher_template" : "",
		"assistshowspatchername" : 0,
		"boxes" : [ 			{
				"box" : 				{
					"fontface" : 2,
					"fontname" : "Futura Medium",
					"fontsize" : 18.0,
					"id" : "obj-53",
					"linecount" : 5,
					"maxclass" : "comment",
					"numinlets" : 0,
					"numoutlets" : 0,
					"patching_rect" : [ 59.5, 328.0, 221.0, 124.0 ],
					"presentation" : 1,
					"presentation_linecount" : 5,
					"presentation_rect" : [ 596.5, 316.5, 26.0, 124.0 ],
					"suppressinlet" : 1,
					"text" : "S\nY\nN\nT\nH",
					"textcolor" : [ 1.0, 1.0, 1.0, 1.0 ],
					"textjustification" : 1
				}

			}
, 			{
				"box" : 				{
					"fontname" : "Futura Medium",
					"fontsize" : 10.0,
					"id" : "obj-22",
					"maxclass" : "comment",
					"numinlets" : 1,
					"numoutlets" : 0,
					"patching_rect" : [ 98.5, 475.0, 143.0, 19.0 ],
					"presentation" : 1,
					"presentation_rect" : [ 911.25, 320.5, 90.5, 19.0 ],
					"text" : "EXACTO-GRAPH",
					"textjustification" : 1
				}

			}
, 			{
				"box" : 				{
					"fontname" : "Futura Medium",
					"fontsize" : 10.0,
					"id" : "obj-18",
					"maxclass" : "comment",
					"numinlets" : 1,
					"numoutlets" : 0,
					"patching_rect" : [ 98.5, 458.0, 143.0, 19.0 ],
					"presentation" : 1,
					"presentation_rect" : [ 779.75, 320.5, 102.0, 19.0 ],
					"text" : "SPECTROSCOPE",
					"textjustification" : 1
				}

			}
, 			{
				"box" : 				{
					"fontname" : "Futura Medium",
					"fontsize" : 10.0,
					"id" : "obj-16",
					"maxclass" : "comment",
					"numinlets" : 1,
					"numoutlets" : 0,
					"patching_rect" : [ 98.5, 496.0, 143.0, 19.0 ],
					"presentation" : 1,
					"presentation_rect" : [ 666.0, 320.5, 83.0, 19.0 ],
					"text" : "LOOSE SCOPE",
					"textjustification" : 1
				}

			}
, 			{
				"box" : 				{
					"bgcolor" : [ 0.094117647058824, 0.113725490196078, 0.137254901960784, 1.0 ],
					"bufsize" : 8,
					"fgcolor" : [ 1.0, 1.0, 1.0, 1.0 ],
					"id" : "obj-9",
					"maxclass" : "scope~",
					"numinlets" : 2,
					"numoutlets" : 0,
					"patching_rect" : [ 792.5, 693.5, 130.0, 130.0 ],
					"presentation" : 1,
					"presentation_rect" : [ 896.5, 342.0, 120.0, 116.0 ]
				}

			}
, 			{
				"box" : 				{
					"fontname" : "Futura Medium",
					"id" : "obj-47",
					"maxclass" : "comment",
					"numinlets" : 1,
					"numoutlets" : 0,
					"patching_rect" : [ 71.5, 295.0, 197.0, 22.0 ],
					"text" : "PRESENTATION MODE PANELS",
					"textjustification" : 1
				}

			}
, 			{
				"box" : 				{
					"fontname" : "Futura Medium",
					"fontsize" : 9.0,
					"id" : "obj-36",
					"maxclass" : "comment",
					"numinlets" : 1,
					"numoutlets" : 0,
					"patching_rect" : [ 617.5, 719.5, 54.0, 18.0 ],
					"presentation" : 1,
					"presentation_rect" : [ 108.0, 435.0, 54.0, 18.0 ],
					"text" : "MUTE",
					"textjustification" : 1
				}

			}
, 			{
				"box" : 				{
					"fontname" : "Futura Medium",
					"id" : "obj-31",
					"maxclass" : "comment",
					"numinlets" : 1,
					"numoutlets" : 0,
					"patching_rect" : [ 781.0, 525.0, 153.0, 22.0 ],
					"presentation" : 1,
					"presentation_rect" : [ 754.25, 296.0, 153.0, 22.0 ],
					"text" : "OUTPUT GRAPHS",
					"textjustification" : 1
				}

			}
, 			{
				"box" : 				{
					"fontname" : "Futura Medium",
					"id" : "obj-21",
					"maxclass" : "comment",
					"numinlets" : 1,
					"numoutlets" : 0,
					"patching_rect" : [ 387.25, 362.0, 153.0, 22.0 ],
					"presentation" : 1,
					"presentation_rect" : [ 366.0, 338.0, 92.0, 22.0 ],
					"text" : "WAVE TYPE",
					"textjustification" : 1
				}

			}
, 			{
				"box" : 				{
					"fontname" : "Futura Medium",
					"id" : "obj-6",
					"maxclass" : "comment",
					"numinlets" : 1,
					"numoutlets" : 0,
					"patching_rect" : [ 346.25, 76.0, 153.0, 22.0 ],
					"presentation" : 1,
					"presentation_rect" : [ 131.75, 307.0, 153.0, 22.0 ],
					"text" : "PRESETS",
					"textjustification" : 1
				}

			}
, 			{
				"box" : 				{
					"fontname" : "Futura Medium",
					"id" : "obj-45",
					"linecount" : 2,
					"maxclass" : "comment",
					"numinlets" : 1,
					"numoutlets" : 0,
					"patching_rect" : [ 382.916666666666629, 640.0, 89.0, 38.0 ],
					"text" : "SIGNAL MULTIPLIER",
					"textjustification" : 1
				}

			}
, 			{
				"box" : 				{
					"fontname" : "Futura Medium",
					"fontsize" : 10.0,
					"id" : "obj-41",
					"linecount" : 2,
					"maxclass" : "comment",
					"numinlets" : 1,
					"numoutlets" : 0,
					"patching_rect" : [ 919.5, 301.0, 143.0, 32.0 ],
					"presentation" : 1,
					"presentation_linecount" : 2,
					"presentation_rect" : [ 452.5, 310.0, 134.0, 32.0 ],
					"text" : "CLICK TO CREATE\nSHIFT-CLICK TO DELETE",
					"textjustification" : 1
				}

			}
, 			{
				"box" : 				{
					"id" : "obj-39",
					"maxclass" : "newobj",
					"numinlets" : 2,
					"numoutlets" : 1,
					"outlettype" : [ "signal" ],
					"patching_rect" : [ 412.666666666666629, 603.0, 29.5, 22.0 ],
					"text" : "*~"
				}

			}
, 			{
				"box" : 				{
					"id" : "obj-29",
					"maxclass" : "newobj",
					"numinlets" : 2,
					"numoutlets" : 2,
					"outlettype" : [ "signal", "bang" ],
					"patching_rect" : [ 835.666666666666629, 352.0, 34.0, 22.0 ],
					"text" : "line~"
				}

			}
, 			{
				"box" : 				{
					"fontname" : "Futura Medium",
					"id" : "obj-27",
					"maxclass" : "comment",
					"numinlets" : 1,
					"numoutlets" : 0,
					"patching_rect" : [ 826.0, 281.0, 94.0, 22.0 ],
					"presentation" : 1,
					"presentation_rect" : [ 472.5, 292.0, 94.0, 22.0 ],
					"text" : "FUNCTION",
					"textjustification" : 1
				}

			}
, 			{
				"box" : 				{
					"addpoints" : [ 0.0, 0.648351648351648, 0, 0.0, 1.0, 0, 638.095238095238074, 1.0, 0, 904.761904761904816, 0.0, 0 ],
					"bgcolor" : [ 0.094117647058824, 0.113725490196078, 0.137254901960784, 1.0 ],
					"id" : "obj-24",
					"linecolor" : [ 1.0, 1.0, 1.0, 1.0 ],
					"maxclass" : "function",
					"numinlets" : 1,
					"numoutlets" : 4,
					"outlettype" : [ "float", "", "", "bang" ],
					"parameter_enable" : 0,
					"patching_rect" : [ 803.0, 305.0, 117.0, 38.0 ],
					"presentation" : 1,
					"presentation_rect" : [ 461.0, 342.0, 117.0, 116.0 ]
				}

			}
, 			{
				"box" : 				{
					"id" : "obj-23",
					"maxclass" : "button",
					"numinlets" : 1,
					"numoutlets" : 1,
					"outlettype" : [ "bang" ],
					"parameter_enable" : 0,
					"patching_rect" : [ 803.0, 272.0, 24.0, 24.0 ]
				}

			}
, 			{
				"box" : 				{
					"fontname" : "Futura Medium",
					"fontsize" : 10.0,
					"id" : "obj-11",
					"maxclass" : "comment",
					"numinlets" : 1,
					"numoutlets" : 0,
					"patching_rect" : [ 346.25, 97.0, 130.0, 19.0 ],
					"presentation" : 1,
					"presentation_rect" : [ 143.25, 323.0, 130.0, 19.0 ],
					"text" : "SHIFT-CLICK TO SAVE",
					"textjustification" : 1
				}

			}
, 			{
				"box" : 				{
					"active1" : [ 1.0, 1.0, 1.0, 1.0 ],
					"bgcolor" : [ 0.094117647058824, 0.113725490196078, 0.137254901960784, 1.0 ],
					"bubblesize" : 30,
					"fontname" : "Futura Medium",
					"id" : "obj-8",
					"maxclass" : "preset",
					"numinlets" : 1,
					"numoutlets" : 5,
					"outlettype" : [ "preset", "int", "preset", "int", "" ],
					"patching_rect" : [ 365.0, 121.0, 108.5, 39.0 ],
					"presentation" : 1,
					"presentation_rect" : [ 154.0, 341.0, 108.5, 39.0 ],
					"preset_data" : [ 						{
							"number" : 1,
							"data" : [ 6, "obj-2", "gain~", "list", 109, 10.0, 5, "obj-15", "kslider", "int", 64, 5, "obj-33", "umenu", "int", 1 ]
						}
, 						{
							"number" : 2,
							"data" : [ 6, "obj-2", "gain~", "list", 121, 10.0, 5, "obj-15", "kslider", "int", 60, 5, "obj-33", "umenu", "int", 2 ]
						}
, 						{
							"number" : 3,
							"data" : [ 6, "obj-2", "gain~", "list", 111, 10.0, 5, "obj-15", "kslider", "int", 67, 5, "obj-33", "umenu", "int", 3 ]
						}
 ],
					"textcolor" : [ 0.094117647058824, 0.113725490196078, 0.137254901960784, 1.0 ]
				}

			}
, 			{
				"box" : 				{
					"fontname" : "Futura Medium",
					"fontsize" : 9.0,
					"id" : "obj-7",
					"maxclass" : "comment",
					"numinlets" : 1,
					"numoutlets" : 0,
					"patching_rect" : [ 597.0, 603.0, 54.0, 18.0 ],
					"presentation" : 1,
					"presentation_rect" : [ 102.0, 399.0, 54.0, 18.0 ],
					"text" : "VOLUME",
					"textjustification" : 1
				}

			}
, 			{
				"box" : 				{
					"id" : "obj-51",
					"maxclass" : "newobj",
					"numinlets" : 1,
					"numoutlets" : 1,
					"outlettype" : [ "bang" ],
					"patching_rect" : [ 404.5, 259.0, 58.0, 22.0 ],
					"text" : "loadbang"
				}

			}
, 			{
				"box" : 				{
					"id" : "obj-50",
					"maxclass" : "message",
					"numinlets" : 2,
					"numoutlets" : 1,
					"outlettype" : [ "" ],
					"patching_rect" : [ 404.5, 293.0, 29.5, 22.0 ],
					"text" : "1"
				}

			}
, 			{
				"box" : 				{
					"fontname" : "Futura Medium",
					"id" : "obj-48",
					"maxclass" : "comment",
					"numinlets" : 1,
					"numoutlets" : 0,
					"patching_rect" : [ 591.75, 403.5, 93.0, 22.0 ],
					"presentation" : 1,
					"presentation_rect" : [ 273.75, 338.0, 93.0, 22.0 ],
					"text" : "RESONANCE",
					"textjustification" : 1
				}

			}
, 			{
				"box" : 				{
					"id" : "obj-44",
					"maxclass" : "message",
					"numinlets" : 2,
					"numoutlets" : 1,
					"outlettype" : [ "" ],
					"patching_rect" : [ 609.0, 448.5, 62.5, 22.0 ],
					"text" : "1."
				}

			}
, 			{
				"box" : 				{
					"bgcolor" : [ 0.094117647058824, 0.113725490196078, 0.137254901960784, 1.0 ],
					"elementcolor" : [ 0.094117647058824, 0.113725490196078, 0.137254901960784, 1.0 ],
					"floatoutput" : 1,
					"id" : "obj-42",
					"knobcolor" : [ 1.0, 1.0, 1.0, 1.0 ],
					"maxclass" : "slider",
					"numinlets" : 1,
					"numoutlets" : 1,
					"outlettype" : [ "" ],
					"parameter_enable" : 0,
					"patching_rect" : [ 609.0, 427.5, 58.5, 16.0 ],
					"presentation" : 1,
					"presentation_rect" : [ 291.0, 358.0, 58.5, 22.0 ],
					"size" : 1.0
				}

			}
, 			{
				"box" : 				{
					"id" : "obj-38",
					"maxclass" : "newobj",
					"numinlets" : 2,
					"numoutlets" : 1,
					"outlettype" : [ "signal" ],
					"patching_rect" : [ 442.0, 508.0, 43.0, 22.0 ],
					"text" : "cycle~"
				}

			}
, 			{
				"box" : 				{
					"id" : "obj-37",
					"maxclass" : "newobj",
					"numinlets" : 3,
					"numoutlets" : 1,
					"outlettype" : [ "signal" ],
					"patching_rect" : [ 487.0, 508.0, 40.0, 22.0 ],
					"text" : "tri~"
				}

			}
, 			{
				"box" : 				{
					"id" : "obj-35",
					"maxclass" : "newobj",
					"numinlets" : 2,
					"numoutlets" : 1,
					"outlettype" : [ "signal" ],
					"patching_rect" : [ 529.0, 508.0, 37.0, 22.0 ],
					"text" : "saw~"
				}

			}
, 			{
				"box" : 				{
					"id" : "obj-34",
					"maxclass" : "newobj",
					"numinlets" : 5,
					"numoutlets" : 1,
					"outlettype" : [ "signal" ],
					"patching_rect" : [ 405.5, 545.0, 68.0, 22.0 ],
					"text" : "selector~ 4"
				}

			}
, 			{
				"box" : 				{
					"bgfillcolor_angle" : 270.0,
					"bgfillcolor_autogradient" : 0.0,
					"bgfillcolor_color" : [ 0.094117647058824, 0.113725490196078, 0.137254901960784, 1.0 ],
					"bgfillcolor_color1" : [ 0.094117647058824, 0.113725490196078, 0.137254901960784, 1.0 ],
					"bgfillcolor_color2" : [ 0.2, 0.2, 0.2, 1.0 ],
					"bgfillcolor_proportion" : 0.5,
					"bgfillcolor_type" : "gradient",
					"id" : "obj-33",
					"items" : [ "None", ",", "Sine", ",", "Triangle", ",", "Sawtooth", ",", "Square" ],
					"maxclass" : "umenu",
					"numinlets" : 1,
					"numoutlets" : 3,
					"outlettype" : [ "int", "", "" ],
					"parameter_enable" : 0,
					"patching_rect" : [ 404.5, 336.0, 125.0, 22.0 ],
					"presentation" : 1,
					"presentation_rect" : [ 373.0, 358.0, 78.0, 22.0 ]
				}

			}
, 			{
				"box" : 				{
					"id" : "obj-32",
					"maxclass" : "message",
					"numinlets" : 2,
					"numoutlets" : 1,
					"outlettype" : [ "" ],
					"patching_rect" : [ 365.0, 405.0, 29.5, 22.0 ],
					"text" : "660"
				}

			}
, 			{
				"box" : 				{
					"id" : "obj-30",
					"maxclass" : "message",
					"numinlets" : 2,
					"numoutlets" : 1,
					"outlettype" : [ "" ],
					"patching_rect" : [ 365.0, 372.0, 29.5, 22.0 ],
					"text" : "440"
				}

			}
, 			{
				"box" : 				{
					"id" : "obj-28",
					"maxclass" : "message",
					"numinlets" : 2,
					"numoutlets" : 1,
					"outlettype" : [ "" ],
					"patching_rect" : [ 365.0, 336.0, 29.5, 22.0 ],
					"text" : "220"
				}

			}
, 			{
				"box" : 				{
					"fontname" : "Futura Medium",
					"id" : "obj-26",
					"maxclass" : "comment",
					"numinlets" : 1,
					"numoutlets" : 0,
					"patching_rect" : [ 602.0, 286.0, 79.0, 22.0 ],
					"text" : "MIDI VALUE",
					"textjustification" : 1
				}

			}
, 			{
				"box" : 				{
					"id" : "obj-20",
					"maxclass" : "newobj",
					"numinlets" : 1,
					"numoutlets" : 1,
					"outlettype" : [ "" ],
					"patching_rect" : [ 570.0, 285.0, 32.0, 22.0 ],
					"text" : "mtof"
				}

			}
, 			{
				"box" : 				{
					"id" : "obj-19",
					"maxclass" : "message",
					"numinlets" : 2,
					"numoutlets" : 1,
					"outlettype" : [ "" ],
					"patching_rect" : [ 509.0, 285.0, 29.5, 22.0 ],
					"text" : "72"
				}

			}
, 			{
				"box" : 				{
					"fontname" : "Futura Medium",
					"id" : "obj-17",
					"maxclass" : "comment",
					"numinlets" : 1,
					"numoutlets" : 0,
					"patching_rect" : [ 584.0, 195.0, 147.0, 22.0 ],
					"text" : "K-SLIDER KEYBOARD",
					"textjustification" : 1
				}

			}
, 			{
				"box" : 				{
					"blackkeycolor" : [ 1.0, 1.0, 1.0, 1.0 ],
					"hkeycolor" : [ 0.0, 0.0, 0.0, 1.0 ],
					"id" : "obj-15",
					"maxclass" : "kslider",
					"numinlets" : 2,
					"numoutlets" : 2,
					"offset" : 58,
					"outlettype" : [ "int", "int" ],
					"parameter_enable" : 0,
					"patching_rect" : [ 570.0, 219.0, 153.0, 41.0 ],
					"presentation" : 1,
					"presentation_rect" : [ 179.0, 387.0, 272.0, 68.0 ],
					"prototypename" : "M4L.black",
					"range" : 28,
					"selectioncolor" : [ 0.631372549019608, 0.631372549019608, 0.631372549019608, 1.0 ],
					"whitekeycolor" : [ 0.094118, 0.113725, 0.137255, 1.0 ]
				}

			}
, 			{
				"box" : 				{
					"id" : "obj-14",
					"maxclass" : "number",
					"maximum" : 1000,
					"minimum" : 220,
					"numinlets" : 1,
					"numoutlets" : 2,
					"outlettype" : [ "", "bang" ],
					"parameter_enable" : 0,
					"patching_rect" : [ 570.0, 336.0, 50.0, 22.0 ]
				}

			}
, 			{
				"box" : 				{
					"fontname" : "Futura Medium",
					"id" : "obj-12",
					"linecount" : 3,
					"maxclass" : "comment",
					"numinlets" : 1,
					"numoutlets" : 0,
					"patching_rect" : [ 919.5, 445.0, 160.0, 53.0 ],
					"text" : "CHANGE APPEARANCE IN: DOUBLE CLICK > PROTOTYPE",
					"textjustification" : 1
				}

			}
, 			{
				"box" : 				{
					"bgcolor" : [ 0.094117647058824, 0.113725490196078, 0.137254901960784, 1.0 ],
					"fgcolor" : [ 1.0, 1.0, 1.0, 1.0 ],
					"id" : "obj-5",
					"interval" : 8,
					"logfreq" : 1,
					"markercolor" : [ 1.0, 1.0, 1.0, 1.0 ],
					"maxclass" : "spectroscope~",
					"monochrome" : 0,
					"numinlets" : 2,
					"numoutlets" : 1,
					"outlettype" : [ "" ],
					"patching_rect" : [ 792.5, 427.5, 120.0, 80.0 ],
					"presentation" : 1,
					"presentation_rect" : [ 769.5, 342.0, 120.0, 116.0 ],
					"sonohicolor" : [ 1.0, 1.0, 1.0, 1.0 ],
					"sonolocolor" : [ 0.094118, 0.113725, 0.137255, 1.0 ],
					"sonomedcolor" : [ 0.301961, 0.337255, 0.403922, 1.0 ],
					"sonomedhicolor" : [ 0.494118, 0.556863, 0.607843, 1.0 ],
					"sonomedlocolor" : [ 0.666667, 0.698039, 0.717647, 1.0 ],
					"sonomonofgcolor" : [ 0.094118, 0.113725, 0.137255, 1.0 ]
				}

			}
, 			{
				"box" : 				{
					"bgcolor" : [ 0.094117647058824, 0.113725490196078, 0.137254901960784, 1.0 ],
					"fgcolor" : [ 1.0, 1.0, 1.0, 1.0 ],
					"id" : "obj-4",
					"maxclass" : "scope~",
					"numinlets" : 2,
					"numoutlets" : 0,
					"patching_rect" : [ 792.5, 551.5, 130.0, 130.0 ],
					"presentation" : 1,
					"presentation_rect" : [ 651.5, 342.0, 112.0, 116.0 ]
				}

			}
, 			{
				"box" : 				{
					"bgcolor" : [ 0.094117647058824, 0.113725490196078, 0.137254901960784, 1.0 ],
					"color" : [ 1.0, 1.0, 1.0, 1.0 ],
					"id" : "obj-3",
					"maxclass" : "ezdac~",
					"numinlets" : 2,
					"numoutlets" : 0,
					"patching_rect" : [ 571.0, 706.0, 45.0, 45.0 ],
					"presentation" : 1,
					"presentation_rect" : [ 154.0, 433.0, 22.0, 22.0 ]
				}

			}
, 			{
				"box" : 				{
					"bgcolor" : [ 0.094117647058824, 0.113725490196078, 0.137254901960784, 1.0 ],
					"id" : "obj-2",
					"knobcolor" : [ 1.0, 1.0, 1.0, 1.0 ],
					"maxclass" : "gain~",
					"multichannelvariant" : 0,
					"numinlets" : 1,
					"numoutlets" : 2,
					"outlettype" : [ "signal", "" ],
					"parameter_enable" : 0,
					"patching_rect" : [ 571.0, 545.0, 22.0, 140.0 ],
					"presentation" : 1,
					"presentation_rect" : [ 154.0, 387.0, 22.0, 42.0 ],
					"stripecolor" : [ 0.094117647058824, 0.113725490196078, 0.137254901960784, 1.0 ]
				}

			}
, 			{
				"box" : 				{
					"id" : "obj-1",
					"maxclass" : "newobj",
					"numinlets" : 3,
					"numoutlets" : 1,
					"outlettype" : [ "signal" ],
					"patching_rect" : [ 571.0, 508.0, 40.0, 22.0 ],
					"text" : "rect~"
				}

			}
, 			{
				"box" : 				{
					"angle" : 270.0,
					"bordercolor" : [ 0.0, 0.0, 0.0, 1.0 ],
					"grad1" : [ 1.0, 1.0, 1.0, 1.0 ],
					"grad2" : [ 0.517647058823529, 0.517647058823529, 0.517647058823529, 1.0 ],
					"id" : "obj-43",
					"maxclass" : "panel",
					"mode" : 1,
					"numinlets" : 1,
					"numoutlets" : 0,
					"patching_rect" : [ 106.0, 326.0, 128.0, 128.0 ],
					"presentation" : 1,
					"presentation_rect" : [ 102.0, 285.0, 491.0, 185.0 ],
					"proportion" : 0.5
				}

			}
, 			{
				"box" : 				{
					"angle" : 270.0,
					"bordercolor" : [ 0.0, 0.0, 0.0, 1.0 ],
					"grad1" : [ 1.0, 1.0, 1.0, 1.0 ],
					"grad2" : [ 0.517647058823529, 0.517647058823529, 0.517647058823529, 1.0 ],
					"id" : "obj-10",
					"maxclass" : "panel",
					"mode" : 1,
					"numinlets" : 1,
					"numoutlets" : 0,
					"patching_rect" : [ 106.0, 326.0, 128.0, 128.0 ],
					"presentation" : 1,
					"presentation_rect" : [ 626.5, 285.0, 408.5, 185.0 ],
					"proportion" : 0.5
				}

			}
, 			{
				"box" : 				{
					"angle" : 270.0,
					"grad1" : [ 0.666666666666667, 0.650980392156863, 0.650980392156863, 1.0 ],
					"grad2" : [ 0.2, 0.2, 0.2, 1.0 ],
					"id" : "obj-40",
					"maxclass" : "panel",
					"mode" : 1,
					"numinlets" : 1,
					"numoutlets" : 0,
					"patching_rect" : [ 106.0, 326.0, 128.0, 128.0 ],
					"presentation" : 1,
					"presentation_rect" : [ 547.0, 291.0, 128.0, 174.0 ],
					"proportion" : 0.5
				}

			}
 ],
		"lines" : [ 			{
				"patchline" : 				{
					"destination" : [ "obj-34", 4 ],
					"midpoints" : [ 580.5, 537.0, 464.0, 537.0 ],
					"source" : [ "obj-1", 0 ]
				}

			}
, 			{
				"patchline" : 				{
					"destination" : [ "obj-1", 0 ],
					"midpoints" : [ 579.5, 432.5, 580.5, 432.5 ],
					"order" : 0,
					"source" : [ "obj-14", 0 ]
				}

			}
, 			{
				"patchline" : 				{
					"destination" : [ "obj-35", 0 ],
					"midpoints" : [ 579.5, 432.5, 538.5, 432.5 ],
					"order" : 1,
					"source" : [ "obj-14", 0 ]
				}

			}
, 			{
				"patchline" : 				{
					"destination" : [ "obj-37", 0 ],
					"midpoints" : [ 579.5, 486.5, 496.5, 486.5 ],
					"order" : 2,
					"source" : [ "obj-14", 0 ]
				}

			}
, 			{
				"patchline" : 				{
					"destination" : [ "obj-38", 0 ],
					"midpoints" : [ 579.5, 485.5, 451.5, 485.5 ],
					"order" : 3,
					"source" : [ "obj-14", 0 ]
				}

			}
, 			{
				"patchline" : 				{
					"destination" : [ "obj-19", 1 ],
					"midpoints" : [ 579.5, 272.0, 529.0, 272.0 ],
					"order" : 1,
					"source" : [ "obj-15", 0 ]
				}

			}
, 			{
				"patchline" : 				{
					"destination" : [ "obj-20", 0 ],
					"order" : 0,
					"source" : [ "obj-15", 0 ]
				}

			}
, 			{
				"patchline" : 				{
					"destination" : [ "obj-23", 0 ],
					"source" : [ "obj-15", 1 ]
				}

			}
, 			{
				"patchline" : 				{
					"destination" : [ "obj-3", 1 ],
					"midpoints" : [ 580.5, 697.5, 606.5, 697.5 ],
					"order" : 3,
					"source" : [ "obj-2", 0 ]
				}

			}
, 			{
				"patchline" : 				{
					"destination" : [ "obj-3", 0 ],
					"order" : 4,
					"source" : [ "obj-2", 0 ]
				}

			}
, 			{
				"patchline" : 				{
					"destination" : [ "obj-4", 0 ],
					"midpoints" : [ 580.5, 695.0, 749.5, 695.0, 749.5, 546.0, 802.0, 546.0 ],
					"order" : 1,
					"source" : [ "obj-2", 0 ]
				}

			}
, 			{
				"patchline" : 				{
					"destination" : [ "obj-5", 0 ],
					"midpoints" : [ 580.5, 695.0, 770.5, 695.0, 770.5, 422.0, 802.0, 422.0 ],
					"order" : 2,
					"source" : [ "obj-2", 0 ]
				}

			}
, 			{
				"patchline" : 				{
					"destination" : [ "obj-9", 0 ],
					"midpoints" : [ 580.5, 688.75, 802.0, 688.75 ],
					"order" : 0,
					"source" : [ "obj-2", 0 ]
				}

			}
, 			{
				"patchline" : 				{
					"destination" : [ "obj-14", 0 ],
					"source" : [ "obj-20", 0 ]
				}

			}
, 			{
				"patchline" : 				{
					"destination" : [ "obj-24", 0 ],
					"source" : [ "obj-23", 0 ]
				}

			}
, 			{
				"patchline" : 				{
					"destination" : [ "obj-29", 0 ],
					"source" : [ "obj-24", 1 ]
				}

			}
, 			{
				"patchline" : 				{
					"destination" : [ "obj-14", 0 ],
					"midpoints" : [ 374.5, 357.0, 355.5, 357.0, 355.5, 324.0, 579.5, 324.0 ],
					"source" : [ "obj-28", 0 ]
				}

			}
, 			{
				"patchline" : 				{
					"destination" : [ "obj-39", 1 ],
					"midpoints" : [ 845.166666666666629, 488.0, 432.666666666666629, 488.0 ],
					"source" : [ "obj-29", 0 ]
				}

			}
, 			{
				"patchline" : 				{
					"destination" : [ "obj-14", 0 ],
					"midpoints" : [ 374.5, 393.0, 355.5, 393.0, 355.5, 324.0, 579.5, 324.0 ],
					"source" : [ "obj-30", 0 ]
				}

			}
, 			{
				"patchline" : 				{
					"destination" : [ "obj-14", 0 ],
					"midpoints" : [ 374.5, 423.0, 355.5, 423.0, 355.5, 324.0, 579.5, 324.0 ],
					"source" : [ "obj-32", 0 ]
				}

			}
, 			{
				"patchline" : 				{
					"destination" : [ "obj-34", 0 ],
					"source" : [ "obj-33", 0 ]
				}

			}
, 			{
				"patchline" : 				{
					"destination" : [ "obj-39", 0 ],
					"midpoints" : [ 415.0, 584.5, 422.166666666666629, 584.5 ],
					"source" : [ "obj-34", 0 ]
				}

			}
, 			{
				"patchline" : 				{
					"destination" : [ "obj-34", 3 ],
					"midpoints" : [ 538.5, 537.0, 451.75, 537.0 ],
					"source" : [ "obj-35", 0 ]
				}

			}
, 			{
				"patchline" : 				{
					"destination" : [ "obj-34", 2 ],
					"midpoints" : [ 496.5, 537.0, 439.5, 537.0 ],
					"source" : [ "obj-37", 0 ]
				}

			}
, 			{
				"patchline" : 				{
					"destination" : [ "obj-34", 1 ],
					"midpoints" : [ 451.5, 537.0, 427.25, 537.0 ],
					"source" : [ "obj-38", 0 ]
				}

			}
, 			{
				"patchline" : 				{
					"destination" : [ "obj-2", 0 ],
					"midpoints" : [ 422.166666666666629, 635.0, 501.333333333333314, 635.0, 501.333333333333314, 534.0, 580.5, 534.0 ],
					"source" : [ "obj-39", 0 ]
				}

			}
, 			{
				"patchline" : 				{
					"destination" : [ "obj-1", 1 ],
					"midpoints" : [ 618.5, 488.25, 591.0, 488.25 ],
					"order" : 1,
					"source" : [ "obj-42", 0 ]
				}

			}
, 			{
				"patchline" : 				{
					"destination" : [ "obj-37", 1 ],
					"midpoints" : [ 618.5, 488.25, 507.0, 488.25 ],
					"order" : 2,
					"source" : [ "obj-42", 0 ]
				}

			}
, 			{
				"patchline" : 				{
					"destination" : [ "obj-44", 1 ],
					"midpoints" : [ 618.5, 445.5, 662.0, 445.5 ],
					"order" : 0,
					"source" : [ "obj-42", 0 ]
				}

			}
, 			{
				"patchline" : 				{
					"destination" : [ "obj-33", 0 ],
					"source" : [ "obj-50", 0 ]
				}

			}
, 			{
				"patchline" : 				{
					"destination" : [ "obj-50", 0 ],
					"source" : [ "obj-51", 0 ]
				}

			}
, 			{
				"patchline" : 				{
					"destination" : [ "obj-15", 0 ],
					"midpoints" : [ 374.5, 189.0, 579.5, 189.0 ],
					"order" : 1,
					"source" : [ "obj-8", 0 ]
				}

			}
, 			{
				"patchline" : 				{
					"destination" : [ "obj-2", 0 ],
					"midpoints" : [ 374.5, 395.0, 580.5, 395.0 ],
					"order" : 0,
					"source" : [ "obj-8", 0 ]
				}

			}
, 			{
				"patchline" : 				{
					"destination" : [ "obj-33", 0 ],
					"midpoints" : [ 374.5, 247.5, 414.0, 247.5 ],
					"order" : 2,
					"source" : [ "obj-8", 0 ]
				}

			}
 ],
		"dependency_cache" : [  ],
		"autosave" : 0,
		"selectioncolor" : [ 0.352941176470588, 0.929411764705882, 0.588235294117647, 1.0 ]
	}

}
