{
	"patcher" : 	{
		"fileversion" : 1,
		"appversion" : 		{
			"major" : 8,
			"minor" : 6,
			"revision" : 1,
			"architecture" : "x64",
			"modernui" : 1
		}
,
		"classnamespace" : "box",
		"rect" : [ 34.0, 87.0, 1372.0, 722.0 ],
		"bglocked" : 0,
		"openinpresentation" : 1,
		"default_fontsize" : 12.0,
		"default_fontface" : 0,
		"default_fontname" : "Arial",
		"gridonopen" : 1,
		"gridsize" : [ 15.0, 15.0 ],
		"gridsnaponopen" : 1,
		"objectsnaponopen" : 1,
		"statusbarvisible" : 2,
		"toolbarvisible" : 1,
		"lefttoolbarpinned" : 0,
		"toptoolbarpinned" : 0,
		"righttoolbarpinned" : 0,
		"bottomtoolbarpinned" : 0,
		"toolbars_unpinned_last_save" : 0,
		"tallnewobj" : 0,
		"boxanimatetime" : 200,
		"enablehscroll" : 1,
		"enablevscroll" : 1,
		"devicewidth" : 0.0,
		"description" : "",
		"digest" : "",
		"tags" : "",
		"style" : "",
		"subpatcher_template" : "",
		"assistshowspatchername" : 0,
		"boxes" : [ 			{
				"box" : 				{
					"format" : 6,
					"id" : "obj-43",
					"maxclass" : "flonum",
					"minimum" : 0.5,
					"numinlets" : 1,
					"numoutlets" : 2,
					"outlettype" : [ "", "bang" ],
					"parameter_enable" : 0,
					"patching_rect" : [ 679.0, 369.0, 50.0, 22.0 ]
				}

			}
, 			{
				"box" : 				{
					"id" : "obj-30",
					"maxclass" : "newobj",
					"numinlets" : 1,
					"numoutlets" : 1,
					"outlettype" : [ "bang" ],
					"patching_rect" : [ 679.0, 328.0, 58.0, 22.0 ],
					"text" : "loadbang"
				}

			}
, 			{
				"box" : 				{
					"id" : "obj-36",
					"maxclass" : "number",
					"minimum" : 100,
					"numinlets" : 1,
					"numoutlets" : 2,
					"outlettype" : [ "", "bang" ],
					"parameter_enable" : 0,
					"patching_rect" : [ 602.0, 574.0, 50.0, 22.0 ]
				}

			}
, 			{
				"box" : 				{
					"id" : "obj-28",
					"maxclass" : "newobj",
					"numinlets" : 1,
					"numoutlets" : 1,
					"outlettype" : [ "bang" ],
					"patching_rect" : [ 602.0, 545.0, 58.0, 22.0 ],
					"text" : "loadbang"
				}

			}
, 			{
				"box" : 				{
					"id" : "obj-106",
					"maxclass" : "message",
					"numinlets" : 2,
					"numoutlets" : 1,
					"outlettype" : [ "" ],
					"patching_rect" : [ 509.0, 729.0, 29.5, 22.0 ],
					"text" : "1"
				}

			}
, 			{
				"box" : 				{
					"id" : "obj-104",
					"maxclass" : "newobj",
					"numinlets" : 1,
					"numoutlets" : 1,
					"outlettype" : [ "bang" ],
					"patching_rect" : [ 509.0, 706.0, 58.0, 22.0 ],
					"text" : "loadbang"
				}

			}
, 			{
				"box" : 				{
					"fontname" : "Futura Medium",
					"id" : "obj-47",
					"maxclass" : "comment",
					"numinlets" : 1,
					"numoutlets" : 0,
					"patching_rect" : [ -116.191046595573425, 476.5, 277.25, 22.0 ],
					"text" : "PRESENTATION MODE PANELS BENEATH",
					"textcolor" : [ 1.0, 1.0, 1.0, 1.0 ],
					"textjustification" : 1
				}

			}
, 			{
				"box" : 				{
					"id" : "obj-218",
					"maxclass" : "panel",
					"numinlets" : 1,
					"numoutlets" : 0,
					"patching_rect" : [ -184.875, 336.0, 426.0, 339.0 ]
				}

			}
, 			{
				"box" : 				{
					"fontname" : "Futura Medium",
					"fontsize" : 9.0,
					"id" : "obj-102",
					"linecount" : 5,
					"maxclass" : "comment",
					"numinlets" : 1,
					"numoutlets" : 0,
					"patching_rect" : [ 51.0, 525.0, 132.0, 65.0 ],
					"presentation" : 1,
					"presentation_linecount" : 5,
					"presentation_rect" : [ 157.0, 360.75, 68.0, 65.0 ],
					"text" : "MADE\nFOR\nSHITTY\n[SHYNTHY]\nNOISES",
					"textcolor" : [ 1.0, 1.0, 1.0, 1.0 ],
					"textjustification" : 1
				}

			}
, 			{
				"box" : 				{
					"angle" : 270.0,
					"bgcolor" : [ 0.094117647058824, 0.113725490196078, 0.137254901960784, 1.0 ],
					"id" : "obj-101",
					"maxclass" : "panel",
					"mode" : 0,
					"numinlets" : 1,
					"numoutlets" : 0,
					"patching_rect" : [ -101.5, 538.0, 128.0, 128.0 ],
					"presentation" : 1,
					"presentation_rect" : [ 152.0, 354.5, 78.0, 77.5 ],
					"proportion" : 0.5,
					"rounded" : 0
				}

			}
, 			{
				"box" : 				{
					"fontname" : "Futura Medium",
					"fontsize" : 8.0,
					"id" : "obj-48",
					"maxclass" : "comment",
					"numinlets" : 1,
					"numoutlets" : 0,
					"patching_rect" : [ 606.0, 407.0, 65.0, 17.0 ],
					"presentation" : 1,
					"presentation_rect" : [ 995.0, 330.0, 65.0, 17.0 ],
					"text" : "RESONANCE",
					"textjustification" : 1
				}

			}
, 			{
				"box" : 				{
					"bgcolor" : [ 0.094117647058824, 0.113725490196078, 0.137254901960784, 1.0 ],
					"elementcolor" : [ 0.094117647058824, 0.113725490196078, 0.137254901960784, 1.0 ],
					"floatoutput" : 1,
					"id" : "obj-42",
					"knobcolor" : [ 1.0, 1.0, 1.0, 1.0 ],
					"maxclass" : "slider",
					"numinlets" : 1,
					"numoutlets" : 1,
					"outlettype" : [ "" ],
					"parameter_enable" : 0,
					"patching_rect" : [ 609.0, 427.5, 58.5, 16.0 ],
					"presentation" : 1,
					"presentation_rect" : [ 975.0, 345.0, 104.0, 18.0 ],
					"size" : 1.0
				}

			}
, 			{
				"box" : 				{
					"fontname" : "Futura Medium",
					"fontsize" : 8.0,
					"id" : "obj-6",
					"maxclass" : "comment",
					"numinlets" : 1,
					"numoutlets" : 0,
					"patching_rect" : [ 342.75, 172.0, 110.0, 17.0 ],
					"presentation" : 1,
					"presentation_rect" : [ 1002.0, 373.0, 50.0, 17.0 ],
					"text" : "PRESETS",
					"textjustification" : 1
				}

			}
, 			{
				"box" : 				{
					"fontname" : "Futura Medium",
					"fontsize" : 8.0,
					"id" : "obj-11",
					"maxclass" : "comment",
					"numinlets" : 1,
					"numoutlets" : 0,
					"patching_rect" : [ -140.5, 478.0, 106.0, 17.0 ],
					"presentation" : 1,
					"presentation_rect" : [ 974.0, 383.0, 106.0, 17.0 ],
					"text" : "SHIFT-CLICK TO SAVE",
					"textjustification" : 1
				}

			}
, 			{
				"box" : 				{
					"active1" : [ 1.0, 1.0, 1.0, 1.0 ],
					"bgcolor" : [ 0.094117647058824, 0.113725490196078, 0.137254901960784, 1.0 ],
					"bubblesize" : 22,
					"fontname" : "Futura Medium",
					"id" : "obj-8",
					"maxclass" : "preset",
					"numinlets" : 1,
					"numoutlets" : 5,
					"outlettype" : [ "preset", "int", "preset", "int", "" ],
					"patching_rect" : [ 365.0, 199.0, 108.5, 39.0 ],
					"presentation" : 1,
					"presentation_rect" : [ 986.0, 399.0, 83.0, 31.0 ],
					"preset_data" : [ 						{
							"number" : 1,
							"data" : [ 6, "obj-2", "gain~", "list", 121, 10.0, 5, "obj-15", "kslider", "int", 48, 5, "obj-33", "umenu", "int", 2 ]
						}
, 						{
							"number" : 2,
							"data" : [ 6, "obj-2", "gain~", "list", 98, 10.0, 5, "obj-15", "kslider", "int", 48, 5, "obj-33", "umenu", "int", 3 ]
						}
, 						{
							"number" : 3,
							"data" : [ 6, "obj-2", "gain~", "list", 96, 10.0, 5, "obj-15", "kslider", "int", 48, 5, "obj-33", "umenu", "int", 4 ]
						}
 ],
					"textcolor" : [ 0.094117647058824, 0.113725490196078, 0.137254901960784, 1.0 ]
				}

			}
, 			{
				"box" : 				{
					"fontname" : "Futura Medium",
					"fontsize" : 8.0,
					"id" : "obj-7",
					"maxclass" : "comment",
					"numinlets" : 1,
					"numoutlets" : 0,
					"patching_rect" : [ 597.0, 603.0, 49.0, 17.0 ],
					"presentation" : 1,
					"presentation_rect" : [ 1002.0, 295.0, 49.0, 17.0 ],
					"text" : "VOLUME",
					"textjustification" : 1
				}

			}
, 			{
				"box" : 				{
					"bgcolor" : [ 0.094117647058824, 0.113725490196078, 0.137254901960784, 1.0 ],
					"id" : "obj-2",
					"knobcolor" : [ 1.0, 1.0, 1.0, 1.0 ],
					"maxclass" : "gain~",
					"multichannelvariant" : 0,
					"numinlets" : 1,
					"numoutlets" : 2,
					"outlettype" : [ "signal", "" ],
					"parameter_enable" : 0,
					"patching_rect" : [ 571.0, 545.0, 22.0, 140.0 ],
					"presentation" : 1,
					"presentation_rect" : [ 975.0, 311.0, 104.0, 18.0 ],
					"stripecolor" : [ 0.094117647058824, 0.113725490196078, 0.137254901960784, 1.0 ]
				}

			}
, 			{
				"box" : 				{
					"angle" : 270.0,
					"bordercolor" : [ 0.0, 0.0, 0.0, 1.0 ],
					"grad1" : [ 1.0, 1.0, 1.0, 1.0 ],
					"grad2" : [ 0.517647058823529, 0.517647058823529, 0.517647058823529, 1.0 ],
					"id" : "obj-99",
					"maxclass" : "panel",
					"mode" : 1,
					"numinlets" : 1,
					"numoutlets" : 0,
					"patching_rect" : [ -125.5, 483.5, 128.0, 128.0 ],
					"presentation" : 1,
					"presentation_rect" : [ 963.0, 285.0, 128.0, 157.0 ],
					"proportion" : 0.5,
					"rounded" : 10
				}

			}
, 			{
				"box" : 				{
					"fontname" : "Futura Medium",
					"fontsize" : 10.0,
					"id" : "obj-97",
					"maxclass" : "comment",
					"numinlets" : 1,
					"numoutlets" : 0,
					"patching_rect" : [ -59.0, 478.0, 143.0, 19.0 ],
					"presentation" : 1,
					"presentation_rect" : [ 124.0, 306.0, 134.0, 19.0 ],
					"text" : "MENU OPTIONS",
					"textjustification" : 1
				}

			}
, 			{
				"box" : 				{
					"fontname" : "Futura Medium",
					"id" : "obj-21",
					"maxclass" : "comment",
					"numinlets" : 1,
					"numoutlets" : 0,
					"patching_rect" : [ 387.25, 362.0, 153.0, 22.0 ],
					"presentation" : 1,
					"presentation_rect" : [ 145.0, 291.0, 92.0, 22.0 ],
					"text" : "WAVE TYPE",
					"textjustification" : 1
				}

			}
, 			{
				"box" : 				{
					"bgcolor" : [ 0.094117647058824, 0.113725490196078, 0.137254901960784, 1.0 ],
					"bgfillcolor_angle" : 270.0,
					"bgfillcolor_autogradient" : 0.0,
					"bgfillcolor_color" : [ 0.094117647058824, 0.113725490196078, 0.137254901960784, 1.0 ],
					"bgfillcolor_color1" : [ 0.094117647058824, 0.113725490196078, 0.137254901960784, 1.0 ],
					"bgfillcolor_color2" : [ 0.2, 0.2, 0.2, 1.0 ],
					"bgfillcolor_proportion" : 0.5,
					"bgfillcolor_type" : "color",
					"id" : "obj-33",
					"items" : [ "None", ",", "Sine", ",", "Triangle", ",", "Sawtooth", ",", "Square" ],
					"maxclass" : "umenu",
					"numinlets" : 1,
					"numoutlets" : 3,
					"outlettype" : [ "int", "", "" ],
					"parameter_enable" : 0,
					"patching_rect" : [ 404.5, 336.0, 125.0, 22.0 ],
					"presentation" : 1,
					"presentation_rect" : [ 152.0, 326.0, 78.0, 22.0 ]
				}

			}
, 			{
				"box" : 				{
					"fontname" : "Futura Medium",
					"fontsize" : 10.0,
					"id" : "obj-41",
					"maxclass" : "comment",
					"numinlets" : 1,
					"numoutlets" : 0,
					"patching_rect" : [ 15.0, 421.0, 143.0, 19.0 ],
					"presentation" : 1,
					"presentation_rect" : [ 222.0, 306.0, 134.0, 19.0 ],
					"text" : "CLICK TO CREATE",
					"textjustification" : 1
				}

			}
, 			{
				"box" : 				{
					"fontname" : "Futura Medium",
					"id" : "obj-27",
					"maxclass" : "comment",
					"numinlets" : 1,
					"numoutlets" : 0,
					"patching_rect" : [ 826.0, 281.0, 94.0, 22.0 ],
					"presentation" : 1,
					"presentation_rect" : [ 242.0, 291.0, 94.0, 22.0 ],
					"text" : "FUNCTION",
					"textjustification" : 1
				}

			}
, 			{
				"box" : 				{
					"addpoints" : [ 0.0, 0.66255130296872, 0, 244.681019732292668, 0.432098621203576, 0, 485.815778691717924, 1.0, 0, 897.163308681325702, 0.0, 0 ],
					"bgcolor" : [ 0.094117647058824, 0.113725490196078, 0.137254901960784, 1.0 ],
					"classic_curve" : 1,
					"id" : "obj-24",
					"linecolor" : [ 1.0, 1.0, 1.0, 1.0 ],
					"maxclass" : "function",
					"numinlets" : 1,
					"numoutlets" : 4,
					"outlettype" : [ "float", "", "", "bang" ],
					"parameter_enable" : 0,
					"patching_rect" : [ 803.0, 305.0, 117.0, 38.0 ],
					"presentation" : 1,
					"presentation_rect" : [ 237.0, 326.0, 106.0, 106.0 ]
				}

			}
, 			{
				"box" : 				{
					"angle" : 270.0,
					"bordercolor" : [ 0.0, 0.0, 0.0, 1.0 ],
					"grad1" : [ 1.0, 1.0, 1.0, 1.0 ],
					"grad2" : [ 0.517647058823529, 0.517647058823529, 0.517647058823529, 1.0 ],
					"id" : "obj-96",
					"maxclass" : "panel",
					"mode" : 1,
					"numinlets" : 1,
					"numoutlets" : 0,
					"patching_rect" : [ -125.5, 468.5, 128.0, 128.0 ],
					"presentation" : 1,
					"presentation_rect" : [ 137.0, 284.0, 228.0, 157.0 ],
					"proportion" : 0.5,
					"rounded" : 10
				}

			}
, 			{
				"box" : 				{
					"blackkeycolor" : [ 1.0, 1.0, 1.0, 1.0 ],
					"hkeycolor" : [ 0.537254901960784, 0.537254901960784, 0.537254901960784, 1.0 ],
					"id" : "obj-15",
					"maxclass" : "kslider",
					"numinlets" : 2,
					"numoutlets" : 2,
					"offset" : 27,
					"outlettype" : [ "int", "int" ],
					"parameter_enable" : 0,
					"patching_rect" : [ 570.0, 219.0, 350.0, 45.0 ],
					"presentation" : 1,
					"presentation_rect" : [ 103.0, 478.5, 1155.0, 133.0 ],
					"prototypename" : "M4L.black",
					"range" : 60,
					"selectioncolor" : [ 0.631372549019608, 0.631372549019608, 0.631372549019608, 1.0 ],
					"whitekeycolor" : [ 0.094117647058824, 0.113725490196078, 0.137254901960784, 1.0 ]
				}

			}
, 			{
				"box" : 				{
					"fontname" : "Futura Medium",
					"fontsize" : 8.0,
					"id" : "obj-88",
					"linecount" : 2,
					"maxclass" : "comment",
					"numinlets" : 1,
					"numoutlets" : 0,
					"patching_rect" : [ -125.5, 439.0, 105.0, 27.0 ],
					"presentation" : 1,
					"presentation_rect" : [ 813.0, 303.0, 130.0, 17.0 ],
					"text" : "ALL BY CROWN THE EMPIRE",
					"textjustification" : 1
				}

			}
, 			{
				"box" : 				{
					"fontname" : "Futura Medium",
					"fontsize" : 10.0,
					"id" : "obj-87",
					"maxclass" : "comment",
					"numinlets" : 1,
					"numoutlets" : 0,
					"patching_rect" : [ -125.5, 523.0, 131.0, 19.0 ],
					"presentation" : 1,
					"presentation_rect" : [ 860.0, 326.0, 50.554258942604065, 19.0 ],
					"text" : "TOGGLE"
				}

			}
, 			{
				"box" : 				{
					"active1" : [ 1.0, 1.0, 1.0, 1.0 ],
					"bgcolor" : [ 0.094117647058824, 0.113725490196078, 0.137254901960784, 1.0 ],
					"bubblesize" : 22,
					"fontname" : "Futura Medium",
					"fontsize" : 8.0,
					"id" : "obj-25",
					"maxclass" : "preset",
					"numinlets" : 1,
					"numoutlets" : 5,
					"outlettype" : [ "preset", "int", "preset", "int", "" ],
					"patching_rect" : [ 453.0, -78.0, 86.0, 33.0 ],
					"presentation" : 1,
					"presentation_rect" : [ 829.0, 349.0, 30.120483040809631, 82.53012353181839 ],
					"preset_data" : [ 						{
							"number" : 1,
							"data" : [ 5, "obj-158", "toggle", "int", 1, 5, "obj-64", "toggle", "int", 1, 5, "obj-67", "toggle", "int", 1, 5, "obj-70", "toggle", "int", 1, 5, "obj-73", "toggle", "int", 1, 5, "obj-76", "toggle", "int", 1, 5, "obj-79", "toggle", "int", 1, 5, "obj-82", "toggle", "int", 1, 5, "obj-162", "toggle", "int", 1, 5, "obj-52", "toggle", "int", 1, 5, "obj-55", "toggle", "int", 1, 5, "obj-58", "toggle", "int", 1, 5, "obj-166", "toggle", "int", 1, 5, "obj-169", "toggle", "int", 1, 5, "obj-172", "toggle", "int", 1, 5, "obj-13", "toggle", "int", 1, 5, "obj-161", "number", "int", 51, 5, "obj-177", "number", "int", 36, 5, "obj-46", "number", "int", 46, 5, "obj-178", "number", "int", 36, 5, "obj-179", "number", "int", 48, 5, "obj-49", "number", "int", 36, 5, "obj-180", "number", "int", 48, 5, "obj-181", "number", "int", 46, 5, "obj-182", "number", "int", 36, 5, "obj-183", "number", "int", 36, 5, "obj-184", "number", "int", 36, 5, "obj-185", "number", "int", 48, 5, "obj-186", "number", "int", 36, 5, "obj-187", "number", "int", 48, 5, "obj-188", "number", "int", 36, 5, "obj-189", "number", "int", 36 ]
						}
, 						{
							"number" : 2,
							"data" : [ 5, "obj-158", "toggle", "int", 1, 5, "obj-64", "toggle", "int", 1, 5, "obj-67", "toggle", "int", 1, 5, "obj-70", "toggle", "int", 1, 5, "obj-73", "toggle", "int", 1, 5, "obj-76", "toggle", "int", 1, 5, "obj-79", "toggle", "int", 1, 5, "obj-82", "toggle", "int", 1, 5, "obj-162", "toggle", "int", 1, 5, "obj-52", "toggle", "int", 1, 5, "obj-55", "toggle", "int", 1, 5, "obj-58", "toggle", "int", 1, 5, "obj-166", "toggle", "int", 1, 5, "obj-169", "toggle", "int", 1, 5, "obj-172", "toggle", "int", 1, 5, "obj-13", "toggle", "int", 1, 5, "obj-161", "number", "int", 46, 5, "obj-177", "number", "int", 46, 5, "obj-46", "number", "int", 46, 5, "obj-178", "number", "int", 46, 5, "obj-179", "number", "int", 44, 5, "obj-49", "number", "int", 34, 5, "obj-180", "number", "int", 34, 5, "obj-181", "number", "int", 34, 5, "obj-182", "number", "int", 46, 5, "obj-183", "number", "int", 46, 5, "obj-184", "number", "int", 46, 5, "obj-185", "number", "int", 46, 5, "obj-186", "number", "int", 44, 5, "obj-187", "number", "int", 34, 5, "obj-188", "number", "int", 34, 5, "obj-189", "number", "int", 34 ]
						}
, 						{
							"number" : 3,
							"data" : [ 5, "obj-158", "toggle", "int", 1, 5, "obj-64", "toggle", "int", 1, 5, "obj-67", "toggle", "int", 1, 5, "obj-70", "toggle", "int", 1, 5, "obj-73", "toggle", "int", 1, 5, "obj-76", "toggle", "int", 1, 5, "obj-79", "toggle", "int", 1, 5, "obj-82", "toggle", "int", 0, 5, "obj-162", "toggle", "int", 1, 5, "obj-52", "toggle", "int", 1, 5, "obj-55", "toggle", "int", 1, 5, "obj-58", "toggle", "int", 1, 5, "obj-166", "toggle", "int", 1, 5, "obj-169", "toggle", "int", 1, 5, "obj-172", "toggle", "int", 1, 5, "obj-13", "toggle", "int", 1, 5, "obj-161", "number", "int", 37, 5, "obj-177", "number", "int", 37, 5, "obj-46", "number", "int", 37, 5, "obj-178", "number", "int", 37, 5, "obj-179", "number", "int", 37, 5, "obj-49", "number", "int", 37, 5, "obj-180", "number", "int", 37, 5, "obj-181", "number", "int", 0, 5, "obj-182", "number", "int", 49, 5, "obj-183", "number", "int", 50, 5, "obj-184", "number", "int", 47, 5, "obj-185", "number", "int", 49, 5, "obj-186", "number", "int", 49, 5, "obj-187", "number", "int", 49, 5, "obj-188", "number", "int", 49, 5, "obj-189", "number", "int", 49 ]
						}
 ]
				}

			}
, 			{
				"box" : 				{
					"fontface" : 1,
					"fontname" : "Futura Medium",
					"fontsize" : 10.0,
					"id" : "obj-423",
					"maxclass" : "comment",
					"numinlets" : 1,
					"numoutlets" : 0,
					"patching_rect" : [ -110.5, 538.0, 146.0, 19.0 ],
					"presentation" : 1,
					"presentation_rect" : [ 861.0, 409.0, 77.0, 19.0 ],
					"text" : "RED PILLS"
				}

			}
, 			{
				"box" : 				{
					"fontface" : 1,
					"fontname" : "Futura Medium",
					"fontsize" : 10.0,
					"id" : "obj-149",
					"maxclass" : "comment",
					"numinlets" : 1,
					"numoutlets" : 0,
					"patching_rect" : [ -125.5, 523.0, 136.0, 19.0 ],
					"presentation" : 1,
					"presentation_rect" : [ 861.0, 383.0, 72.0, 19.0 ],
					"text" : "SEQU3NCE"
				}

			}
, 			{
				"box" : 				{
					"id" : "obj-32",
					"maxclass" : "message",
					"numinlets" : 2,
					"numoutlets" : 1,
					"outlettype" : [ "" ],
					"patching_rect" : [ 453.0, -108.0, 29.5, 22.0 ],
					"text" : "1"
				}

			}
, 			{
				"box" : 				{
					"id" : "obj-14",
					"maxclass" : "newobj",
					"numinlets" : 1,
					"numoutlets" : 1,
					"outlettype" : [ "bang" ],
					"patching_rect" : [ 453.0, -135.0, 58.0, 22.0 ],
					"text" : "loadbang"
				}

			}
, 			{
				"box" : 				{
					"bgcolor" : [ 0.094117647058824, 0.113725490196078, 0.137254901960784, 1.0 ],
					"checkedcolor" : [ 1.0, 1.0, 1.0, 1.0 ],
					"id" : "obj-212",
					"maxclass" : "toggle",
					"numinlets" : 1,
					"numoutlets" : 1,
					"outlettype" : [ "int" ],
					"parameter_enable" : 0,
					"patching_rect" : [ -140.5, 423.0, 24.0, 24.0 ],
					"thickness" : 25.0
				}

			}
, 			{
				"box" : 				{
					"fontface" : 1,
					"fontname" : "Futura Medium",
					"fontsize" : 10.0,
					"id" : "obj-210",
					"maxclass" : "comment",
					"numinlets" : 1,
					"numoutlets" : 0,
					"patching_rect" : [ -140.5, 508.0, 142.0, 19.0 ],
					"presentation" : 1,
					"presentation_rect" : [ 861.0, 355.0, 49.0, 19.0 ],
					"text" : "20/20"
				}

			}
, 			{
				"box" : 				{
					"fontname" : "Futura Medium",
					"id" : "obj-208",
					"maxclass" : "comment",
					"numinlets" : 1,
					"numoutlets" : 0,
					"patching_rect" : [ -140.5, 424.0, 153.0, 22.0 ],
					"presentation" : 1,
					"presentation_rect" : [ 801.0, 288.0, 153.0, 22.0 ],
					"text" : "PRESET MELODIES",
					"textjustification" : 1
				}

			}
, 			{
				"box" : 				{
					"bgcolor" : [ 0.094117647058824, 0.113725490196078, 0.137254901960784, 1.0 ],
					"checkedcolor" : [ 1.0, 1.0, 1.0, 1.0 ],
					"id" : "obj-194",
					"maxclass" : "toggle",
					"numinlets" : 1,
					"numoutlets" : 1,
					"outlettype" : [ "int" ],
					"parameter_enable" : 0,
					"patching_rect" : [ 570.0, -266.0, 24.0, 24.0 ],
					"presentation" : 1,
					"presentation_rect" : [ 829.0, 320.0, 30.120483040809631, 30.120483040809631 ],
					"thickness" : 25.0
				}

			}
, 			{
				"box" : 				{
					"angle" : 270.0,
					"bordercolor" : [ 0.0, 0.0, 0.0, 1.0 ],
					"grad1" : [ 1.0, 1.0, 1.0, 1.0 ],
					"grad2" : [ 0.517647058823529, 0.517647058823529, 0.517647058823529, 1.0 ],
					"id" : "obj-205",
					"maxclass" : "panel",
					"mode" : 1,
					"numinlets" : 1,
					"numoutlets" : 0,
					"patching_rect" : [ -140.5, 468.5, 128.0, 128.0 ],
					"presentation" : 1,
					"presentation_rect" : [ 814.0, 285.0, 127.0, 157.0 ],
					"proportion" : 0.5,
					"rounded" : 10
				}

			}
, 			{
				"box" : 				{
					"id" : "obj-158",
					"maxclass" : "toggle",
					"numinlets" : 1,
					"numoutlets" : 1,
					"outlettype" : [ "int" ],
					"parameter_enable" : 0,
					"patching_rect" : [ 1340.0, -17.0, 24.0, 24.0 ]
				}

			}
, 			{
				"box" : 				{
					"id" : "obj-159",
					"maxclass" : "button",
					"numinlets" : 1,
					"numoutlets" : 1,
					"outlettype" : [ "bang" ],
					"parameter_enable" : 0,
					"patching_rect" : [ 1350.0, 66.0, 24.0, 24.0 ]
				}

			}
, 			{
				"box" : 				{
					"fontsize" : 12.0,
					"id" : "obj-160",
					"maxclass" : "newobj",
					"numinlets" : 2,
					"numoutlets" : 1,
					"outlettype" : [ "" ],
					"patching_rect" : [ 1350.0, 28.0, 32.0, 22.0 ],
					"text" : "gate"
				}

			}
, 			{
				"box" : 				{
					"fontsize" : 12.0,
					"id" : "obj-161",
					"maxclass" : "number",
					"numinlets" : 1,
					"numoutlets" : 2,
					"outlettype" : [ "", "bang" ],
					"parameter_enable" : 0,
					"patching_rect" : [ 1350.0, 106.0, 50.0, 22.0 ]
				}

			}
, 			{
				"box" : 				{
					"id" : "obj-64",
					"maxclass" : "toggle",
					"numinlets" : 1,
					"numoutlets" : 1,
					"outlettype" : [ "int" ],
					"parameter_enable" : 0,
					"patching_rect" : [ 1289.0, -17.0, 24.0, 24.0 ]
				}

			}
, 			{
				"box" : 				{
					"id" : "obj-65",
					"maxclass" : "button",
					"numinlets" : 1,
					"numoutlets" : 1,
					"outlettype" : [ "bang" ],
					"parameter_enable" : 0,
					"patching_rect" : [ 1298.0, 66.0, 24.0, 24.0 ]
				}

			}
, 			{
				"box" : 				{
					"fontsize" : 12.0,
					"id" : "obj-66",
					"maxclass" : "newobj",
					"numinlets" : 2,
					"numoutlets" : 1,
					"outlettype" : [ "" ],
					"patching_rect" : [ 1298.0, 28.0, 32.0, 22.0 ],
					"text" : "gate"
				}

			}
, 			{
				"box" : 				{
					"id" : "obj-67",
					"maxclass" : "toggle",
					"numinlets" : 1,
					"numoutlets" : 1,
					"outlettype" : [ "int" ],
					"parameter_enable" : 0,
					"patching_rect" : [ 1237.0, -17.0, 24.0, 24.0 ]
				}

			}
, 			{
				"box" : 				{
					"id" : "obj-68",
					"maxclass" : "button",
					"numinlets" : 1,
					"numoutlets" : 1,
					"outlettype" : [ "bang" ],
					"parameter_enable" : 0,
					"patching_rect" : [ 1246.0, 66.0, 24.0, 24.0 ]
				}

			}
, 			{
				"box" : 				{
					"fontsize" : 12.0,
					"id" : "obj-69",
					"maxclass" : "newobj",
					"numinlets" : 2,
					"numoutlets" : 1,
					"outlettype" : [ "" ],
					"patching_rect" : [ 1246.0, 28.0, 32.0, 22.0 ],
					"text" : "gate"
				}

			}
, 			{
				"box" : 				{
					"id" : "obj-70",
					"maxclass" : "toggle",
					"numinlets" : 1,
					"numoutlets" : 1,
					"outlettype" : [ "int" ],
					"parameter_enable" : 0,
					"patching_rect" : [ 1183.0, -17.0, 24.0, 24.0 ]
				}

			}
, 			{
				"box" : 				{
					"id" : "obj-71",
					"maxclass" : "button",
					"numinlets" : 1,
					"numoutlets" : 1,
					"outlettype" : [ "bang" ],
					"parameter_enable" : 0,
					"patching_rect" : [ 1194.0, 66.0, 24.0, 24.0 ]
				}

			}
, 			{
				"box" : 				{
					"fontsize" : 12.0,
					"id" : "obj-72",
					"maxclass" : "newobj",
					"numinlets" : 2,
					"numoutlets" : 1,
					"outlettype" : [ "" ],
					"patching_rect" : [ 1194.0, 28.0, 32.0, 22.0 ],
					"text" : "gate"
				}

			}
, 			{
				"box" : 				{
					"id" : "obj-73",
					"maxclass" : "toggle",
					"numinlets" : 1,
					"numoutlets" : 1,
					"outlettype" : [ "int" ],
					"parameter_enable" : 0,
					"patching_rect" : [ 1129.0, -17.0, 24.0, 24.0 ]
				}

			}
, 			{
				"box" : 				{
					"id" : "obj-74",
					"maxclass" : "button",
					"numinlets" : 1,
					"numoutlets" : 1,
					"outlettype" : [ "bang" ],
					"parameter_enable" : 0,
					"patching_rect" : [ 1142.0, 66.0, 24.0, 24.0 ]
				}

			}
, 			{
				"box" : 				{
					"fontsize" : 12.0,
					"id" : "obj-75",
					"maxclass" : "newobj",
					"numinlets" : 2,
					"numoutlets" : 1,
					"outlettype" : [ "" ],
					"patching_rect" : [ 1142.0, 28.0, 32.0, 22.0 ],
					"text" : "gate"
				}

			}
, 			{
				"box" : 				{
					"id" : "obj-76",
					"maxclass" : "toggle",
					"numinlets" : 1,
					"numoutlets" : 1,
					"outlettype" : [ "int" ],
					"parameter_enable" : 0,
					"patching_rect" : [ 1078.0, -17.0, 24.0, 24.0 ]
				}

			}
, 			{
				"box" : 				{
					"id" : "obj-77",
					"maxclass" : "button",
					"numinlets" : 1,
					"numoutlets" : 1,
					"outlettype" : [ "bang" ],
					"parameter_enable" : 0,
					"patching_rect" : [ 1090.0, 66.0, 24.0, 24.0 ]
				}

			}
, 			{
				"box" : 				{
					"fontsize" : 12.0,
					"id" : "obj-78",
					"maxclass" : "newobj",
					"numinlets" : 2,
					"numoutlets" : 1,
					"outlettype" : [ "" ],
					"patching_rect" : [ 1090.0, 28.0, 32.0, 22.0 ],
					"text" : "gate"
				}

			}
, 			{
				"box" : 				{
					"id" : "obj-79",
					"maxclass" : "toggle",
					"numinlets" : 1,
					"numoutlets" : 1,
					"outlettype" : [ "int" ],
					"parameter_enable" : 0,
					"patching_rect" : [ 1029.0, -17.0, 24.0, 24.0 ]
				}

			}
, 			{
				"box" : 				{
					"id" : "obj-80",
					"maxclass" : "button",
					"numinlets" : 1,
					"numoutlets" : 1,
					"outlettype" : [ "bang" ],
					"parameter_enable" : 0,
					"patching_rect" : [ 1038.0, 66.0, 24.0, 24.0 ]
				}

			}
, 			{
				"box" : 				{
					"fontsize" : 12.0,
					"id" : "obj-81",
					"maxclass" : "newobj",
					"numinlets" : 2,
					"numoutlets" : 1,
					"outlettype" : [ "" ],
					"patching_rect" : [ 1038.0, 28.0, 32.0, 22.0 ],
					"text" : "gate"
				}

			}
, 			{
				"box" : 				{
					"id" : "obj-82",
					"maxclass" : "toggle",
					"numinlets" : 1,
					"numoutlets" : 1,
					"outlettype" : [ "int" ],
					"parameter_enable" : 0,
					"patching_rect" : [ 978.0, -17.0, 24.0, 24.0 ]
				}

			}
, 			{
				"box" : 				{
					"id" : "obj-83",
					"maxclass" : "button",
					"numinlets" : 1,
					"numoutlets" : 1,
					"outlettype" : [ "bang" ],
					"parameter_enable" : 0,
					"patching_rect" : [ 986.0, 66.0, 24.0, 24.0 ]
				}

			}
, 			{
				"box" : 				{
					"fontsize" : 12.0,
					"id" : "obj-84",
					"maxclass" : "newobj",
					"numinlets" : 2,
					"numoutlets" : 1,
					"outlettype" : [ "" ],
					"patching_rect" : [ 986.0, 28.0, 32.0, 22.0 ],
					"text" : "gate"
				}

			}
, 			{
				"box" : 				{
					"id" : "obj-162",
					"maxclass" : "toggle",
					"numinlets" : 1,
					"numoutlets" : 1,
					"outlettype" : [ "int" ],
					"parameter_enable" : 0,
					"patching_rect" : [ 925.0, -17.0, 24.0, 24.0 ]
				}

			}
, 			{
				"box" : 				{
					"id" : "obj-163",
					"maxclass" : "button",
					"numinlets" : 1,
					"numoutlets" : 1,
					"outlettype" : [ "bang" ],
					"parameter_enable" : 0,
					"patching_rect" : [ 934.0, 66.0, 24.0, 24.0 ]
				}

			}
, 			{
				"box" : 				{
					"fontsize" : 12.0,
					"id" : "obj-164",
					"maxclass" : "newobj",
					"numinlets" : 2,
					"numoutlets" : 1,
					"outlettype" : [ "" ],
					"patching_rect" : [ 934.0, 28.0, 32.0, 22.0 ],
					"text" : "gate"
				}

			}
, 			{
				"box" : 				{
					"id" : "obj-52",
					"maxclass" : "toggle",
					"numinlets" : 1,
					"numoutlets" : 1,
					"outlettype" : [ "int" ],
					"parameter_enable" : 0,
					"patching_rect" : [ 874.0, -17.0, 24.0, 24.0 ]
				}

			}
, 			{
				"box" : 				{
					"id" : "obj-165",
					"maxclass" : "button",
					"numinlets" : 1,
					"numoutlets" : 1,
					"outlettype" : [ "bang" ],
					"parameter_enable" : 0,
					"patching_rect" : [ 882.0, 66.0, 24.0, 24.0 ]
				}

			}
, 			{
				"box" : 				{
					"fontsize" : 12.0,
					"id" : "obj-54",
					"maxclass" : "newobj",
					"numinlets" : 2,
					"numoutlets" : 1,
					"outlettype" : [ "" ],
					"patching_rect" : [ 882.0, 28.0, 32.0, 22.0 ],
					"text" : "gate"
				}

			}
, 			{
				"box" : 				{
					"id" : "obj-55",
					"maxclass" : "toggle",
					"numinlets" : 1,
					"numoutlets" : 1,
					"outlettype" : [ "int" ],
					"parameter_enable" : 0,
					"patching_rect" : [ 819.0, -17.0, 24.0, 24.0 ]
				}

			}
, 			{
				"box" : 				{
					"id" : "obj-56",
					"maxclass" : "button",
					"numinlets" : 1,
					"numoutlets" : 1,
					"outlettype" : [ "bang" ],
					"parameter_enable" : 0,
					"patching_rect" : [ 830.0, 66.0, 24.0, 24.0 ]
				}

			}
, 			{
				"box" : 				{
					"fontsize" : 12.0,
					"id" : "obj-57",
					"maxclass" : "newobj",
					"numinlets" : 2,
					"numoutlets" : 1,
					"outlettype" : [ "" ],
					"patching_rect" : [ 830.0, 28.0, 32.0, 22.0 ],
					"text" : "gate"
				}

			}
, 			{
				"box" : 				{
					"id" : "obj-58",
					"maxclass" : "toggle",
					"numinlets" : 1,
					"numoutlets" : 1,
					"outlettype" : [ "int" ],
					"parameter_enable" : 0,
					"patching_rect" : [ 769.0, -17.0, 24.0, 24.0 ]
				}

			}
, 			{
				"box" : 				{
					"id" : "obj-59",
					"maxclass" : "button",
					"numinlets" : 1,
					"numoutlets" : 1,
					"outlettype" : [ "bang" ],
					"parameter_enable" : 0,
					"patching_rect" : [ 778.0, 66.0, 24.0, 24.0 ]
				}

			}
, 			{
				"box" : 				{
					"fontsize" : 12.0,
					"id" : "obj-60",
					"maxclass" : "newobj",
					"numinlets" : 2,
					"numoutlets" : 1,
					"outlettype" : [ "" ],
					"patching_rect" : [ 778.0, 28.0, 32.0, 22.0 ],
					"text" : "gate"
				}

			}
, 			{
				"box" : 				{
					"id" : "obj-166",
					"maxclass" : "toggle",
					"numinlets" : 1,
					"numoutlets" : 1,
					"outlettype" : [ "int" ],
					"parameter_enable" : 0,
					"patching_rect" : [ 719.0, -17.0, 24.0, 24.0 ]
				}

			}
, 			{
				"box" : 				{
					"id" : "obj-167",
					"maxclass" : "button",
					"numinlets" : 1,
					"numoutlets" : 1,
					"outlettype" : [ "bang" ],
					"parameter_enable" : 0,
					"patching_rect" : [ 726.0, 66.0, 24.0, 24.0 ]
				}

			}
, 			{
				"box" : 				{
					"fontsize" : 12.0,
					"id" : "obj-168",
					"maxclass" : "newobj",
					"numinlets" : 2,
					"numoutlets" : 1,
					"outlettype" : [ "" ],
					"patching_rect" : [ 726.0, 28.0, 32.0, 22.0 ],
					"text" : "gate"
				}

			}
, 			{
				"box" : 				{
					"id" : "obj-169",
					"maxclass" : "toggle",
					"numinlets" : 1,
					"numoutlets" : 1,
					"outlettype" : [ "int" ],
					"parameter_enable" : 0,
					"patching_rect" : [ 668.0, -17.0, 24.0, 24.0 ]
				}

			}
, 			{
				"box" : 				{
					"id" : "obj-170",
					"maxclass" : "button",
					"numinlets" : 1,
					"numoutlets" : 1,
					"outlettype" : [ "bang" ],
					"parameter_enable" : 0,
					"patching_rect" : [ 674.0, 66.0, 24.0, 24.0 ]
				}

			}
, 			{
				"box" : 				{
					"fontsize" : 12.0,
					"id" : "obj-171",
					"maxclass" : "newobj",
					"numinlets" : 2,
					"numoutlets" : 1,
					"outlettype" : [ "" ],
					"patching_rect" : [ 674.0, 28.0, 32.0, 22.0 ],
					"text" : "gate"
				}

			}
, 			{
				"box" : 				{
					"id" : "obj-172",
					"maxclass" : "toggle",
					"numinlets" : 1,
					"numoutlets" : 1,
					"outlettype" : [ "int" ],
					"parameter_enable" : 0,
					"patching_rect" : [ 613.0, -17.0, 24.0, 24.0 ]
				}

			}
, 			{
				"box" : 				{
					"id" : "obj-173",
					"maxclass" : "button",
					"numinlets" : 1,
					"numoutlets" : 1,
					"outlettype" : [ "bang" ],
					"parameter_enable" : 0,
					"patching_rect" : [ 622.0, 66.0, 24.0, 24.0 ]
				}

			}
, 			{
				"box" : 				{
					"fontsize" : 12.0,
					"id" : "obj-174",
					"maxclass" : "newobj",
					"numinlets" : 2,
					"numoutlets" : 1,
					"outlettype" : [ "" ],
					"patching_rect" : [ 622.0, 28.0, 32.0, 22.0 ],
					"text" : "gate"
				}

			}
, 			{
				"box" : 				{
					"id" : "obj-13",
					"maxclass" : "toggle",
					"numinlets" : 1,
					"numoutlets" : 1,
					"outlettype" : [ "int" ],
					"parameter_enable" : 0,
					"patching_rect" : [ 562.0, -17.0, 24.0, 24.0 ]
				}

			}
, 			{
				"box" : 				{
					"id" : "obj-175",
					"maxclass" : "button",
					"numinlets" : 1,
					"numoutlets" : 1,
					"outlettype" : [ "bang" ],
					"parameter_enable" : 0,
					"patching_rect" : [ 570.0, 66.0, 24.0, 24.0 ]
				}

			}
, 			{
				"box" : 				{
					"fontsize" : 12.0,
					"id" : "obj-176",
					"maxclass" : "newobj",
					"numinlets" : 2,
					"numoutlets" : 1,
					"outlettype" : [ "" ],
					"patching_rect" : [ 570.0, 28.0, 32.0, 22.0 ],
					"text" : "gate"
				}

			}
, 			{
				"box" : 				{
					"fontsize" : 12.0,
					"id" : "obj-177",
					"maxclass" : "number",
					"numinlets" : 1,
					"numoutlets" : 2,
					"outlettype" : [ "", "bang" ],
					"parameter_enable" : 0,
					"patching_rect" : [ 1298.0, 106.0, 50.0, 22.0 ]
				}

			}
, 			{
				"box" : 				{
					"fontsize" : 12.0,
					"id" : "obj-46",
					"maxclass" : "number",
					"numinlets" : 1,
					"numoutlets" : 2,
					"outlettype" : [ "", "bang" ],
					"parameter_enable" : 0,
					"patching_rect" : [ 1246.0, 106.0, 50.0, 22.0 ]
				}

			}
, 			{
				"box" : 				{
					"fontsize" : 12.0,
					"id" : "obj-178",
					"maxclass" : "number",
					"numinlets" : 1,
					"numoutlets" : 2,
					"outlettype" : [ "", "bang" ],
					"parameter_enable" : 0,
					"patching_rect" : [ 1194.0, 106.0, 50.0, 22.0 ]
				}

			}
, 			{
				"box" : 				{
					"fontsize" : 12.0,
					"id" : "obj-179",
					"maxclass" : "number",
					"numinlets" : 1,
					"numoutlets" : 2,
					"outlettype" : [ "", "bang" ],
					"parameter_enable" : 0,
					"patching_rect" : [ 1142.0, 106.0, 50.0, 22.0 ]
				}

			}
, 			{
				"box" : 				{
					"fontsize" : 12.0,
					"id" : "obj-49",
					"maxclass" : "number",
					"numinlets" : 1,
					"numoutlets" : 2,
					"outlettype" : [ "", "bang" ],
					"parameter_enable" : 0,
					"patching_rect" : [ 1090.0, 106.0, 50.0, 22.0 ]
				}

			}
, 			{
				"box" : 				{
					"fontsize" : 12.0,
					"id" : "obj-180",
					"maxclass" : "number",
					"numinlets" : 1,
					"numoutlets" : 2,
					"outlettype" : [ "", "bang" ],
					"parameter_enable" : 0,
					"patching_rect" : [ 1038.0, 106.0, 50.0, 22.0 ]
				}

			}
, 			{
				"box" : 				{
					"fontsize" : 12.0,
					"id" : "obj-181",
					"maxclass" : "number",
					"numinlets" : 1,
					"numoutlets" : 2,
					"outlettype" : [ "", "bang" ],
					"parameter_enable" : 0,
					"patching_rect" : [ 986.0, 106.0, 50.0, 22.0 ]
				}

			}
, 			{
				"box" : 				{
					"fontsize" : 12.0,
					"id" : "obj-182",
					"maxclass" : "number",
					"numinlets" : 1,
					"numoutlets" : 2,
					"outlettype" : [ "", "bang" ],
					"parameter_enable" : 0,
					"patching_rect" : [ 934.0, 106.0, 50.0, 22.0 ]
				}

			}
, 			{
				"box" : 				{
					"fontsize" : 12.0,
					"id" : "obj-183",
					"maxclass" : "number",
					"numinlets" : 1,
					"numoutlets" : 2,
					"outlettype" : [ "", "bang" ],
					"parameter_enable" : 0,
					"patching_rect" : [ 882.0, 106.0, 50.0, 22.0 ]
				}

			}
, 			{
				"box" : 				{
					"fontsize" : 12.0,
					"id" : "obj-184",
					"maxclass" : "number",
					"numinlets" : 1,
					"numoutlets" : 2,
					"outlettype" : [ "", "bang" ],
					"parameter_enable" : 0,
					"patching_rect" : [ 830.0, 106.0, 50.0, 22.0 ]
				}

			}
, 			{
				"box" : 				{
					"fontsize" : 12.0,
					"id" : "obj-185",
					"maxclass" : "number",
					"numinlets" : 1,
					"numoutlets" : 2,
					"outlettype" : [ "", "bang" ],
					"parameter_enable" : 0,
					"patching_rect" : [ 778.0, 106.0, 50.0, 22.0 ]
				}

			}
, 			{
				"box" : 				{
					"fontsize" : 12.0,
					"id" : "obj-186",
					"maxclass" : "number",
					"numinlets" : 1,
					"numoutlets" : 2,
					"outlettype" : [ "", "bang" ],
					"parameter_enable" : 0,
					"patching_rect" : [ 726.0, 106.0, 50.0, 22.0 ]
				}

			}
, 			{
				"box" : 				{
					"fontsize" : 12.0,
					"id" : "obj-187",
					"maxclass" : "number",
					"numinlets" : 1,
					"numoutlets" : 2,
					"outlettype" : [ "", "bang" ],
					"parameter_enable" : 0,
					"patching_rect" : [ 674.0, 106.0, 50.0, 22.0 ]
				}

			}
, 			{
				"box" : 				{
					"fontsize" : 12.0,
					"id" : "obj-188",
					"maxclass" : "number",
					"numinlets" : 1,
					"numoutlets" : 2,
					"outlettype" : [ "", "bang" ],
					"parameter_enable" : 0,
					"patching_rect" : [ 622.0, 106.0, 50.0, 22.0 ]
				}

			}
, 			{
				"box" : 				{
					"fontsize" : 12.0,
					"id" : "obj-189",
					"maxclass" : "number",
					"numinlets" : 1,
					"numoutlets" : 2,
					"outlettype" : [ "", "bang" ],
					"parameter_enable" : 0,
					"patching_rect" : [ 570.0, 106.0, 50.0, 22.0 ]
				}

			}
, 			{
				"box" : 				{
					"fontsize" : 12.0,
					"id" : "obj-190",
					"maxclass" : "newobj",
					"numinlets" : 16,
					"numoutlets" : 16,
					"outlettype" : [ "bang", "bang", "bang", "bang", "bang", "bang", "bang", "bang", "bang", "bang", "bang", "bang", "bang", "bang", "bang", "" ],
					"patching_rect" : [ 570.0, -108.0, 213.0, 22.0 ],
					"text" : "sel 1 2 3 4 5 6 7 8 9 10 11 12 13 14 15"
				}

			}
, 			{
				"box" : 				{
					"fontsize" : 12.0,
					"id" : "obj-192",
					"maxclass" : "newobj",
					"numinlets" : 5,
					"numoutlets" : 4,
					"outlettype" : [ "int", "", "", "int" ],
					"patching_rect" : [ 570.0, -149.0, 75.0, 22.0 ],
					"text" : "counter 1 16"
				}

			}
, 			{
				"box" : 				{
					"id" : "obj-193",
					"maxclass" : "button",
					"numinlets" : 1,
					"numoutlets" : 1,
					"outlettype" : [ "bang" ],
					"parameter_enable" : 0,
					"patching_rect" : [ 570.0, -190.0, 24.0, 24.0 ]
				}

			}
, 			{
				"box" : 				{
					"fontsize" : 12.0,
					"id" : "obj-195",
					"maxclass" : "newobj",
					"numinlets" : 2,
					"numoutlets" : 1,
					"outlettype" : [ "bang" ],
					"patching_rect" : [ 570.0, -228.0, 69.0, 22.0 ],
					"text" : "qmetro 160"
				}

			}
, 			{
				"box" : 				{
					"fontface" : 2,
					"fontname" : "Futura Medium",
					"fontsize" : 12.0,
					"id" : "obj-53",
					"maxclass" : "comment",
					"numinlets" : 0,
					"numoutlets" : 0,
					"patching_rect" : [ -140.5, 455.5, 172.0, 22.0 ],
					"presentation" : 1,
					"presentation_rect" : [ 1141.0, 344.0, 65.0, 22.0 ],
					"suppressinlet" : 1,
					"text" : "SHYNTH",
					"textcolor" : [ 1.0, 1.0, 1.0, 1.0 ],
					"textjustification" : 1
				}

			}
, 			{
				"box" : 				{
					"fontname" : "Futura Medium",
					"fontsize" : 10.0,
					"id" : "obj-22",
					"maxclass" : "comment",
					"numinlets" : 1,
					"numoutlets" : 0,
					"patching_rect" : [ -140.5, 602.5, 143.0, 19.0 ],
					"presentation" : 1,
					"presentation_rect" : [ 672.0, 307.0, 90.5, 19.0 ],
					"text" : "EXACTO-GRAPH",
					"textjustification" : 1
				}

			}
, 			{
				"box" : 				{
					"fontname" : "Futura Medium",
					"fontsize" : 10.0,
					"id" : "obj-18",
					"maxclass" : "comment",
					"numinlets" : 1,
					"numoutlets" : 0,
					"patching_rect" : [ -140.5, 585.5, 143.0, 19.0 ],
					"presentation" : 1,
					"presentation_rect" : [ 536.0, 307.0, 102.0, 19.0 ],
					"text" : "SPECTROSCOPE",
					"textjustification" : 1
				}

			}
, 			{
				"box" : 				{
					"fontname" : "Futura Medium",
					"fontsize" : 10.0,
					"id" : "obj-16",
					"maxclass" : "comment",
					"numinlets" : 1,
					"numoutlets" : 0,
					"patching_rect" : [ -140.5, 623.5, 143.0, 19.0 ],
					"presentation" : 1,
					"presentation_rect" : [ 419.0, 307.0, 83.0, 19.0 ],
					"text" : "LOOSE SCOPE",
					"textjustification" : 1
				}

			}
, 			{
				"box" : 				{
					"bgcolor" : [ 0.094117647058824, 0.113725490196078, 0.137254901960784, 1.0 ],
					"bufsize" : 8,
					"fgcolor" : [ 1.0, 1.0, 1.0, 1.0 ],
					"id" : "obj-9",
					"maxclass" : "scope~",
					"numinlets" : 2,
					"numoutlets" : 0,
					"patching_rect" : [ 792.5, 693.5, 130.0, 130.0 ],
					"presentation" : 1,
					"presentation_rect" : [ 663.0, 325.0, 111.0, 107.0 ]
				}

			}
, 			{
				"box" : 				{
					"fontname" : "Futura Medium",
					"id" : "obj-31",
					"maxclass" : "comment",
					"numinlets" : 1,
					"numoutlets" : 0,
					"patching_rect" : [ 781.0, 525.0, 153.0, 22.0 ],
					"presentation" : 1,
					"presentation_rect" : [ 508.0, 292.0, 153.0, 22.0 ],
					"text" : "OUTPUT GRAPHS",
					"textjustification" : 1
				}

			}
, 			{
				"box" : 				{
					"fontname" : "Futura Medium",
					"id" : "obj-45",
					"linecount" : 2,
					"maxclass" : "comment",
					"numinlets" : 1,
					"numoutlets" : 0,
					"patching_rect" : [ 382.916666666666629, 640.0, 89.0, 38.0 ],
					"text" : "SIGNAL MULTIPLIER",
					"textjustification" : 1
				}

			}
, 			{
				"box" : 				{
					"id" : "obj-39",
					"maxclass" : "newobj",
					"numinlets" : 2,
					"numoutlets" : 1,
					"outlettype" : [ "signal" ],
					"patching_rect" : [ 412.666666666666629, 603.0, 29.5, 22.0 ],
					"text" : "*~"
				}

			}
, 			{
				"box" : 				{
					"id" : "obj-29",
					"maxclass" : "newobj",
					"numinlets" : 2,
					"numoutlets" : 2,
					"outlettype" : [ "signal", "bang" ],
					"patching_rect" : [ 835.666666666666629, 352.0, 34.0, 22.0 ],
					"text" : "line~"
				}

			}
, 			{
				"box" : 				{
					"id" : "obj-23",
					"maxclass" : "button",
					"numinlets" : 1,
					"numoutlets" : 1,
					"outlettype" : [ "bang" ],
					"parameter_enable" : 0,
					"patching_rect" : [ 803.0, 272.0, 24.0, 24.0 ]
				}

			}
, 			{
				"box" : 				{
					"id" : "obj-51",
					"maxclass" : "newobj",
					"numinlets" : 1,
					"numoutlets" : 1,
					"outlettype" : [ "bang" ],
					"patching_rect" : [ 404.5, 259.0, 58.0, 22.0 ],
					"text" : "loadbang"
				}

			}
, 			{
				"box" : 				{
					"id" : "obj-50",
					"maxclass" : "message",
					"numinlets" : 2,
					"numoutlets" : 1,
					"outlettype" : [ "" ],
					"patching_rect" : [ 404.5, 293.0, 29.5, 22.0 ],
					"text" : "1"
				}

			}
, 			{
				"box" : 				{
					"id" : "obj-44",
					"maxclass" : "message",
					"numinlets" : 2,
					"numoutlets" : 1,
					"outlettype" : [ "" ],
					"patching_rect" : [ 641.269851207733154, 465.07937228679657, 62.5, 22.0 ],
					"text" : "0.5"
				}

			}
, 			{
				"box" : 				{
					"id" : "obj-38",
					"maxclass" : "newobj",
					"numinlets" : 2,
					"numoutlets" : 1,
					"outlettype" : [ "signal" ],
					"patching_rect" : [ 442.0, 508.0, 43.0, 22.0 ],
					"text" : "cycle~"
				}

			}
, 			{
				"box" : 				{
					"id" : "obj-37",
					"maxclass" : "newobj",
					"numinlets" : 3,
					"numoutlets" : 1,
					"outlettype" : [ "signal" ],
					"patching_rect" : [ 487.0, 508.0, 40.0, 22.0 ],
					"text" : "tri~"
				}

			}
, 			{
				"box" : 				{
					"id" : "obj-35",
					"maxclass" : "newobj",
					"numinlets" : 2,
					"numoutlets" : 1,
					"outlettype" : [ "signal" ],
					"patching_rect" : [ 529.0, 508.0, 37.0, 22.0 ],
					"text" : "saw~"
				}

			}
, 			{
				"box" : 				{
					"id" : "obj-34",
					"maxclass" : "newobj",
					"numinlets" : 5,
					"numoutlets" : 1,
					"outlettype" : [ "signal" ],
					"patching_rect" : [ 405.5, 545.0, 68.0, 22.0 ],
					"text" : "selector~ 4"
				}

			}
, 			{
				"box" : 				{
					"fontname" : "Futura Medium",
					"id" : "obj-26",
					"maxclass" : "comment",
					"numinlets" : 1,
					"numoutlets" : 0,
					"patching_rect" : [ 602.0, 286.0, 79.0, 22.0 ],
					"text" : "MIDI VALUE",
					"textjustification" : 1
				}

			}
, 			{
				"box" : 				{
					"id" : "obj-20",
					"maxclass" : "newobj",
					"numinlets" : 1,
					"numoutlets" : 1,
					"outlettype" : [ "" ],
					"patching_rect" : [ 570.0, 285.0, 32.0, 22.0 ],
					"text" : "mtof"
				}

			}
, 			{
				"box" : 				{
					"id" : "obj-19",
					"maxclass" : "message",
					"numinlets" : 2,
					"numoutlets" : 1,
					"outlettype" : [ "" ],
					"patching_rect" : [ 509.0, 285.0, 29.5, 22.0 ],
					"text" : "48"
				}

			}
, 			{
				"box" : 				{
					"fontname" : "Futura Medium",
					"id" : "obj-17",
					"maxclass" : "comment",
					"numinlets" : 1,
					"numoutlets" : 0,
					"patching_rect" : [ 919.5, 230.5, 146.000000000000114, 22.0 ],
					"text" : "K-SLIDER KEYBOARD",
					"textjustification" : 1
				}

			}
, 			{
				"box" : 				{
					"fontname" : "Futura Medium",
					"id" : "obj-12",
					"linecount" : 3,
					"maxclass" : "comment",
					"numinlets" : 1,
					"numoutlets" : 0,
					"patching_rect" : [ 919.5, 445.0, 160.0, 53.0 ],
					"text" : "CHANGE APPEARANCE IN: DOUBLE CLICK > PROTOTYPE",
					"textjustification" : 1
				}

			}
, 			{
				"box" : 				{
					"bgcolor" : [ 0.094117647058824, 0.113725490196078, 0.137254901960784, 1.0 ],
					"fgcolor" : [ 1.0, 1.0, 1.0, 1.0 ],
					"id" : "obj-5",
					"interval" : 8,
					"logfreq" : 1,
					"markercolor" : [ 1.0, 1.0, 1.0, 1.0 ],
					"maxclass" : "spectroscope~",
					"monochrome" : 0,
					"numinlets" : 2,
					"numoutlets" : 1,
					"outlettype" : [ "" ],
					"patching_rect" : [ 792.5, 427.5, 120.0, 80.0 ],
					"presentation" : 1,
					"presentation_rect" : [ 532.0, 325.0, 111.0, 107.0 ],
					"sonohicolor" : [ 1.0, 1.0, 1.0, 1.0 ],
					"sonolocolor" : [ 0.094118, 0.113725, 0.137255, 1.0 ],
					"sonomedcolor" : [ 0.301961, 0.337255, 0.403922, 1.0 ],
					"sonomedhicolor" : [ 0.494118, 0.556863, 0.607843, 1.0 ],
					"sonomedlocolor" : [ 0.666667, 0.698039, 0.717647, 1.0 ],
					"sonomonofgcolor" : [ 0.094118, 0.113725, 0.137255, 1.0 ]
				}

			}
, 			{
				"box" : 				{
					"bgcolor" : [ 0.094117647058824, 0.113725490196078, 0.137254901960784, 1.0 ],
					"bufsize" : 50,
					"calccount" : 100,
					"fgcolor" : [ 1.0, 1.0, 1.0, 1.0 ],
					"id" : "obj-4",
					"maxclass" : "scope~",
					"numinlets" : 2,
					"numoutlets" : 0,
					"patching_rect" : [ 792.5, 551.5, 130.0, 130.0 ],
					"presentation" : 1,
					"presentation_rect" : [ 410.0, 325.0, 103.0, 107.0 ]
				}

			}
, 			{
				"box" : 				{
					"bgcolor" : [ 0.741176470588235, 0.741176470588235, 0.741176470588235, 1.0 ],
					"color" : [ 1.0, 1.0, 1.0, 1.0 ],
					"id" : "obj-3",
					"maxclass" : "ezdac~",
					"numinlets" : 2,
					"numoutlets" : 0,
					"patching_rect" : [ 571.0, 706.0, 45.0, 45.0 ],
					"presentation" : 1,
					"presentation_rect" : [ 1125.0, 343.0, 22.0, 22.0 ]
				}

			}
, 			{
				"box" : 				{
					"id" : "obj-1",
					"maxclass" : "newobj",
					"numinlets" : 3,
					"numoutlets" : 1,
					"outlettype" : [ "signal" ],
					"patching_rect" : [ 571.0, 508.0, 40.0, 22.0 ],
					"text" : "rect~"
				}

			}
, 			{
				"box" : 				{
					"angle" : 270.0,
					"bordercolor" : [ 0.0, 0.0, 0.0, 1.0 ],
					"grad1" : [ 1.0, 1.0, 1.0, 1.0 ],
					"grad2" : [ 0.517647058823529, 0.517647058823529, 0.517647058823529, 1.0 ],
					"id" : "obj-10",
					"maxclass" : "panel",
					"mode" : 1,
					"numinlets" : 1,
					"numoutlets" : 0,
					"patching_rect" : [ -140.5, 453.5, 128.0, 128.0 ],
					"presentation" : 1,
					"presentation_rect" : [ 392.0, 285.0, 398.5, 157.0 ],
					"proportion" : 0.5,
					"rounded" : 10
				}

			}
, 			{
				"box" : 				{
					"autofit" : 1,
					"id" : "obj-204",
					"ignoreclick" : 1,
					"maxclass" : "fpic",
					"numinlets" : 1,
					"numoutlets" : 1,
					"outlettype" : [ "jit_matrix" ],
					"patching_rect" : [ -140.5, 433.5, 337.25, 171.0 ],
					"pic" : "Macintosh HD:/Users/maylaseliskar/Documents/Max 8/Projects/Basic-Synth-Pictures/shynth.png",
					"presentation" : 1,
					"presentation_rect" : [ 31.0, 105.0, 1299.0, 515.0 ]
				}

			}
, 			{
				"box" : 				{
					"angle" : 270.0,
					"bordercolor" : [ 0.0, 0.0, 0.0, 1.0 ],
					"grad1" : [ 0.086274509803922, 0.086274509803922, 0.086274509803922, 1.0 ],
					"grad2" : [ 0.517647058823529, 0.517647058823529, 0.517647058823529, 1.0 ],
					"id" : "obj-94",
					"maxclass" : "panel",
					"mode" : 1,
					"numinlets" : 1,
					"numoutlets" : 0,
					"patching_rect" : [ -125.5, 468.5, 128.0, 128.0 ],
					"presentation" : 1,
					"presentation_rect" : [ 82.0, 452.0, 1198.0, 186.0 ],
					"proportion" : 0.5,
					"rounded" : 15
				}

			}
, 			{
				"box" : 				{
					"autofit" : 1,
					"id" : "obj-90",
					"ignoreclick" : 1,
					"maxclass" : "fpic",
					"numinlets" : 1,
					"numoutlets" : 1,
					"outlettype" : [ "jit_matrix" ],
					"patching_rect" : [ -125.5, 448.5, 337.25, 171.0 ],
					"pic" : "Macintosh HD:/Users/maylaseliskar/Documents/Max 8/Projects/Basic-Synth-Pictures/shynth.png",
					"presentation" : 1,
					"presentation_rect" : [ 31.0, 287.0, 1299.0, 515.0 ]
				}

			}
 ],
		"lines" : [ 			{
				"patchline" : 				{
					"destination" : [ "obj-34", 4 ],
					"midpoints" : [ 580.5, 537.0, 464.0, 537.0 ],
					"source" : [ "obj-1", 0 ]
				}

			}
, 			{
				"patchline" : 				{
					"destination" : [ "obj-106", 0 ],
					"source" : [ "obj-104", 0 ]
				}

			}
, 			{
				"patchline" : 				{
					"destination" : [ "obj-2", 0 ],
					"midpoints" : [ 518.5, 761.0, 549.5, 761.0, 549.5, 534.0, 580.5, 534.0 ],
					"order" : 2,
					"source" : [ "obj-106", 0 ]
				}

			}
, 			{
				"patchline" : 				{
					"destination" : [ "obj-3", 1 ],
					"midpoints" : [ 518.5, 769.0, 558.5, 769.0, 558.5, 695.0, 606.5, 695.0 ],
					"order" : 0,
					"source" : [ "obj-106", 0 ]
				}

			}
, 			{
				"patchline" : 				{
					"destination" : [ "obj-3", 0 ],
					"midpoints" : [ 518.5, 769.0, 545.5, 769.0, 545.5, 695.0, 580.5, 695.0 ],
					"order" : 1,
					"source" : [ "obj-106", 0 ]
				}

			}
, 			{
				"patchline" : 				{
					"destination" : [ "obj-176", 0 ],
					"source" : [ "obj-13", 0 ]
				}

			}
, 			{
				"patchline" : 				{
					"destination" : [ "obj-32", 0 ],
					"source" : [ "obj-14", 0 ]
				}

			}
, 			{
				"patchline" : 				{
					"destination" : [ "obj-19", 1 ],
					"midpoints" : [ 579.5, 272.0, 529.0, 272.0 ],
					"order" : 1,
					"source" : [ "obj-15", 0 ]
				}

			}
, 			{
				"patchline" : 				{
					"destination" : [ "obj-20", 0 ],
					"order" : 0,
					"source" : [ "obj-15", 0 ]
				}

			}
, 			{
				"patchline" : 				{
					"destination" : [ "obj-23", 0 ],
					"source" : [ "obj-15", 1 ]
				}

			}
, 			{
				"patchline" : 				{
					"destination" : [ "obj-160", 0 ],
					"source" : [ "obj-158", 0 ]
				}

			}
, 			{
				"patchline" : 				{
					"destination" : [ "obj-161", 0 ],
					"source" : [ "obj-159", 0 ]
				}

			}
, 			{
				"patchline" : 				{
					"destination" : [ "obj-159", 0 ],
					"source" : [ "obj-160", 0 ]
				}

			}
, 			{
				"patchline" : 				{
					"destination" : [ "obj-15", 0 ],
					"midpoints" : [ 1359.5, 173.0, 579.5, 173.0 ],
					"source" : [ "obj-161", 0 ]
				}

			}
, 			{
				"patchline" : 				{
					"destination" : [ "obj-164", 0 ],
					"source" : [ "obj-162", 0 ]
				}

			}
, 			{
				"patchline" : 				{
					"destination" : [ "obj-182", 0 ],
					"source" : [ "obj-163", 0 ]
				}

			}
, 			{
				"patchline" : 				{
					"destination" : [ "obj-163", 0 ],
					"source" : [ "obj-164", 0 ]
				}

			}
, 			{
				"patchline" : 				{
					"destination" : [ "obj-183", 0 ],
					"source" : [ "obj-165", 0 ]
				}

			}
, 			{
				"patchline" : 				{
					"destination" : [ "obj-168", 0 ],
					"source" : [ "obj-166", 0 ]
				}

			}
, 			{
				"patchline" : 				{
					"destination" : [ "obj-186", 0 ],
					"source" : [ "obj-167", 0 ]
				}

			}
, 			{
				"patchline" : 				{
					"destination" : [ "obj-167", 0 ],
					"source" : [ "obj-168", 0 ]
				}

			}
, 			{
				"patchline" : 				{
					"destination" : [ "obj-171", 0 ],
					"source" : [ "obj-169", 0 ]
				}

			}
, 			{
				"patchline" : 				{
					"destination" : [ "obj-187", 0 ],
					"source" : [ "obj-170", 0 ]
				}

			}
, 			{
				"patchline" : 				{
					"destination" : [ "obj-170", 0 ],
					"source" : [ "obj-171", 0 ]
				}

			}
, 			{
				"patchline" : 				{
					"destination" : [ "obj-174", 0 ],
					"source" : [ "obj-172", 0 ]
				}

			}
, 			{
				"patchline" : 				{
					"destination" : [ "obj-188", 0 ],
					"source" : [ "obj-173", 0 ]
				}

			}
, 			{
				"patchline" : 				{
					"destination" : [ "obj-173", 0 ],
					"source" : [ "obj-174", 0 ]
				}

			}
, 			{
				"patchline" : 				{
					"destination" : [ "obj-189", 0 ],
					"source" : [ "obj-175", 0 ]
				}

			}
, 			{
				"patchline" : 				{
					"destination" : [ "obj-175", 0 ],
					"source" : [ "obj-176", 0 ]
				}

			}
, 			{
				"patchline" : 				{
					"destination" : [ "obj-15", 0 ],
					"midpoints" : [ 1307.5, 173.0, 579.5, 173.0 ],
					"source" : [ "obj-177", 0 ]
				}

			}
, 			{
				"patchline" : 				{
					"destination" : [ "obj-15", 0 ],
					"midpoints" : [ 1203.5, 173.0, 579.5, 173.0 ],
					"source" : [ "obj-178", 0 ]
				}

			}
, 			{
				"patchline" : 				{
					"destination" : [ "obj-15", 0 ],
					"midpoints" : [ 1151.5, 173.0, 579.5, 173.0 ],
					"source" : [ "obj-179", 0 ]
				}

			}
, 			{
				"patchline" : 				{
					"destination" : [ "obj-15", 0 ],
					"midpoints" : [ 1047.5, 173.0, 579.5, 173.0 ],
					"source" : [ "obj-180", 0 ]
				}

			}
, 			{
				"patchline" : 				{
					"destination" : [ "obj-15", 0 ],
					"midpoints" : [ 995.5, 173.0, 579.5, 173.0 ],
					"source" : [ "obj-181", 0 ]
				}

			}
, 			{
				"patchline" : 				{
					"destination" : [ "obj-15", 0 ],
					"midpoints" : [ 943.5, 173.0, 579.5, 173.0 ],
					"source" : [ "obj-182", 0 ]
				}

			}
, 			{
				"patchline" : 				{
					"destination" : [ "obj-15", 0 ],
					"midpoints" : [ 891.5, 173.0, 579.5, 173.0 ],
					"source" : [ "obj-183", 0 ]
				}

			}
, 			{
				"patchline" : 				{
					"destination" : [ "obj-15", 0 ],
					"midpoints" : [ 839.5, 173.0, 579.5, 173.0 ],
					"source" : [ "obj-184", 0 ]
				}

			}
, 			{
				"patchline" : 				{
					"destination" : [ "obj-15", 0 ],
					"midpoints" : [ 787.5, 173.0, 579.5, 173.0 ],
					"source" : [ "obj-185", 0 ]
				}

			}
, 			{
				"patchline" : 				{
					"destination" : [ "obj-15", 0 ],
					"midpoints" : [ 735.5, 173.0, 579.5, 173.0 ],
					"source" : [ "obj-186", 0 ]
				}

			}
, 			{
				"patchline" : 				{
					"destination" : [ "obj-15", 0 ],
					"midpoints" : [ 683.5, 173.0, 579.5, 173.0 ],
					"source" : [ "obj-187", 0 ]
				}

			}
, 			{
				"patchline" : 				{
					"destination" : [ "obj-15", 0 ],
					"midpoints" : [ 631.5, 173.0, 579.5, 173.0 ],
					"source" : [ "obj-188", 0 ]
				}

			}
, 			{
				"patchline" : 				{
					"destination" : [ "obj-15", 0 ],
					"midpoints" : [ 579.5, 173.0, 579.5, 173.0 ],
					"source" : [ "obj-189", 0 ]
				}

			}
, 			{
				"patchline" : 				{
					"destination" : [ "obj-160", 1 ],
					"midpoints" : [ 773.5, -29.5, 1372.5, -29.5 ],
					"source" : [ "obj-190", 15 ]
				}

			}
, 			{
				"patchline" : 				{
					"destination" : [ "obj-164", 1 ],
					"midpoints" : [ 670.033333333333303, -29.5, 956.5, -29.5 ],
					"source" : [ "obj-190", 7 ]
				}

			}
, 			{
				"patchline" : 				{
					"destination" : [ "obj-168", 1 ],
					"midpoints" : [ 618.299999999999955, -29.5, 748.5, -29.5 ],
					"source" : [ "obj-190", 3 ]
				}

			}
, 			{
				"patchline" : 				{
					"destination" : [ "obj-171", 1 ],
					"midpoints" : [ 605.366666666666674, -29.5, 696.5, -29.5 ],
					"source" : [ "obj-190", 2 ]
				}

			}
, 			{
				"patchline" : 				{
					"destination" : [ "obj-174", 1 ],
					"midpoints" : [ 592.43333333333328, -29.5, 644.5, -29.5 ],
					"source" : [ "obj-190", 1 ]
				}

			}
, 			{
				"patchline" : 				{
					"destination" : [ "obj-176", 1 ],
					"midpoints" : [ 579.5, -29.5, 592.5, -29.5 ],
					"source" : [ "obj-190", 0 ]
				}

			}
, 			{
				"patchline" : 				{
					"destination" : [ "obj-54", 1 ],
					"midpoints" : [ 657.100000000000023, -29.5, 904.5, -29.5 ],
					"source" : [ "obj-190", 6 ]
				}

			}
, 			{
				"patchline" : 				{
					"destination" : [ "obj-57", 1 ],
					"midpoints" : [ 644.166666666666629, -29.5, 852.5, -29.5 ],
					"source" : [ "obj-190", 5 ]
				}

			}
, 			{
				"patchline" : 				{
					"destination" : [ "obj-60", 1 ],
					"midpoints" : [ 631.233333333333348, -29.5, 800.5, -29.5 ],
					"source" : [ "obj-190", 4 ]
				}

			}
, 			{
				"patchline" : 				{
					"destination" : [ "obj-66", 1 ],
					"midpoints" : [ 760.566666666666606, -29.5, 1320.5, -29.5 ],
					"source" : [ "obj-190", 14 ]
				}

			}
, 			{
				"patchline" : 				{
					"destination" : [ "obj-69", 1 ],
					"midpoints" : [ 747.633333333333326, -29.5, 1268.5, -29.5 ],
					"source" : [ "obj-190", 13 ]
				}

			}
, 			{
				"patchline" : 				{
					"destination" : [ "obj-72", 1 ],
					"midpoints" : [ 734.700000000000045, -29.5, 1216.5, -29.5 ],
					"source" : [ "obj-190", 12 ]
				}

			}
, 			{
				"patchline" : 				{
					"destination" : [ "obj-75", 1 ],
					"midpoints" : [ 721.766666666666652, -29.5, 1164.5, -29.5 ],
					"source" : [ "obj-190", 11 ]
				}

			}
, 			{
				"patchline" : 				{
					"destination" : [ "obj-78", 1 ],
					"midpoints" : [ 708.833333333333371, -29.5, 1112.5, -29.5 ],
					"source" : [ "obj-190", 10 ]
				}

			}
, 			{
				"patchline" : 				{
					"destination" : [ "obj-81", 1 ],
					"midpoints" : [ 695.899999999999977, -29.5, 1060.5, -29.5 ],
					"source" : [ "obj-190", 9 ]
				}

			}
, 			{
				"patchline" : 				{
					"destination" : [ "obj-84", 1 ],
					"midpoints" : [ 682.966666666666697, -29.5, 1008.5, -29.5 ],
					"source" : [ "obj-190", 8 ]
				}

			}
, 			{
				"patchline" : 				{
					"destination" : [ "obj-190", 0 ],
					"midpoints" : [ 579.5, -117.0, 579.5, -117.0 ],
					"source" : [ "obj-192", 0 ]
				}

			}
, 			{
				"patchline" : 				{
					"destination" : [ "obj-192", 0 ],
					"source" : [ "obj-193", 0 ]
				}

			}
, 			{
				"patchline" : 				{
					"destination" : [ "obj-195", 0 ],
					"source" : [ "obj-194", 0 ]
				}

			}
, 			{
				"patchline" : 				{
					"destination" : [ "obj-193", 0 ],
					"source" : [ "obj-195", 0 ]
				}

			}
, 			{
				"patchline" : 				{
					"destination" : [ "obj-3", 1 ],
					"midpoints" : [ 580.5, 697.5, 606.5, 697.5 ],
					"order" : 3,
					"source" : [ "obj-2", 0 ]
				}

			}
, 			{
				"patchline" : 				{
					"destination" : [ "obj-3", 0 ],
					"order" : 4,
					"source" : [ "obj-2", 0 ]
				}

			}
, 			{
				"patchline" : 				{
					"destination" : [ "obj-4", 0 ],
					"midpoints" : [ 580.5, 695.0, 749.5, 695.0, 749.5, 546.0, 802.0, 546.0 ],
					"order" : 1,
					"source" : [ "obj-2", 0 ]
				}

			}
, 			{
				"patchline" : 				{
					"destination" : [ "obj-5", 0 ],
					"midpoints" : [ 580.5, 695.0, 770.5, 695.0, 770.5, 422.0, 802.0, 422.0 ],
					"order" : 2,
					"source" : [ "obj-2", 0 ]
				}

			}
, 			{
				"patchline" : 				{
					"destination" : [ "obj-9", 0 ],
					"midpoints" : [ 580.5, 688.75, 802.0, 688.75 ],
					"order" : 0,
					"source" : [ "obj-2", 0 ]
				}

			}
, 			{
				"patchline" : 				{
					"destination" : [ "obj-1", 0 ],
					"midpoints" : [ 579.5, 407.0, 580.5, 407.0 ],
					"order" : 0,
					"source" : [ "obj-20", 0 ]
				}

			}
, 			{
				"patchline" : 				{
					"destination" : [ "obj-35", 0 ],
					"midpoints" : [ 579.5, 407.0, 538.5, 407.0 ],
					"order" : 1,
					"source" : [ "obj-20", 0 ]
				}

			}
, 			{
				"patchline" : 				{
					"destination" : [ "obj-37", 0 ],
					"midpoints" : [ 579.5, 407.0, 496.5, 407.0 ],
					"order" : 2,
					"source" : [ "obj-20", 0 ]
				}

			}
, 			{
				"patchline" : 				{
					"destination" : [ "obj-38", 0 ],
					"midpoints" : [ 579.5, 407.0, 451.5, 407.0 ],
					"order" : 3,
					"source" : [ "obj-20", 0 ]
				}

			}
, 			{
				"patchline" : 				{
					"destination" : [ "obj-24", 0 ],
					"source" : [ "obj-23", 0 ]
				}

			}
, 			{
				"patchline" : 				{
					"destination" : [ "obj-29", 0 ],
					"source" : [ "obj-24", 1 ]
				}

			}
, 			{
				"patchline" : 				{
					"destination" : [ "obj-13", 0 ],
					"midpoints" : [ 462.5, 24.5, 526.5, 24.5, 526.5, -28.0, 571.5, -28.0 ],
					"order" : 31,
					"source" : [ "obj-25", 0 ]
				}

			}
, 			{
				"patchline" : 				{
					"destination" : [ "obj-158", 0 ],
					"midpoints" : [ 462.5, 24.5, 915.5, 24.5, 915.5, -28.0, 1349.5, -28.0 ],
					"order" : 1,
					"source" : [ "obj-25", 0 ]
				}

			}
, 			{
				"patchline" : 				{
					"destination" : [ "obj-161", 0 ],
					"midpoints" : [ 462.5, 33.5, 1359.5, 33.5 ],
					"order" : 0,
					"source" : [ "obj-25", 0 ]
				}

			}
, 			{
				"patchline" : 				{
					"destination" : [ "obj-162", 0 ],
					"midpoints" : [ 462.5, 24.5, 708.0, 24.5, 708.0, -28.0, 934.5, -28.0 ],
					"order" : 17,
					"source" : [ "obj-25", 0 ]
				}

			}
, 			{
				"patchline" : 				{
					"destination" : [ "obj-166", 0 ],
					"midpoints" : [ 462.5, 24.5, 605.0, 24.5, 605.0, -28.0, 728.5, -28.0 ],
					"order" : 25,
					"source" : [ "obj-25", 0 ]
				}

			}
, 			{
				"patchline" : 				{
					"destination" : [ "obj-169", 0 ],
					"midpoints" : [ 462.5, 24.5, 579.5, 24.5, 579.5, -28.0, 677.5, -28.0 ],
					"order" : 27,
					"source" : [ "obj-25", 0 ]
				}

			}
, 			{
				"patchline" : 				{
					"destination" : [ "obj-172", 0 ],
					"midpoints" : [ 462.5, 24.5, 552.0, 24.5, 552.0, -28.0, 622.5, -28.0 ],
					"order" : 29,
					"source" : [ "obj-25", 0 ]
				}

			}
, 			{
				"patchline" : 				{
					"destination" : [ "obj-177", 0 ],
					"midpoints" : [ 462.5, 33.5, 1307.5, 33.5 ],
					"order" : 2,
					"source" : [ "obj-25", 0 ]
				}

			}
, 			{
				"patchline" : 				{
					"destination" : [ "obj-178", 0 ],
					"midpoints" : [ 462.5, 33.5, 1203.5, 33.5 ],
					"order" : 6,
					"source" : [ "obj-25", 0 ]
				}

			}
, 			{
				"patchline" : 				{
					"destination" : [ "obj-179", 0 ],
					"midpoints" : [ 462.5, 33.5, 1151.5, 33.5 ],
					"order" : 8,
					"source" : [ "obj-25", 0 ]
				}

			}
, 			{
				"patchline" : 				{
					"destination" : [ "obj-180", 0 ],
					"midpoints" : [ 462.5, 33.5, 1047.5, 33.5 ],
					"order" : 12,
					"source" : [ "obj-25", 0 ]
				}

			}
, 			{
				"patchline" : 				{
					"destination" : [ "obj-181", 0 ],
					"midpoints" : [ 462.5, 33.5, 995.5, 33.5 ],
					"order" : 14,
					"source" : [ "obj-25", 0 ]
				}

			}
, 			{
				"patchline" : 				{
					"destination" : [ "obj-182", 0 ],
					"midpoints" : [ 462.5, 33.5, 943.5, 33.5 ],
					"order" : 16,
					"source" : [ "obj-25", 0 ]
				}

			}
, 			{
				"patchline" : 				{
					"destination" : [ "obj-183", 0 ],
					"midpoints" : [ 462.5, 33.5, 891.5, 33.5 ],
					"order" : 18,
					"source" : [ "obj-25", 0 ]
				}

			}
, 			{
				"patchline" : 				{
					"destination" : [ "obj-184", 0 ],
					"midpoints" : [ 462.5, 33.5, 839.5, 33.5 ],
					"order" : 20,
					"source" : [ "obj-25", 0 ]
				}

			}
, 			{
				"patchline" : 				{
					"destination" : [ "obj-185", 0 ],
					"midpoints" : [ 462.5, 33.5, 787.5, 33.5 ],
					"order" : 22,
					"source" : [ "obj-25", 0 ]
				}

			}
, 			{
				"patchline" : 				{
					"destination" : [ "obj-186", 0 ],
					"midpoints" : [ 462.5, 33.5, 735.5, 33.5 ],
					"order" : 24,
					"source" : [ "obj-25", 0 ]
				}

			}
, 			{
				"patchline" : 				{
					"destination" : [ "obj-187", 0 ],
					"midpoints" : [ 462.5, 33.5, 683.5, 33.5 ],
					"order" : 26,
					"source" : [ "obj-25", 0 ]
				}

			}
, 			{
				"patchline" : 				{
					"destination" : [ "obj-188", 0 ],
					"midpoints" : [ 462.5, 33.5, 631.5, 33.5 ],
					"order" : 28,
					"source" : [ "obj-25", 0 ]
				}

			}
, 			{
				"patchline" : 				{
					"destination" : [ "obj-189", 0 ],
					"midpoints" : [ 462.5, 33.5, 579.5, 33.5 ],
					"order" : 30,
					"source" : [ "obj-25", 0 ]
				}

			}
, 			{
				"patchline" : 				{
					"destination" : [ "obj-46", 0 ],
					"midpoints" : [ 462.5, 33.5, 1255.5, 33.5 ],
					"order" : 4,
					"source" : [ "obj-25", 0 ]
				}

			}
, 			{
				"patchline" : 				{
					"destination" : [ "obj-49", 0 ],
					"midpoints" : [ 462.5, 33.5, 1099.5, 33.5 ],
					"order" : 10,
					"source" : [ "obj-25", 0 ]
				}

			}
, 			{
				"patchline" : 				{
					"destination" : [ "obj-52", 0 ],
					"midpoints" : [ 462.5, 24.5, 682.5, 24.5, 682.5, -28.0, 883.5, -28.0 ],
					"order" : 19,
					"source" : [ "obj-25", 0 ]
				}

			}
, 			{
				"patchline" : 				{
					"destination" : [ "obj-55", 0 ],
					"midpoints" : [ 462.5, 24.5, 655.0, 24.5, 655.0, -28.0, 828.5, -28.0 ],
					"order" : 21,
					"source" : [ "obj-25", 0 ]
				}

			}
, 			{
				"patchline" : 				{
					"destination" : [ "obj-58", 0 ],
					"midpoints" : [ 462.5, 24.5, 630.0, 24.5, 630.0, -28.0, 778.5, -28.0 ],
					"order" : 23,
					"source" : [ "obj-25", 0 ]
				}

			}
, 			{
				"patchline" : 				{
					"destination" : [ "obj-64", 0 ],
					"midpoints" : [ 462.5, 24.5, 890.0, 24.5, 890.0, -28.0, 1298.5, -28.0 ],
					"order" : 3,
					"source" : [ "obj-25", 0 ]
				}

			}
, 			{
				"patchline" : 				{
					"destination" : [ "obj-67", 0 ],
					"midpoints" : [ 462.5, 24.5, 864.0, 24.5, 864.0, -28.0, 1246.5, -28.0 ],
					"order" : 5,
					"source" : [ "obj-25", 0 ]
				}

			}
, 			{
				"patchline" : 				{
					"destination" : [ "obj-70", 0 ],
					"midpoints" : [ 462.5, 24.5, 837.0, 24.5, 837.0, -28.0, 1192.5, -28.0 ],
					"order" : 7,
					"source" : [ "obj-25", 0 ]
				}

			}
, 			{
				"patchline" : 				{
					"destination" : [ "obj-73", 0 ],
					"midpoints" : [ 462.5, 24.5, 810.0, 24.5, 810.0, -28.0, 1138.5, -28.0 ],
					"order" : 9,
					"source" : [ "obj-25", 0 ]
				}

			}
, 			{
				"patchline" : 				{
					"destination" : [ "obj-76", 0 ],
					"midpoints" : [ 462.5, 24.5, 784.5, 24.5, 784.5, -28.0, 1087.5, -28.0 ],
					"order" : 11,
					"source" : [ "obj-25", 0 ]
				}

			}
, 			{
				"patchline" : 				{
					"destination" : [ "obj-79", 0 ],
					"midpoints" : [ 462.5, 24.5, 760.0, 24.5, 760.0, -28.0, 1038.5, -28.0 ],
					"order" : 13,
					"source" : [ "obj-25", 0 ]
				}

			}
, 			{
				"patchline" : 				{
					"destination" : [ "obj-82", 0 ],
					"midpoints" : [ 462.5, 24.5, 734.5, 24.5, 734.5, -28.0, 987.5, -28.0 ],
					"order" : 15,
					"source" : [ "obj-25", 0 ]
				}

			}
, 			{
				"patchline" : 				{
					"destination" : [ "obj-36", 0 ],
					"source" : [ "obj-28", 0 ]
				}

			}
, 			{
				"patchline" : 				{
					"destination" : [ "obj-39", 1 ],
					"midpoints" : [ 845.166666666666629, 488.0, 432.666666666666629, 488.0 ],
					"source" : [ "obj-29", 0 ]
				}

			}
, 			{
				"patchline" : 				{
					"destination" : [ "obj-43", 0 ],
					"source" : [ "obj-30", 0 ]
				}

			}
, 			{
				"patchline" : 				{
					"destination" : [ "obj-25", 0 ],
					"source" : [ "obj-32", 0 ]
				}

			}
, 			{
				"patchline" : 				{
					"destination" : [ "obj-34", 0 ],
					"source" : [ "obj-33", 0 ]
				}

			}
, 			{
				"patchline" : 				{
					"destination" : [ "obj-39", 0 ],
					"midpoints" : [ 415.0, 584.5, 422.166666666666629, 584.5 ],
					"source" : [ "obj-34", 0 ]
				}

			}
, 			{
				"patchline" : 				{
					"destination" : [ "obj-34", 3 ],
					"midpoints" : [ 538.5, 537.0, 451.75, 537.0 ],
					"source" : [ "obj-35", 0 ]
				}

			}
, 			{
				"patchline" : 				{
					"destination" : [ "obj-2", 0 ],
					"midpoints" : [ 611.5, 606.0, 596.0, 606.0, 596.0, 534.0, 580.5, 534.0 ],
					"source" : [ "obj-36", 0 ]
				}

			}
, 			{
				"patchline" : 				{
					"destination" : [ "obj-34", 2 ],
					"midpoints" : [ 496.5, 537.0, 439.5, 537.0 ],
					"source" : [ "obj-37", 0 ]
				}

			}
, 			{
				"patchline" : 				{
					"destination" : [ "obj-34", 1 ],
					"midpoints" : [ 451.5, 537.0, 427.25, 537.0 ],
					"source" : [ "obj-38", 0 ]
				}

			}
, 			{
				"patchline" : 				{
					"destination" : [ "obj-2", 0 ],
					"midpoints" : [ 422.166666666666629, 635.0, 501.333333333333314, 635.0, 501.333333333333314, 534.0, 580.5, 534.0 ],
					"source" : [ "obj-39", 0 ]
				}

			}
, 			{
				"patchline" : 				{
					"destination" : [ "obj-1", 1 ],
					"midpoints" : [ 618.5, 488.25, 591.0, 488.25 ],
					"order" : 2,
					"source" : [ "obj-42", 0 ]
				}

			}
, 			{
				"patchline" : 				{
					"destination" : [ "obj-37", 1 ],
					"midpoints" : [ 618.5, 488.25, 507.0, 488.25 ],
					"order" : 3,
					"source" : [ "obj-42", 0 ]
				}

			}
, 			{
				"patchline" : 				{
					"destination" : [ "obj-44", 1 ],
					"midpoints" : [ 618.5, 445.5, 694.269851207733154, 445.5 ],
					"order" : 0,
					"source" : [ "obj-42", 0 ]
				}

			}
, 			{
				"patchline" : 				{
					"destination" : [ "obj-44", 0 ],
					"order" : 1,
					"source" : [ "obj-42", 0 ]
				}

			}
, 			{
				"patchline" : 				{
					"destination" : [ "obj-42", 0 ],
					"source" : [ "obj-43", 0 ]
				}

			}
, 			{
				"patchline" : 				{
					"destination" : [ "obj-15", 0 ],
					"midpoints" : [ 1255.5, 173.0, 579.5, 173.0 ],
					"source" : [ "obj-46", 0 ]
				}

			}
, 			{
				"patchline" : 				{
					"destination" : [ "obj-15", 0 ],
					"midpoints" : [ 1099.5, 173.0, 579.5, 173.0 ],
					"source" : [ "obj-49", 0 ]
				}

			}
, 			{
				"patchline" : 				{
					"destination" : [ "obj-33", 0 ],
					"source" : [ "obj-50", 0 ]
				}

			}
, 			{
				"patchline" : 				{
					"destination" : [ "obj-50", 0 ],
					"source" : [ "obj-51", 0 ]
				}

			}
, 			{
				"patchline" : 				{
					"destination" : [ "obj-54", 0 ],
					"source" : [ "obj-52", 0 ]
				}

			}
, 			{
				"patchline" : 				{
					"destination" : [ "obj-165", 0 ],
					"source" : [ "obj-54", 0 ]
				}

			}
, 			{
				"patchline" : 				{
					"destination" : [ "obj-57", 0 ],
					"source" : [ "obj-55", 0 ]
				}

			}
, 			{
				"patchline" : 				{
					"destination" : [ "obj-184", 0 ],
					"source" : [ "obj-56", 0 ]
				}

			}
, 			{
				"patchline" : 				{
					"destination" : [ "obj-56", 0 ],
					"source" : [ "obj-57", 0 ]
				}

			}
, 			{
				"patchline" : 				{
					"destination" : [ "obj-60", 0 ],
					"source" : [ "obj-58", 0 ]
				}

			}
, 			{
				"patchline" : 				{
					"destination" : [ "obj-185", 0 ],
					"source" : [ "obj-59", 0 ]
				}

			}
, 			{
				"patchline" : 				{
					"destination" : [ "obj-59", 0 ],
					"source" : [ "obj-60", 0 ]
				}

			}
, 			{
				"patchline" : 				{
					"destination" : [ "obj-66", 0 ],
					"source" : [ "obj-64", 0 ]
				}

			}
, 			{
				"patchline" : 				{
					"destination" : [ "obj-177", 0 ],
					"source" : [ "obj-65", 0 ]
				}

			}
, 			{
				"patchline" : 				{
					"destination" : [ "obj-65", 0 ],
					"source" : [ "obj-66", 0 ]
				}

			}
, 			{
				"patchline" : 				{
					"destination" : [ "obj-69", 0 ],
					"source" : [ "obj-67", 0 ]
				}

			}
, 			{
				"patchline" : 				{
					"destination" : [ "obj-46", 0 ],
					"source" : [ "obj-68", 0 ]
				}

			}
, 			{
				"patchline" : 				{
					"destination" : [ "obj-68", 0 ],
					"source" : [ "obj-69", 0 ]
				}

			}
, 			{
				"patchline" : 				{
					"destination" : [ "obj-72", 0 ],
					"source" : [ "obj-70", 0 ]
				}

			}
, 			{
				"patchline" : 				{
					"destination" : [ "obj-178", 0 ],
					"source" : [ "obj-71", 0 ]
				}

			}
, 			{
				"patchline" : 				{
					"destination" : [ "obj-71", 0 ],
					"source" : [ "obj-72", 0 ]
				}

			}
, 			{
				"patchline" : 				{
					"destination" : [ "obj-75", 0 ],
					"source" : [ "obj-73", 0 ]
				}

			}
, 			{
				"patchline" : 				{
					"destination" : [ "obj-179", 0 ],
					"source" : [ "obj-74", 0 ]
				}

			}
, 			{
				"patchline" : 				{
					"destination" : [ "obj-74", 0 ],
					"source" : [ "obj-75", 0 ]
				}

			}
, 			{
				"patchline" : 				{
					"destination" : [ "obj-78", 0 ],
					"source" : [ "obj-76", 0 ]
				}

			}
, 			{
				"patchline" : 				{
					"destination" : [ "obj-49", 0 ],
					"source" : [ "obj-77", 0 ]
				}

			}
, 			{
				"patchline" : 				{
					"destination" : [ "obj-77", 0 ],
					"source" : [ "obj-78", 0 ]
				}

			}
, 			{
				"patchline" : 				{
					"destination" : [ "obj-81", 0 ],
					"source" : [ "obj-79", 0 ]
				}

			}
, 			{
				"patchline" : 				{
					"destination" : [ "obj-15", 0 ],
					"midpoints" : [ 374.5, 248.0, 477.0, 248.0, 477.0, 208.0, 579.5, 208.0 ],
					"order" : 1,
					"source" : [ "obj-8", 0 ]
				}

			}
, 			{
				"patchline" : 				{
					"destination" : [ "obj-2", 0 ],
					"midpoints" : [ 374.5, 395.0, 580.5, 395.0 ],
					"order" : 0,
					"source" : [ "obj-8", 0 ]
				}

			}
, 			{
				"patchline" : 				{
					"destination" : [ "obj-33", 0 ],
					"midpoints" : [ 374.5, 247.5, 414.0, 247.5 ],
					"order" : 2,
					"source" : [ "obj-8", 0 ]
				}

			}
, 			{
				"patchline" : 				{
					"destination" : [ "obj-180", 0 ],
					"source" : [ "obj-80", 0 ]
				}

			}
, 			{
				"patchline" : 				{
					"destination" : [ "obj-80", 0 ],
					"source" : [ "obj-81", 0 ]
				}

			}
, 			{
				"patchline" : 				{
					"destination" : [ "obj-84", 0 ],
					"source" : [ "obj-82", 0 ]
				}

			}
, 			{
				"patchline" : 				{
					"destination" : [ "obj-181", 0 ],
					"source" : [ "obj-83", 0 ]
				}

			}
, 			{
				"patchline" : 				{
					"destination" : [ "obj-83", 0 ],
					"source" : [ "obj-84", 0 ]
				}

			}
 ],
		"dependency_cache" : [ 			{
				"name" : "shynth.png",
				"bootpath" : "~/Documents/Max 8/Projects/Basic-Synth-Pictures",
				"patcherrelativepath" : "./Basic-Synth-Pictures",
				"type" : "PNG",
				"implicit" : 1
			}
 ],
		"autosave" : 0,
		"styles" : [ 			{
				"name" : "rnbodefault",
				"default" : 				{
					"accentcolor" : [ 0.343034118413925, 0.506230533123016, 0.86220508813858, 1.0 ],
					"bgcolor" : [ 0.031372549019608, 0.125490196078431, 0.211764705882353, 1.0 ],
					"bgfillcolor" : 					{
						"angle" : 270.0,
						"autogradient" : 0.0,
						"color" : [ 0.031372549019608, 0.125490196078431, 0.211764705882353, 1.0 ],
						"color1" : [ 0.031372549019608, 0.125490196078431, 0.211764705882353, 1.0 ],
						"color2" : [ 0.263682, 0.004541, 0.038797, 1.0 ],
						"proportion" : 0.39,
						"type" : "color"
					}
,
					"color" : [ 0.929412, 0.929412, 0.352941, 1.0 ],
					"elementcolor" : [ 0.357540726661682, 0.515565991401672, 0.861786782741547, 1.0 ],
					"fontname" : [ "Lato" ],
					"fontsize" : [ 12.0 ],
					"stripecolor" : [ 0.258338063955307, 0.352425158023834, 0.511919498443604, 1.0 ],
					"textcolor_inverse" : [ 0.968627, 0.968627, 0.968627, 1 ]
				}
,
				"parentstyle" : "",
				"multi" : 0
			}
, 			{
				"name" : "rnbohighcontrast",
				"default" : 				{
					"accentcolor" : [ 0.666666666666667, 0.666666666666667, 0.666666666666667, 1.0 ],
					"bgcolor" : [ 0.0, 0.0, 0.0, 1.0 ],
					"bgfillcolor" : 					{
						"angle" : 270.0,
						"autogradient" : 0.0,
						"color" : [ 0.0, 0.0, 0.0, 1.0 ],
						"color1" : [ 0.090196078431373, 0.090196078431373, 0.090196078431373, 1.0 ],
						"color2" : [ 0.156862745098039, 0.168627450980392, 0.164705882352941, 1.0 ],
						"proportion" : 0.5,
						"type" : "color"
					}
,
					"clearcolor" : [ 1.0, 1.0, 1.0, 0.0 ],
					"color" : [ 1.0, 0.874509803921569, 0.141176470588235, 1.0 ],
					"editing_bgcolor" : [ 0.258823529411765, 0.258823529411765, 0.258823529411765, 1.0 ],
					"elementcolor" : [ 0.223386004567146, 0.254748553037643, 0.998085916042328, 1.0 ],
					"fontsize" : [ 13.0 ],
					"locked_bgcolor" : [ 0.258823529411765, 0.258823529411765, 0.258823529411765, 1.0 ],
					"selectioncolor" : [ 0.301960784313725, 0.694117647058824, 0.949019607843137, 1.0 ],
					"stripecolor" : [ 0.258823529411765, 0.258823529411765, 0.258823529411765, 1.0 ],
					"textcolor" : [ 1.0, 1.0, 1.0, 1.0 ],
					"textcolor_inverse" : [ 1.0, 1.0, 1.0, 1.0 ]
				}
,
				"parentstyle" : "",
				"multi" : 0
			}
 ],
		"selectioncolor" : [ 0.352941176470588, 0.929411764705882, 0.588235294117647, 1.0 ]
	}

}
